<svg xmlns="http://www.w3.org/2000/svg" width="32" height="32" fill="none"><path fill="#fff" d="M3 16.037a13.948 13.948 0 0 0 3.086 8.684 14.158 14.158 0 0 0 7.852 4.914c3.101.715 6.355.372 9.234-.973a14.087 14.087 0 0 0 6.635-6.443 1.265 1.265 0 0 0-.831-1.889 1.298 1.298 0 0 0-1.066.247c-.148.116-.269.264-.353.431a11.377 11.377 0 0 1-4.25 4.757 11.517 11.517 0 0 1-6.164 1.745 11.65 11.65 0 0 1-5.528-1.389 11.533 11.533 0 0 1-4.188-3.837 11.387 11.387 0 0 1-.86-10.926 11.49 11.49 0 0 1 3.537-4.435A11.623 11.623 0 0 1 15.348 4.7a11.665 11.665 0 0 1 5.677.532 11.577 11.577 0 0 1 4.732 3.155H22.35c-.318-.005-.627.1-.874.298a1.337 1.337 0 0 0-.476.786 1.265 1.265 0 0 0 .3 1.028 1.286 1.286 0 0 0 .986.438h6.428c.341 0 .668-.135.91-.374A1.27 1.27 0 0 0 30 9.663v-6.31c.006-.315-.1-.622-.3-.867-.2-.245-.481-.412-.793-.472a1.296 1.296 0 0 0-1.037.299 1.276 1.276 0 0 0-.442.976v3.123a14.173 14.173 0 0 0-7.226-4.066 14.256 14.256 0 0 0-8.282.66 14.121 14.121 0 0 0-6.48 5.156A13.939 13.939 0 0 0 3 16.037Z"/><path fill="#fff" d="M21.834 21.667a.992.992 0 0 1-.584-.175l-6.416-3.85v-6.475a1.167 1.167 0 1 1 2.333 0v5.191l5.25 3.15a1.11 1.11 0 0 1 .408 1.575 1.109 1.109 0 0 1-.991.584Z"/></svg>