<svg xmlns="http://www.w3.org/2000/svg" width="72" height="72" fill="none"><circle cx="36" cy="36" r="36" fill="#4C5269"/><path fill="url(#a)" fill-rule="evenodd" d="M71.562 41.63C68.86 58.837 53.967 72 36 72c-10.399 0-19.768-4.41-26.34-11.46C14.368 55.01 26.076 50.5 52.5 50.5c4.145 0 8.427-2.65 12.618-5.245 2.184-1.35 4.342-2.687 6.444-3.626Z" clip-rule="evenodd"/><g clip-path="url(#b)"><path fill="#fff" d="M26.82 26.82V32.1H32.1V26.82H26.82Zm6.54 0V32.1h5.28V26.82h-5.28Zm6.541 0V32.1h5.279V26.82H39.9Zm-13.08 6.54v5.28h5.278v-5.28H26.82Zm6.54 0v5.28h5.278v-5.28h-5.278Zm6.54 0v5.28h5.279v-5.28H39.9Zm-13.08 6.541v5.279h5.278V39.9H26.82Zm6.54 0v5.279h5.278V39.9h-5.278Zm6.54 0v5.279h5.279V39.9H39.9Z"/></g><defs><linearGradient id="a" x1="44.983" x2="44.983" y1="41.054" y2="78.546" gradientUnits="userSpaceOnUse"><stop stop-color="#8A90FE"/><stop offset="1" stop-color="#CD9AFF"/></linearGradient><clipPath id="b"><path fill="#fff" d="M26 26h20v20H26z"/></clipPath></defs></svg>