<svg xmlns="http://www.w3.org/2000/svg" width="32" height="32" fill="none"><path fill="#fff" d="M18.825 31c-8.51 0-8.575-.354-9.629-1.148-.559-.421-1.613-.713-5.466-.964-.279-.02-.546-.126-.724-.343C2.925 28.445 1 25.633 1 21.13c0-4.439 1.378-6.463 1.436-6.557.17-.274.471-.44.793-.44 3.163 0 7.548-4.046 10.496-11.107C14.235 1.804 14.34 1 16.212 1c1.065 0 2.26.764 2.849 1.745 1.208 2.002.595 6.304.027 8.602 1.931-.016 5.426-.042 7.09-.042 2.313 0 3.844 1.381 3.89 3.402.016.666-.072 1.518-.264 1.959.51.51 1.166 1.276 1.195 2.264.036 1.276-.798 2.247-1.33 2.804.122.37.366.863.342 1.45-.059 1.447-1.173 2.379-1.867 2.865.057.396.103 1.143-.024 1.72-.501 2.305-3.873 3.23-9.295 3.23V31ZM4.227 26.985c3.356.28 5.15.655 6.095 1.369.733.553.62.771 8.503.771 2.404 0 7.106-.1 7.467-1.754.143-.661-.552-1.311-.555-1.316a.95.95 0 0 1 .485-1.224c.008-.004 1.877-.674 1.92-1.721.027-.669-.431-1.071-.442-1.088-.272-.424-.173-1.006.241-1.295.005-.003 1.216-.739 1.186-1.741-.022-.797-1.07-1.358-1.102-1.376a.949.949 0 0 1-.286-1.39s.476-.757.459-1.468c-.035-1.523-1.669-1.57-2.019-1.57-2.362 0-8.427.023-8.427.023a.926.926 0 0 1-.787-.416c-.176-.261-.188-.588-.086-.885.915-2.639 1.426-6.78.577-8.194-.25-.418-.307-.834-1.244-.834-.13 0-.438.103-.76.871-3.128 7.5-7.8 11.838-11.63 12.229-.33.754-.95 2.316-.95 5.152 0 2.893.914 5.133 1.354 5.857h.001Z"/></svg>