<svg xmlns="http://www.w3.org/2000/svg" width="14" height="14" fill="none"><g clip-path="url(#a)"><path fill="#1E222E" d="M7.002 0h-.004C3.138 0 0 3.14 0 7c0 1.531.493 2.95 1.333 4.103l-.873 2.6 2.69-.86A6.94 6.94 0 0 0 7.003 14C10.862 14 14 10.86 14 7s-3.139-7-6.998-7Z"/><path fill="#E3E5EB" d="M11.075 9.885c-.169.477-.84.872-1.374.988-.366.078-.843.14-2.452-.527-2.057-.852-3.381-2.943-3.485-3.078-.099-.136-.83-1.107-.83-2.112 0-1.004.51-1.493.715-1.703.169-.173.448-.251.716-.251.086 0 .164.004.234.008.206.008.309.02.445.345.168.407.58 1.412.629 1.515.05.103.1.243.03.379-.066.14-.124.202-.227.32-.103.12-.201.21-.305.339-.094.11-.2.23-.082.435.12.202.53.873 1.136 1.412.781.695 1.415.918 1.641 1.012.17.07.37.053.494-.078.156-.169.35-.449.547-.724.14-.198.316-.223.502-.153.189.066 1.19.56 1.395.663.205.103.341.152.39.239.05.086.05.493-.119.97Z"/></g><defs><clipPath id="a"><path fill="#fff" d="M0 0h14v14H0z"/></clipPath></defs></svg>