<svg xmlns="http://www.w3.org/2000/svg" width="72" height="72" fill="none"><circle cx="36" cy="36" r="36" fill="#4C5269"/><path fill="url(#a)" fill-rule="evenodd" d="M36 72c19.882 0 36-16.118 36-36a35.864 35.864 0 0 0-8.988-23.8C56.28 16.178 48.142 20 39 20 20.493 20 8.441 23.341.796 28.434A36.143 36.143 0 0 0 0 36c0 19.882 16.118 36 36 36Z" clip-rule="evenodd"/><g clip-path="url(#b)"><path fill="#fff" d="M26.82 26.82V32.1H32.1V26.82H26.82Zm6.54 0V32.1h5.28V26.82h-5.28Zm6.541 0V32.1h5.279V26.82H39.9Zm-13.08 6.54v5.28h5.278v-5.28H26.82Zm6.54 0v5.28h5.278v-5.28h-5.278Zm6.54 0v5.28h5.279v-5.28H39.9Zm-13.08 6.541v5.279h5.278V39.9H26.82Zm6.54 0v5.279h5.278V39.9h-5.278Zm6.54 0v5.279h5.279V39.9H39.9Z"/></g><defs><linearGradient id="a" x1="41.085" x2="41.085" y1="11.068" y2="84.889" gradientUnits="userSpaceOnUse"><stop stop-color="#5E81FF"/><stop offset=".516" stop-color="#78F"/><stop offset="1" stop-color="#CD9DFC"/></linearGradient><clipPath id="b"><path fill="#fff" d="M26 26h20v20H26z"/></clipPath></defs></svg>