<svg xmlns="http://www.w3.org/2000/svg" width="72" height="72" fill="none"><circle cx="36" cy="36" r="36" fill="#4C5269"/><path fill="url(#a)" fill-rule="evenodd" d="M36 72c19.882 0 36-16.118 36-36 0-1.363-.076-2.708-.224-4.032C66.097 34.872 59.14 37.5 50.5 37.5c-25.737 0-40.458 4.233-48.622 10.01 4.8 14.238 18.264 24.49 34.122 24.49Z" clip-rule="evenodd"/><g clip-path="url(#b)"><path fill="#fff" d="M26.82 26.82V32.1H32.1V26.82H26.82Zm6.54 0V32.1h5.28V26.82h-5.28Zm6.541 0V32.1h5.279V26.82H39.9Zm-13.08 6.54v5.28h5.278v-5.28H26.82Zm6.54 0v5.28h5.278v-5.28h-5.278Zm6.54 0v5.28h5.279v-5.28H39.9Zm-13.08 6.541v5.279h5.278V39.9H26.82Zm6.54 0v5.279h5.278V39.9h-5.278Zm6.54 0v5.279h5.279V39.9H39.9Z"/></g><defs><linearGradient id="a" x1="41.892" x2="41.892" y1="31.21" y2="80.628" gradientUnits="userSpaceOnUse"><stop stop-color="#6683FF"/><stop offset="1" stop-color="#BB98FF"/></linearGradient><clipPath id="b"><path fill="#fff" d="M26 26h20v20H26z"/></clipPath></defs></svg>