<svg xmlns="http://www.w3.org/2000/svg" width="15" height="12" fill="none"><mask id="a" width="15" height="12" x="0" y="0" maskUnits="userSpaceOnUse" style="mask-type:luminance"><path fill="#fff" fill-rule="evenodd" d="M.5.167h14v11.666H.5V.167Z" clip-rule="evenodd"/></mask><g mask="url(#a)"><path fill="#1E222E" fill-rule="evenodd" d="M14.5 1.104c-.073.326-.15.652-.22.979l-1.355 6.344c-.195.91-.388 1.822-.587 2.732a1.363 1.363 0 0 1-.129.342c-.152.287-.402.394-.71.298a1.406 1.406 0 0 1-.402-.195c-1.006-.729-2.007-1.465-3.01-2.2l-.116-.082c-.033.029-.065.053-.094.08l-1.552 1.481a.714.714 0 0 1-.559.223l.056-.836.125-1.73c.007-.09.03-.184.019-.272-.046-.332.141-.525.37-.729 1.856-1.654 3.703-3.319 5.553-4.98.027-.025.062-.046.078-.076.03-.056.047-.118.07-.177-.063-.017-.132-.06-.187-.047a1.153 1.153 0 0 0-.323.136 6370.27 6370.27 0 0 0-7.229 4.524c-.067.042-.126.065-.212.038-1.022-.323-2.047-.638-3.069-.961a1.302 1.302 0 0 1-.352-.172c-.199-.14-.223-.344-.045-.51.13-.12.288-.228.453-.294.86-.342 1.728-.67 2.593-1C6.953 2.76 10.24 1.5 13.528.243c.104-.04.218-.067.33-.075.296-.023.515.137.605.425.011.034.025.067.037.1v.41Z" clip-rule="evenodd"/></g></svg>