<svg width="53" height="64" viewBox="0 0 53 64" fill="none" xmlns="http://www.w3.org/2000/svg">
<path fill-rule="evenodd" clip-rule="evenodd" d="M52 32C52 49.1208 38.1208 63 21 63C13.5647 63 6.74086 60.3824 1.39963 56.0185C1.09485 56.2016 0.786302 56.379 0.474122 56.5507C6.03008 61.2008 13.1881 64 21 64C38.6731 64 53 49.6731 53 32C53 14.3269 38.6731 0 21 0C13.1881 0 6.03008 2.79919 0.474121 7.44925C0.786301 7.62095 1.09485 7.79843 1.39963 7.98155C6.74086 3.6176 13.5647 1 21 1C38.1208 1 52 14.8792 52 32Z" fill="black"/>
</svg>
