<svg width="24" height="20" viewBox="0 0 24 20" fill="none" xmlns="http://www.w3.org/2000/svg">
<path d="M23.7888 9.57597L17.34 4.19997C17.2047 4.08725 17.0213 4.02393 16.83 4.02393C16.6387 4.02393 16.4553 4.08725 16.32 4.19997C16.1847 4.31268 16.1087 4.46556 16.1087 4.62497C16.1087 4.78437 16.1847 4.93725 16.32 5.04997L21.5424 9.39997H0.72C0.529044 9.39997 0.345909 9.46318 0.210883 9.5757C0.0758569 9.68822 0 9.84084 0 9.99997C0 10.1591 0.0758569 10.3117 0.210883 10.4242C0.345909 10.5368 0.529044 10.6 0.72 10.6H21.5424L16.32 14.95C16.1847 15.0627 16.1087 15.2156 16.1087 15.375C16.1087 15.5344 16.1847 15.6872 16.32 15.8C16.4553 15.9127 16.6387 15.976 16.83 15.976C17.0213 15.976 17.2047 15.9127 17.34 15.8L23.7888 10.424C23.9236 10.3115 23.9994 10.159 23.9994 9.99997C23.9994 9.84097 23.9236 9.68847 23.7888 9.57597Z" fill="black"/>
</svg>
