<svg width="24" height="16" viewBox="0 0 24 16" fill="none" xmlns="http://www.w3.org/2000/svg">
  <path
    d="M16.473 13.6914C16.3955 13.7732 16.3529 13.8833 16.3531 13.9969L16.3531 13.9969C16.3535 14.2307 16.5342 14.4298 16.7686 14.4295M16.473 13.6914L16.5456 13.7601L16.4729 13.6914L16.473 13.6914ZM16.473 13.6914L21.8534 7.99614L16.4729 2.30082L16.4718 2.29956L16.4718 2.29955C16.3153 2.12809 16.3196 1.85681 16.4819 1.69088L16.4819 1.69087C16.6431 1.52603 16.9011 1.52602 17.0623 1.69088L17.0635 1.69212L17.0635 1.69213L22.7312 7.69213L22.7312 7.69214C22.8905 7.86084 22.8905 8.13207 22.7312 8.30079L22.7312 8.30081L17.0635 14.3008L17.0635 14.3009C16.9862 14.3825 16.8803 14.4295 16.7686 14.4295M16.7686 14.4295V14.3295L16.7688 14.4295C16.7687 14.4295 16.7686 14.4295 16.7686 14.4295Z"
    fill="black" stroke="black" stroke-width="0.2" />
  <path
    d="M21.6418 8.49998H1.3582C1.16038 8.49998 1 8.27615 1 8C1 7.72385 1.16038 7.49998 1.3582 7.49998H21.6418C21.8396 7.49998 22 7.72385 22 8C22 8.27615 21.8396 8.49998 21.6418 8.49998Z"
    fill="black" />
  <path
    d="M21.6418 8.49998H1.3582C1.16038 8.49998 1 8.27615 1 8C1 7.72385 1.16038 7.49998 1.3582 7.49998H21.6418C21.8396 7.49998 22 7.72385 22 8C22 8.27615 21.8396 8.49998 21.6418 8.49998Z"
    stroke="black" />
</svg>