<svg xmlns="http://www.w3.org/2000/svg">
	<symbol id="icon-menu" viewBox="0 0 28 20" fill="none">
		<path d="M0.763916 0.818115V2.31812M0.763916 3.81812V2.31812M0.763916 2.31812H26.7639M26.7639 2.31812V0.818115M26.7639 2.31812V3.81812" stroke="#FFFFFF"/>
		<path d="M0.763916 8.81812V10.3181M0.763916 11.8181V10.3181M0.763916 10.3181H26.7639M26.7639 10.3181V8.81812M26.7639 10.3181V11.8181" stroke="#FFFFFF"/>
		<path d="M0.763916 16.8181V18.3181M0.763916 19.8181V18.3181M0.763916 18.3181H26.7639M26.7639 18.3181V16.8181M26.7639 18.3181V19.8181" stroke="#FFFFFF"/>
	</symbol>

	<symbol id="icon-tg" viewBox="0 0 20 18" fill="none">
		<path d="M15.6561 17.8627C15.7892 17.9535 15.9444 18 16.1006 18C16.2032 18 16.3063 17.9799 16.404 17.9391C16.6501 17.8364 16.8283 17.616 16.8782 17.3526L19.984 0.956258C19.9901 0.926201 19.9945 0.895932 19.997 0.865556C20.0007 0.822967 20.0009 0.780377 19.9979 0.738319C19.9858 0.571041 19.9214 0.406844 19.8042 0.272172C19.7911 0.256772 19.7771 0.242009 19.7624 0.227564C19.621 0.088007 19.4398 0.0123868 19.2553 0.00134116C19.2235 -0.000464376 19.1915 -0.000464376 19.1596 0.00144737C19.0705 0.00697019 18.9822 0.0275746 18.8987 0.0632605L0.498982 7.42985C0.195825 7.55125 -0.00219826 7.84725 1.84203e-05 8.17543C0.0022351 8.50362 0.20427 8.79686 0.508905 8.91411L5.34791 10.7758L6.7022 15.9399C6.7687 16.1934 6.95501 16.3979 7.20032 16.4864C7.44595 16.5748 7.7186 16.5362 7.93013 16.3832L10.6273 14.4305L15.6561 17.8627ZM15.5483 15.864L11.0688 12.8068C11.062 12.8019 11.055 12.797 11.0477 12.7924L9.2368 11.5564L17.9649 3.10582L15.5483 15.864ZM7.33983 12.1269L7.9396 14.4136L9.23181 13.478L7.53975 12.3231C7.46111 12.2696 7.39376 12.2029 7.33983 12.1269ZM6.2924 9.43337L2.96971 8.15516L15.7516 3.03784L7.43494 11.0899C7.2993 11.2213 7.21581 11.3957 7.19649 11.581L6.77511 9.97418C6.71009 9.72629 6.53043 9.52492 6.2924 9.43337Z" fill="currentColor"/>
	</symbol>

	<symbol id="icon-vk" viewBox="0 0 24 14" fill="none">
		<path d="M7.92898 0.972652C8.10115 0.584837 8.37473 0.344025 8.73062 0.254702C9.16196 0.146473 9.60749 0.0718104 10.0505 0.0435314C11.0907 -0.0228801 12.1332 -0.0395431 13.1615 0.187249C13.7311 0.312863 14.0157 0.623691 14.0255 1.2266C14.0416 2.20659 14.0074 3.18738 14.004 4.16785C14.002 4.75739 14.0181 5.347 14.0263 5.93653C14.0265 5.95656 14.028 5.97675 14.0314 5.99637C14.0915 6.33805 14.1669 6.70551 14.5144 6.83096C14.8454 6.95041 15.0802 6.67058 15.2833 6.44724C16.2368 5.39923 16.9288 4.1717 17.5368 2.89242C17.7881 2.36369 18.0015 1.81565 18.2251 1.27331C18.4264 0.784953 18.6494 0.622569 19.158 0.618804C20.4242 0.609431 21.6902 0.600859 22.9563 0.591967C23.9683 0.584837 24.216 0.947898 23.8219 1.90706C23.3671 3.01378 22.6551 3.9578 21.9638 4.9124C21.4815 5.5786 20.977 6.22813 20.5052 6.90194C19.8565 7.82866 19.895 8.16096 20.6751 8.9748C21.5014 9.83663 22.3396 10.6875 23.1392 11.575C23.4252 11.8927 23.6383 12.2896 23.8404 12.6749C24.1345 13.2355 23.9477 13.6705 23.3542 13.8596C23.1713 13.9179 22.9729 13.9453 22.7809 13.9493C21.6806 13.9722 20.5802 13.9899 19.4797 13.9973C18.809 14.0018 18.2498 13.6901 17.7814 13.237C17.2862 12.7579 16.8425 12.2228 16.369 11.7193C16.1327 11.4681 15.8971 11.2107 15.6312 10.9953C15.1054 10.5696 14.6179 10.6683 14.3669 11.3086C14.1852 11.7717 14.082 12.2868 14.0459 12.7866C13.9796 13.7033 13.722 13.9885 12.8262 13.9972C11.7543 14.0075 10.6879 14.0069 9.64552 13.6772C7.81487 13.0981 6.36419 11.9683 5.16323 10.4669C3.42128 8.28929 2.10513 5.84176 0.893496 3.32918C0.617421 2.75671 0.356467 2.17615 0.103852 1.59223C-0.142683 1.02208 0.0528772 0.686978 0.65686 0.671036C1.74713 0.642196 2.83803 0.635868 3.92861 0.624171C4.5262 0.617763 4.9174 0.877641 5.15505 1.47687C5.79925 3.10191 6.60924 4.63938 7.64168 6.043C7.82726 6.29535 8.05119 6.53023 8.29554 6.72185C8.65634 7.00472 9.00506 6.90274 9.15292 6.4631C9.2721 6.10861 9.3703 5.7276 9.37779 5.35629C9.39727 4.38792 9.42011 3.41273 9.33188 2.45101C9.24404 1.49273 8.94045 1.23597 7.92898 0.972652Z" fill="currentColor"/>
	</symbol>

	<symbol id="icon-youtube" viewBox="0 0 20 14" fill="none">
		<path d="M17.2928 0.258054C18.9241 0.31716 19.7179 1.97042 19.8292 3.28144C20.0567 6.03521 20.0567 7.77342 19.8305 10.5284C19.7217 11.8394 18.7154 13.5149 17.2953 13.7574C12.7688 14.1021 7.39852 14.059 2.70577 13.7574C1.24069 13.5752 0.279376 11.8394 0.170622 10.5284C-0.0568742 7.77466 -0.0568742 6.20754 0.170622 3.45376C0.278117 2.14274 1.26441 0.416858 2.70325 0.258054C7.34101 -0.126018 12.7376 -0.0435564 17.2928 0.258054ZM7.49854 3.42425V10.4842L13.7489 6.9548L7.49854 3.42425Z" fill="currentColor"/>
	</symbol>

	<symbol id="logo-sminex" viewBox="0 0 135 32" fill="none">
		<path d="M8.89783 31.6086C6.34392 31.6086 2.554 30.8828 0.282558 29.5384C0.71211 28.5508 1.51815 27.8368 2.66599 28.4499C4.71346 29.5439 6.77932 30.0324 9.06832 30.0324C12.3581 30.0324 14.7473 28.1582 14.5823 24.7731C14.2472 17.6813 -0.0412777 16.6047 8.96498e-05 8.08488C0.0356071 1.79068 5.57298 0 10.881 0C13.4407 0 15.9537 0.511744 18.4253 1.53439C18.0016 2.55787 17.2837 3.40867 16.0184 2.79601C14.2589 1.95113 12.5106 1.55254 10.6511 1.55254C7.42072 1.55254 5.58468 3.33774 5.57298 6.00286C5.53747 12.7847 20.0553 13.7964 20.2964 22.6434C20.4732 29.0267 15.2178 31.6086 8.89783 31.6086Z" fill="#212E4A"/>
		<path d="M100.329 19.0665L109.1 18.4175C109.124 15.5056 109.011 10.7053 105.159 10.6995C101.052 10.6995 100.448 15.9733 100.329 19.0665ZM105.212 32.0002C102.261 32.0002 99.191 31.1462 97.265 28.7725C95.4632 26.5504 94.7878 23.7908 94.7461 21.0018C94.6927 17.5169 95.5877 14.7217 97.4371 12.6232C99.2798 10.5238 101.822 9.47729 105.058 9.47729C106.61 9.47729 107.973 9.6993 109.153 10.1495C110.327 10.5998 111.275 11.2198 111.986 12.0206C112.703 12.8215 113.236 13.7394 113.598 14.7744C113.959 15.8039 114.149 16.9438 114.166 18.195C114.179 18.8444 114.125 19.4523 114.006 20.008C113.995 20.0661 113.948 20.1071 113.888 20.1071H100.364C100.448 23.5862 100.981 26.1059 101.976 27.6729C102.972 29.2402 104.631 30.0237 106.955 30.0237C109.384 30.0237 111.275 29.3336 113.1 27.9011C113.414 28.1646 113.74 28.9012 113.106 29.4801C111.446 30.9881 108.122 32.0002 105.212 32.0002Z" fill="#212E4A"/>
		<path d="M113.684 31.6078L122.174 21.6491L114.008 10.1963H118.433C120.61 10.1963 120.286 11.0535 124.069 16.3663L125.37 18.1967L130.509 10.4857C130.665 10.2538 130.916 10.1963 131.157 10.1963H133.8L126.09 19.2394L135 31.6078H130.85C128.104 31.6424 128.596 30.5245 124.945 25.49L122.918 22.6918L117.066 31.2945C116.916 31.5149 116.676 31.6078 116.365 31.6078H113.684Z" fill="#212E4A"/>
		<path d="M55.627 29.0841V16.2341C55.627 11.7967 54.0213 9.17676 49.9364 9.17676C46.4795 9.17676 44.1541 11.0125 42.3086 13.0796C41.6291 10.614 40.029 9.17676 36.904 9.17676C33.9843 9.17676 31.5903 10.6267 29.6592 12.8005L29.4361 13.5792L29.6989 13.9768C31.2016 12.6462 33.0183 12.0935 34.493 12.0935C37.3324 12.0935 37.6351 15.189 37.6351 17.5171V29.0841L37.4407 31.6087H42.8514L42.6514 29.0841V13.9768C43.9545 12.7887 45.7712 12.0935 47.4682 12.0935C50.4277 12.0935 50.6107 15.4681 50.6107 17.5171V28.638C50.6107 30.7355 51.1815 31.6087 52.4959 31.6087H55.827L55.627 29.0841Z" fill="#212E4A"/>
		<path d="M91.1512 29.1018V16.2341C91.1512 11.8443 89.5372 9.17676 85.4099 9.17676C82.4811 9.17676 79.7316 10.6027 77.7541 12.7647L77.1429 13.8938L77.7884 13.9768C79.3509 12.747 80.8093 12.0935 82.9195 12.0935C85.5712 12.0935 86.0898 14.6539 86.0898 17.5175V28.6384C86.0898 30.5036 86.5106 31.6087 87.9924 31.6087H91.3534L91.1512 29.1018Z" fill="#212E4A"/>
		<path d="M66.9927 3.05913C66.9927 4.74681 65.6282 6.1178 63.9478 6.1178C62.2674 6.1178 60.9025 4.74681 60.9025 3.05913C60.9025 1.37099 62.2674 0 63.9478 0C65.6282 0 66.9927 1.37099 66.9927 3.05913Z" fill="#212E4A"/>
		<path d="M60.9025 10.1963L61.1276 12.641V29.1466L60.9025 31.6086H66.9927L66.7676 29.1466V13.0871C66.7676 11.4363 66.4333 10.1963 64.652 10.1963H60.9025Z" fill="#212E4A"/>
		<path d="M72.0677 10.1963L72.2929 12.641L72.2865 29.1466L72.0677 31.6086H78.158L77.9329 29.1466V13.6027L77.894 13.2323C77.894 11.5753 77.5917 10.1963 75.8168 10.1963H72.0677Z" fill="#212E4A"/>
		<path d="M23.346 10.1963L23.5709 12.641V29.1466L23.346 31.6086H29.4362L29.2113 29.1466V13.6027L29.1661 13.2323C29.1661 11.5753 28.871 10.1963 27.0915 10.1963H23.346Z" fill="#212E4A"/>
	</symbol>

	<symbol id="logo" viewBox="0 0 180 42" fill="none">
		<path d="M139.463 31.1695C137.569 30.5322 135.507 30.2227 133.158 30.2227C126.756 30.2227 123.509 32.5653 120.369 34.8307C117.154 37.1506 114.118 39.3413 107.883 39.3413C105.778 39.3413 104.038 39.0909 102.532 38.6709C110.06 38.395 111.343 33.5816 111.513 31.5615C111.589 30.6701 110.425 30.5405 110.307 31.8311C110.223 32.7463 110.004 33.2539 109.818 33.5282C109.718 33.676 109.491 33.634 109.451 33.4603C109.348 33.0268 109.125 32.3823 108.712 32.5119C107.988 32.739 108.385 34.3563 108.067 35.0692C108.026 35.1641 107.913 35.2041 107.822 35.1538C107.605 35.033 107.173 34.8976 106.869 35.482C106.729 35.7527 106.613 36.2525 106.435 36.7622C106.267 37.2392 105.883 37.6115 105.397 37.7469C104.173 38.0875 102.646 38.2752 100.804 38.0761C100.801 38.0756 100.798 38.0761 100.794 38.0761C98.7198 37.2278 97.0833 36.0472 95.3981 34.8312C92.2584 32.5653 89.0128 30.2227 82.6109 30.2227C76.209 30.2227 72.9633 32.5653 69.8236 34.8307C66.6095 37.1506 63.5733 39.3413 57.339 39.3413C55.0279 39.3413 53.1571 39.0401 51.5531 38.5433C59.1809 38.311 60.475 33.4598 60.6472 31.4292C60.7222 30.5384 59.559 30.4088 59.44 31.6994C59.3562 32.6146 59.1379 33.1222 58.9522 33.3965C58.8524 33.5443 58.6243 33.5028 58.584 33.3286C58.4821 32.8951 58.2586 32.2506 57.8459 32.3802C57.1217 32.6073 57.5184 34.2246 57.2009 34.9381C57.159 35.0324 57.0462 35.0724 56.9557 35.0221C56.7384 34.9012 56.306 34.7659 56.0029 35.3503C55.8628 35.621 55.7469 36.1208 55.5684 36.6305C55.4009 37.1075 55.0171 37.4798 54.5303 37.6152C53.306 37.9553 51.7802 38.143 49.9378 37.9444C49.9378 37.9439 49.9372 37.9444 49.9372 37.9439C48.0095 37.1081 46.4541 35.9855 44.8543 34.8312L44.2367 34.3869C44.1209 34.3034 43.959 34.3304 43.8757 34.447C43.7929 34.5637 43.8198 34.7255 43.9362 34.809L44.5517 35.2518C47.6909 37.5172 50.9371 39.8598 57.339 39.8598C63.7403 39.8598 66.9865 37.5172 70.1257 35.2518C71.7493 34.0799 73.3279 32.9412 75.296 32.1007C76.8581 32.0017 78.1776 32.1795 79.2581 32.4803C79.7443 32.6156 80.1286 32.9874 80.2962 33.465C80.4752 33.9747 80.5905 34.4745 80.7307 34.7452C81.0343 35.3295 81.4667 35.1942 81.6834 35.0734C81.774 35.0231 81.8867 35.063 81.9291 35.1574C82.2462 35.8709 81.8495 37.4881 82.5736 37.7152C82.9864 37.8449 83.2098 37.1998 83.3117 36.7669C83.3526 36.5927 83.5802 36.5512 83.68 36.699C83.8657 36.9732 84.084 37.4809 84.1678 38.3961C84.2867 39.6867 85.45 39.557 85.375 38.6657C85.2064 36.6756 83.9588 31.9737 76.7231 31.5713C78.3498 31.0554 80.2512 30.7412 82.6109 30.7412C88.8462 30.7412 91.8819 32.9319 95.096 35.2518C98.2357 37.5172 101.481 39.8598 107.883 39.8598C114.285 39.8598 117.531 37.5172 120.672 35.2518C123.886 32.9319 126.922 30.7412 133.158 30.7412C135.45 30.7412 137.459 31.0419 139.298 31.661C139.434 31.7067 139.581 31.6335 139.625 31.4977C139.671 31.3624 139.598 31.2151 139.463 31.1695Z" fill="#837875"/>
		<path d="M51.9961 35.6648C51.9961 36.2056 52.4332 36.6437 52.9726 36.6437C53.5121 36.6437 53.9497 36.2056 53.9497 35.6648C53.9497 35.124 53.5121 34.6853 52.9726 34.6853C52.4332 34.6853 51.9961 35.124 51.9961 35.6648Z" fill="#837875"/>
		<path d="M88.7341 38.2524C88.7341 38.2524 89.7717 39.2501 90.4715 40.2544C90.7472 40.6506 91.1889 40.3696 91.1377 40.0657C91.1238 39.9801 91.1998 39.9091 91.2846 39.9278C91.4936 39.9744 91.7724 39.9905 91.8344 39.7577C92.1262 38.6631 88.7341 38.2524 88.7341 38.2524Z" fill="#837875"/>
		<path d="M133.511 31.6287C132.906 31.2859 131.996 32.6045 129.711 32.4396C130.201 32.7995 132.561 34.3343 135.027 32.5013C135.45 32.1866 135.029 31.5141 134.412 31.9662C133.975 32.2867 133.806 32.4624 133.613 32.4873C133.508 32.5003 133.438 32.3826 133.499 32.2965C133.651 32.0818 133.787 31.7852 133.511 31.6287Z" fill="#837875"/>
		<path d="M133.554 33.7879C134.572 34.4101 134.649 35.2496 134.959 35.3792C135.264 35.5073 135.333 35.2568 135.349 35.0769C135.359 34.9546 135.482 35.0007 135.528 35.0396C136.044 35.4736 135.938 35.8583 136.349 36.0154C136.672 36.1388 137.329 35.6675 136.598 34.84C135.456 33.5478 133.554 33.7879 133.554 33.7879Z" fill="#837875"/>
		<path d="M137.693 33.9031C137.405 33.8933 137.165 34.1194 137.155 34.4077C137.145 34.696 137.371 34.9376 137.658 34.9474C137.946 34.9573 138.187 34.7312 138.197 34.4429C138.206 34.1546 137.981 33.913 137.693 33.9031Z" fill="#837875"/>
		<path d="M137.593 33.2035C137.784 32.9173 137.126 32.4024 136.383 32.5999C136.002 32.7016 135.253 33.1107 134.877 33.3124C135.634 33.4244 137.414 33.471 137.593 33.2035Z" fill="#837875"/>
		<path d="M132.234 33.8989C132.234 33.8989 132.684 34.6679 133.011 35.1963C133.316 35.6883 133.901 35.47 133.857 35.1143C133.758 34.32 132.234 33.8989 132.234 33.8989Z" fill="#837875"/>
		<path d="M127.44 32.6339C126.926 32.6433 126.518 33.0679 126.527 33.5823C126.536 34.0967 126.96 34.5063 127.473 34.497C127.986 34.4876 128.395 34.063 128.386 33.5486C128.376 33.0342 127.953 32.6246 127.44 32.6339Z" fill="#837875"/>
		<path d="M125.066 35.1237C125.43 35.1169 125.72 34.8157 125.714 34.4501C125.707 34.0846 125.406 33.7937 125.042 33.8004C124.677 33.8066 124.387 34.1084 124.393 34.474C124.4 34.8395 124.701 35.1304 125.066 35.1237Z" fill="#837875"/>
		<path d="M93.9917 36.4047C93.5463 36.413 93.191 36.7816 93.1992 37.2286C93.207 37.6756 93.5748 38.0313 94.0211 38.0235C94.4665 38.0152 94.8213 37.6465 94.8135 37.1996C94.8053 36.7526 94.4375 36.3969 93.9917 36.4047Z" fill="#837875"/>
		<path d="M61.4559 36.5158C61.76 36.4308 62.1831 36.2778 62.329 36.0554C62.5488 35.7194 62.3988 35.0889 61.009 35.4451C59.6331 35.7977 57.6956 37.4694 57.6956 37.4694C57.6956 37.4694 60.799 37.697 61.2945 37.2003C61.4404 37.0541 61.4156 36.9146 61.3462 36.8062C61.2759 36.6963 61.3302 36.5511 61.4559 36.5158Z" fill="#837875"/>
		<path d="M66.0639 33.3818C66.8666 33.2076 66.8392 32.3199 64.974 32.323C62.0594 32.3287 60.2335 35.0183 60.2335 35.0183C62.2213 34.2934 63.2232 35.2495 63.8211 35.0131C64.343 34.8062 64.0875 34.3955 63.8749 34.1767C63.804 34.1041 63.8604 33.9766 63.9608 33.9906C64.7232 34.0995 65.8254 35.0198 66.3209 34.4189C66.5651 34.1228 66.3085 33.8532 66.0116 33.6639C65.8932 33.5887 65.9273 33.4114 66.0639 33.3818Z" fill="#837875"/>
		<path d="M64.1662 30.6168C64.1445 30.0983 62.8881 30.06 62.1619 30.9627C61.6234 31.6321 60.9122 33.3214 60.9122 33.3214C60.9122 33.3214 64.1915 31.2323 64.1662 30.6168Z" fill="#837875"/>
		<path d="M67.1832 31.0964C67.3725 30.9834 67.6136 30.7848 67.4744 30.5794C66.7736 29.5466 64.1124 31.7663 64.1124 31.7663C64.1124 31.7663 65.5591 31.5553 66.8051 31.9167C67.3193 32.0655 67.4729 31.5496 67.1708 31.3033C67.101 31.2473 67.1067 31.142 67.1832 31.0964Z" fill="#837875"/>
		<path d="M65.4295 39.2432C66.69 39.5185 67.0428 40.1081 67.4804 40.3513C67.9004 40.5851 68.1093 40.3274 68.1931 40.1662C68.2288 40.0977 68.3111 40.077 68.3762 40.1185C68.8567 40.4244 69.2654 41.5714 69.7981 41.4168C70.1023 41.3287 69.9786 40.8444 69.8664 40.5395C69.8214 40.4177 69.9398 40.2994 70.0598 40.3482C70.2828 40.4394 70.6221 40.6598 71.0436 41.1871C71.6354 41.9255 72.2752 41.3894 71.8878 40.8636C69.494 37.6151 65.4295 39.2432 65.4295 39.2432Z" fill="#837875"/>
		<path d="M71.1092 37.0771C70.9277 37.0092 70.6132 37.1015 70.3975 37.1834C70.3075 37.2171 70.2129 37.1544 70.2061 37.0585C70.2004 36.9657 70.1544 36.8728 70.006 36.85C69.5001 36.7717 67.728 38.3278 67.728 38.3278C67.728 38.3278 69.631 38.3962 70.5941 38.0084C71.567 37.6169 71.3834 37.1798 71.1092 37.0771Z" fill="#837875"/>
		<path d="M72.6034 37.2534C72.1917 37.3084 71.9672 38.2308 70.4144 38.7011C70.4144 38.7011 72.6096 39.6013 74.3879 38.4263C75.5258 37.6744 75.186 37.1222 74.6263 37.3405C74.5312 37.3779 74.4391 37.2835 74.481 37.1896C74.586 36.9542 74.6336 36.6867 74.3656 36.6047C73.822 36.4388 73.5205 37.4447 73.0999 37.8191C73.0446 37.8689 72.9587 37.8139 72.9722 37.7403C73.0141 37.521 73.0094 37.1995 72.6034 37.2534Z" fill="#837875"/>
		<path d="M71.7245 39.616C72.1057 39.8887 72.8666 40.4404 73.2679 40.6048C74.0505 40.9252 74.8409 40.456 74.6717 40.1163C74.5145 39.7995 72.5247 39.6403 71.7245 39.616Z" fill="#837875"/>
		<path d="M75.6073 38.6641C75.1346 38.7601 74.0194 39.2677 74.0194 39.2677C74.0194 39.2677 75.8996 39.6783 76.2027 39.2314C76.3418 39.0261 76.2208 38.5397 75.6073 38.6641Z" fill="#837875"/>
		<path d="M77.4129 33.0985C76.8998 33.1079 76.4912 33.532 76.5005 34.0469C76.5098 34.5613 76.9329 34.9709 77.4465 34.9616C77.9596 34.9522 78.3682 34.5276 78.3589 34.0132C78.3496 33.4988 77.926 33.0892 77.4129 33.0985Z" fill="#837875"/>
		<path d="M75.0388 35.588C75.4035 35.5813 75.6937 35.28 75.6869 34.9145C75.6802 34.5489 75.3797 34.258 75.015 34.2648C74.6504 34.271 74.3602 34.5728 74.3669 34.9383C74.3731 35.3039 74.6742 35.5948 75.0388 35.588Z" fill="#837875"/>
		<path d="M103.839 34.8171C103.299 34.8171 102.862 35.2558 102.862 35.7966C102.862 36.3374 103.299 36.7756 103.839 36.7756C104.378 36.7756 104.816 36.3374 104.816 35.7966C104.816 35.2558 104.378 34.8171 103.839 34.8171Z" fill="#837875"/>
		<path d="M112.322 36.6476C112.627 36.5626 113.049 36.4096 113.195 36.1867C113.415 35.8512 113.265 35.2202 111.875 35.5769C110.5 35.9295 108.562 37.6007 108.562 37.6007C108.562 37.6007 111.665 37.8288 112.161 37.3316C112.307 37.1859 112.282 37.0459 112.213 36.9375C112.142 36.8276 112.197 36.6824 112.322 36.6476Z" fill="#837875"/>
		<path d="M116.93 33.5136C117.733 33.3394 117.705 32.4517 115.841 32.4553C112.926 32.4605 111.1 35.1501 111.1 35.1501C113.087 34.4252 114.09 35.3813 114.688 35.1449C115.21 34.9385 114.954 34.5273 114.741 34.3085C114.671 34.2359 114.727 34.1084 114.827 34.1229C115.589 34.2313 116.692 35.1516 117.187 34.5507C117.432 34.2546 117.175 33.985 116.878 33.7957C116.76 33.721 116.794 33.5437 116.93 33.5136Z" fill="#837875"/>
		<path d="M115.032 30.7484C115.011 30.2299 113.754 30.1915 113.029 31.0943C112.49 31.7637 111.778 33.453 111.778 33.453C111.778 33.453 115.058 31.3639 115.032 30.7484Z" fill="#837875"/>
		<path d="M118.049 31.228C118.239 31.115 118.48 30.9164 118.341 30.711C117.64 29.6782 114.979 31.8979 114.979 31.8979C114.979 31.8979 116.425 31.6869 117.672 32.0483C118.185 32.1976 118.34 31.6812 118.037 31.4349C117.968 31.3789 117.973 31.2736 118.049 31.228Z" fill="#837875"/>
		<path d="M86.0224 32.8954C85.5268 32.3986 82.4234 32.6263 82.4234 32.6263C82.4234 32.6263 84.361 34.298 85.7368 34.6506C87.1267 35.0073 87.2767 34.3763 87.0568 34.0403C86.911 33.8178 86.4879 33.6649 86.1837 33.5798C86.0581 33.5446 86.0037 33.3999 86.0741 33.2895C86.1434 33.1816 86.1682 33.0416 86.0224 32.8954Z" fill="#837875"/>
		<path d="M89.7019 37.7721C91.5671 37.7758 91.5945 36.8881 90.7917 36.7138C90.6552 36.6838 90.621 36.5064 90.7395 36.4318C91.0364 36.2425 91.2929 35.9729 91.0488 35.6768C90.5533 35.0758 89.451 35.9962 88.6886 36.1046C88.5883 36.1191 88.5319 35.9915 88.6028 35.9189C88.8154 35.7001 89.0709 35.2889 88.549 35.0826C87.951 34.8461 86.9492 35.8023 84.9609 35.0774C84.9609 35.0774 86.7873 37.7669 89.7019 37.7721Z" fill="#837875"/>
		<path d="M85.64 36.7739C85.64 36.7739 86.3512 38.4633 86.8897 39.1332C87.6159 40.0354 88.8723 39.997 88.894 39.4785C88.9193 38.863 85.64 36.7739 85.64 36.7739Z" fill="#837875"/>
		<path d="M117.018 38.7896C118.279 39.0649 118.631 39.6545 119.069 39.8982C119.489 40.1315 119.698 39.8738 119.782 39.7126C119.817 39.6441 119.9 39.6234 119.965 39.6649C120.446 39.9713 120.854 41.1178 121.387 40.9632C121.691 40.8751 121.568 40.3913 121.455 40.0859C121.41 39.9646 121.529 39.8458 121.648 39.8946C121.872 39.9858 122.211 40.2062 122.633 40.7335C123.224 41.4719 123.864 40.9358 123.477 40.41C121.083 37.1615 117.018 38.7896 117.018 38.7896Z" fill="#837875"/>
		<path d="M122.698 36.6233C122.516 36.5554 122.202 36.6477 121.986 36.7296C121.896 36.7633 121.802 36.7011 121.795 36.6051C121.789 36.5118 121.743 36.419 121.595 36.3962C121.089 36.3179 119.317 37.8739 119.317 37.8739C119.317 37.8739 121.22 37.9424 122.183 37.5545C123.156 37.1631 122.973 36.7259 122.698 36.6233Z" fill="#837875"/>
		<path d="M124.192 36.7996C123.78 36.8545 123.556 37.777 122.004 38.2473C122.004 38.2473 124.199 39.1474 125.977 37.9724C127.115 37.2206 126.775 36.6689 126.215 36.8867C126.12 36.924 126.028 36.8296 126.07 36.7358C126.175 36.5004 126.223 36.2328 125.954 36.1509C125.411 35.985 125.11 36.9909 124.689 37.3658C124.634 37.415 124.548 37.3601 124.561 37.2864C124.603 37.0671 124.598 36.7456 124.192 36.7996Z" fill="#837875"/>
		<path d="M123.313 39.1624C123.695 39.4351 124.455 39.9868 124.857 40.1512C125.639 40.4716 126.43 40.0024 126.261 39.6627C126.103 39.3459 124.113 39.1867 123.313 39.1624Z" fill="#837875"/>
		<path d="M127.196 38.2103C126.724 38.3062 125.609 38.8138 125.609 38.8138C125.609 38.8138 127.488 39.2245 127.791 38.7775C127.931 38.5722 127.81 38.0858 127.196 38.2103Z" fill="#837875"/>
		<path d="M98.4751 30.1581C98.8801 29.6458 98.2589 29.0884 97.6428 29.8061C97.2032 30.3183 96.8566 30.5273 96.6306 30.6108C96.509 30.6554 96.3952 30.533 96.4433 30.4132C96.5664 30.112 96.7066 29.6323 96.4056 29.5338C95.878 29.3617 95.4311 30.4931 94.9402 30.7829C94.874 30.8223 94.7923 30.7985 94.7587 30.729C94.6806 30.5652 94.4804 30.3002 94.0526 30.5195C93.6073 30.7482 93.2349 31.3248 91.9656 31.5576C91.9656 31.5576 95.9726 33.3232 98.4751 30.1581Z" fill="#837875"/>
		<path d="M94.2321 32.551C94.2321 32.551 95.9498 34.1662 96.4588 34.1055C96.6077 34.0874 96.6564 33.9967 96.6657 33.9033C96.6755 33.8079 96.7722 33.7488 96.8607 33.7856C97.0738 33.8748 97.3852 33.9775 97.5688 33.9158C97.8465 33.823 98.0446 33.3926 97.0857 32.9679C96.1365 32.5474 94.2321 32.551 94.2321 32.551Z" fill="#837875"/>
		<path d="M101.093 33.7723C101.644 34.0098 102.003 33.4695 100.891 32.6793C99.154 31.4442 96.9293 32.2696 96.9293 32.2696C98.465 32.7923 98.6579 33.7215 99.0681 33.791C99.4716 33.8589 99.4871 33.5369 99.4535 33.3165C99.4421 33.2429 99.53 33.1905 99.5838 33.2419C99.9914 33.6307 100.259 34.646 100.807 34.4987C101.078 34.4267 101.039 34.157 100.942 33.918C100.904 33.8236 100.998 33.7319 101.093 33.7723Z" fill="#837875"/>
		<path d="M101.233 30.9997C101.413 30.6663 100.639 30.17 99.8458 30.4635C99.4387 30.6139 98.6603 31.1402 98.2692 31.3994C99.0699 31.4026 101.064 31.3113 101.233 30.9997Z" fill="#837875"/>
		<path d="M102.732 31.9364C102.445 31.4796 100.552 31.826 100.552 31.826C100.552 31.826 101.649 32.3709 102.118 32.4829C102.727 32.6281 102.865 32.1459 102.732 31.9364Z" fill="#837875"/>
		<path d="M55.1293 20.3637C50.229 20.3637 46.9367 16.5184 46.9367 10.7955C46.9367 4.20671 50.7147 1.20604 54.2247 1.20604C56.8911 1.20604 58.5167 2.80619 58.5328 2.82227L58.7117 3.00219L59.1705 1.1013L59.0681 1.05101C58.9812 1.00797 56.9076 0.000488281 54.5231 0.000488281C53.0236 0.000488281 51.6219 0.276859 50.3562 0.822859C49.1361 1.34915 48.0648 2.11397 47.1726 3.09708C46.2943 4.06412 45.6131 5.21678 45.1461 6.52241C44.6748 7.83945 44.4364 9.2773 44.4364 10.7955C44.4364 12.2769 44.663 13.6837 45.1098 14.9758C45.5635 16.2861 46.2307 17.4419 47.094 18.4115C48.9457 20.4913 51.5847 21.5906 54.7264 21.5906C57.0121 21.5906 58.7061 20.8175 58.7769 20.7848L58.8328 20.7589L59.3009 19.3511L58.9698 19.5533C58.9564 19.5611 57.6048 20.3637 55.1293 20.3637Z" fill="#837875"/>
		<path d="M14.9886 1.63302V19.8921H5.00166C5.37873 19.1491 6.56425 16.6115 7.8227 11.8183C8.69477 8.41264 9.28184 4.8945 9.52287 1.63302H14.9886ZM17.3063 19.8921V0.427979H5.60839V1.21924L8.32442 1.61279C8.21839 3.47531 7.72494 7.55605 6.49959 11.7089C5.12011 16.2983 3.67804 19.0558 3.20787 19.8921H-6.10352e-05V24.9446H0.804767L1.98511 21.0977H18.5343L19.6825 24.9446H20.5205V19.8921H17.3063Z" fill="#837875"/>
		<path d="M61.3931 0.427734V2.04033L67.33 1.51455V21.0974H69.6472V1.51455L75.6167 2.04033V0.427734H61.3931Z" fill="#837875"/>
		<path d="M89.4405 0.427734V11.7169C87.8075 15.1734 83.4255 18.3928 80.8263 19.5854V0.427734H78.5091V21.0974H80.3841L80.4094 21.0871C82.7732 20.1335 87.0384 17.5051 89.4405 14.0575V21.0974H91.3181V0.427734H89.4405Z" fill="#837875"/>
		<path d="M163.151 0.427734H163.123L163.097 0.438623C161.609 1.04685 159.823 2.11136 158.197 3.3584C156.966 4.30366 155.309 5.75448 154.156 7.45366V0.427734H151.839V21.0974H154.156V9.80825C155.753 6.42336 159.563 3.55544 162.681 1.95218V21.0974H164.559V0.427734H163.151Z" fill="#837875"/>
		<path d="M116.256 17.6615C115.855 16.6172 115.255 15.6003 114.423 14.5535C113.653 13.5569 112.647 12.6635 111.436 11.9002C110.41 11.2541 109.28 10.7263 108.071 10.3281C110.377 9.48546 112.36 8.21976 113.825 6.65124C115.44 4.9702 116.313 2.9262 116.421 0.576793L116.429 0.427979H114.763L114.76 0.56746C114.741 1.48679 114.512 3.84035 112.794 5.83613C111.254 7.61516 109.504 8.80413 107.139 9.67265V0.427979H104.953V9.67161C102.604 8.79739 100.804 7.57524 99.299 5.83613C97.5807 3.83983 97.3516 1.48627 97.333 0.56746L97.3299 0.427979H95.6628L95.6716 0.578867C95.8159 2.93242 96.6901 4.9759 98.2687 6.65176C99.0213 7.45753 99.9094 8.1845 100.908 8.8119C101.859 9.40924 102.914 9.91842 104.05 10.3281C102.845 10.7226 101.712 11.2546 100.677 11.9126C99.4832 12.6718 98.4823 13.5605 97.7028 14.554C96.0585 16.6545 95.3188 18.5061 95.1466 20.9452L95.1363 21.0972H97.454L97.4638 20.9649C97.6361 18.5134 98.3354 16.4948 99.6006 14.793C100.792 13.2006 102.924 11.7166 104.953 11.055V21.0972H107.139V11.054C109.188 11.7099 111.272 13.1623 112.492 14.7935C113.755 16.4518 114.454 18.4698 114.629 20.9649L114.638 21.0972H116.957L116.946 20.9452C116.858 19.7008 116.639 18.6575 116.256 17.6615Z" fill="#837875"/>
		<path d="M169.367 0.427734V21.0974H179.753V19.5885L171.94 20.0158L171.527 10.9402L178.67 11.0719V9.72996L171.528 9.86114L171.939 1.50988L179.753 1.97033V0.427734H169.367Z" fill="#837875"/>
		<path d="M145.078 0.427734L145.308 9.76522H137.043L137.502 0.427734H134.915V21.0974H137.501L137.042 10.9708H145.308L145.079 21.0974H146.973V0.427734H145.078Z" fill="#837875"/>
		<path d="M120.832 0.427734V21.0974H131.217V19.5885L123.405 20.0158L122.992 10.9402L130.135 11.0719V9.72996L122.992 9.86114L123.404 1.50988L131.217 1.97033V0.427734H120.832Z" fill="#837875"/>
		<path d="M31.3443 20.385C26.9146 20.3731 23.9384 16.5189 23.9384 10.795C23.9384 5.07108 26.9152 1.21693 31.3443 1.20501C35.7734 1.21693 38.7496 5.07108 38.7496 10.795C38.7496 16.5189 35.7734 20.3731 31.3443 20.385ZM38.5034 3.04471C37.6298 2.07456 36.5814 1.32012 35.3865 0.803155C34.1565 0.270636 32.7967 0.000488281 31.3443 0.000488281C29.8914 0.000488281 28.5315 0.270636 27.3015 0.803155C26.1072 1.32012 25.0588 2.07456 24.1852 3.04471C23.3183 4.00708 22.6458 5.15716 22.1855 6.4633C21.7179 7.79019 21.481 9.24775 21.481 10.795C21.481 12.3428 21.7179 13.7998 22.1855 15.1267C22.6458 16.4334 23.3183 17.5835 24.1852 18.5458C25.0588 19.5155 26.1072 20.2699 27.3015 20.7874C28.5315 21.3199 29.8914 21.59 31.3443 21.59C32.7967 21.59 34.1565 21.3199 35.3865 20.7874C36.5814 20.2699 37.6298 19.5155 38.5034 18.5458C39.3698 17.5835 40.0427 16.4334 40.5031 15.1267C40.9707 13.7998 41.2076 12.3428 41.2076 10.795C41.2076 9.24775 40.9707 7.79019 40.5031 6.4633C40.0427 5.15716 39.3698 4.00708 38.5034 3.04471Z" fill="#837875"/>
	</symbol>
</svg>