<svg width="20" height="18" viewBox="0 0 20 18" fill="none" xmlns="http://www.w3.org/2000/svg">
<path fill-rule="evenodd" clip-rule="evenodd" d="M15.6561 17.8627C15.7892 17.9535 15.9444 18 16.1006 18C16.2032 18 16.3063 17.9799 16.404 17.9391C16.6501 17.8364 16.8283 17.616 16.8782 17.3526L19.984 0.956258C19.9901 0.926201 19.9945 0.895932 19.997 0.865556C20.0007 0.822967 20.0009 0.780377 19.9979 0.738319C19.9858 0.571041 19.9214 0.406844 19.8042 0.272172C19.7911 0.256772 19.7771 0.242009 19.7624 0.227564C19.621 0.088007 19.4398 0.0123868 19.2553 0.00134116C19.2235 -0.000464376 19.1915 -0.000464376 19.1596 0.00144737C19.0705 0.00697019 18.9822 0.0275746 18.8987 0.0632605L0.498982 7.42985C0.195825 7.55125 -0.00219826 7.84725 1.84203e-05 8.17543C0.0022351 8.50362 0.20427 8.79686 0.508905 8.91411L5.34791 10.7758L6.7022 15.9399C6.7687 16.1934 6.95501 16.3979 7.20032 16.4864C7.44595 16.5748 7.7186 16.5362 7.93013 16.3832L10.6273 14.4305L15.6561 17.8627ZM15.5483 15.864L11.0688 12.8068C11.062 12.8019 11.055 12.797 11.0477 12.7924L9.2368 11.5564L17.9649 3.10582L15.5483 15.864ZM7.33983 12.1269L7.9396 14.4136L9.23181 13.478L7.53975 12.3231C7.46111 12.2696 7.39376 12.2029 7.33983 12.1269ZM6.2924 9.43337L2.96971 8.15516L15.7516 3.03784L7.43494 11.0899C7.2993 11.2213 7.21581 11.3957 7.19649 11.581L6.77511 9.97418C6.71009 9.72629 6.53043 9.52492 6.2924 9.43337Z" fill="#212E4A"/>
</svg>
