<svg width="135" height="32" viewBox="0 0 135 32" fill="none" xmlns="http://www.w3.org/2000/svg">
<path fill-rule="evenodd" clip-rule="evenodd" d="M8.89783 31.6086C6.34392 31.6086 2.554 30.8828 0.282558 29.5384C0.71211 28.5508 1.51815 27.8368 2.66599 28.4499C4.71346 29.5439 6.77932 30.0324 9.06832 30.0324C12.3581 30.0324 14.7473 28.1582 14.5823 24.7731C14.2472 17.6813 -0.0412777 16.6047 8.96498e-05 8.08488C0.0356071 1.79068 5.57298 0 10.881 0C13.4407 0 15.9537 0.511744 18.4253 1.53439C18.0016 2.55787 17.2837 3.40867 16.0184 2.79601C14.2589 1.95113 12.5106 1.55254 10.6511 1.55254C7.42072 1.55254 5.58468 3.33774 5.57298 6.00286C5.53747 12.7847 20.0553 13.7964 20.2964 22.6434C20.4732 29.0267 15.2178 31.6086 8.89783 31.6086Z" fill="#212E4A"/>
<mask id="mask0_3984_2838" style="mask-type:luminance" maskUnits="userSpaceOnUse" x="94" y="9" width="21" height="23">
<path fill-rule="evenodd" clip-rule="evenodd" d="M94.7439 9.47729H114.168V32H94.7439V9.47729Z" fill="white"/>
</mask>
<g mask="url(#mask0_3984_2838)">
<path fill-rule="evenodd" clip-rule="evenodd" d="M100.329 19.0665L109.1 18.4175C109.124 15.5056 109.011 10.7053 105.159 10.6995C101.052 10.6995 100.448 15.9733 100.329 19.0665ZM105.212 32.0002C102.261 32.0002 99.191 31.1462 97.265 28.7725C95.4632 26.5504 94.7878 23.7908 94.7461 21.0018C94.6927 17.5169 95.5877 14.7217 97.4371 12.6232C99.2798 10.5238 101.822 9.47729 105.058 9.47729C106.61 9.47729 107.973 9.6993 109.153 10.1495C110.327 10.5998 111.275 11.2198 111.986 12.0206C112.703 12.8215 113.236 13.7394 113.598 14.7744C113.959 15.8039 114.149 16.9438 114.166 18.195C114.179 18.8444 114.125 19.4523 114.006 20.008C113.995 20.0661 113.948 20.1071 113.888 20.1071H100.364C100.448 23.5862 100.981 26.1059 101.976 27.6729C102.972 29.2402 104.631 30.0237 106.955 30.0237C109.384 30.0237 111.275 29.3336 113.1 27.9011C113.414 28.1646 113.74 28.9012 113.106 29.4801C111.446 30.9881 108.122 32.0002 105.212 32.0002Z" fill="#212E4A"/>
</g>
<path fill-rule="evenodd" clip-rule="evenodd" d="M113.684 31.6078L122.174 21.6491L114.008 10.1963H118.433C120.61 10.1963 120.286 11.0535 124.069 16.3663L125.37 18.1967L130.509 10.4857C130.665 10.2538 130.916 10.1963 131.157 10.1963H133.8L126.09 19.2394L135 31.6078H130.85C128.104 31.6424 128.596 30.5245 124.945 25.49L122.918 22.6918L117.066 31.2945C116.916 31.5149 116.676 31.6078 116.365 31.6078H113.684Z" fill="#212E4A"/>
<path fill-rule="evenodd" clip-rule="evenodd" d="M55.627 29.0841V16.2341C55.627 11.7967 54.0213 9.17676 49.9364 9.17676C46.4795 9.17676 44.1541 11.0125 42.3086 13.0796C41.6291 10.614 40.029 9.17676 36.904 9.17676C33.9843 9.17676 31.5903 10.6267 29.6592 12.8005L29.4361 13.5792L29.6989 13.9768C31.2016 12.6462 33.0183 12.0935 34.493 12.0935C37.3324 12.0935 37.6351 15.189 37.6351 17.5171V29.0841L37.4407 31.6087H42.8514L42.6514 29.0841V13.9768C43.9545 12.7887 45.7712 12.0935 47.4682 12.0935C50.4277 12.0935 50.6107 15.4681 50.6107 17.5171V28.638C50.6107 30.7355 51.1815 31.6087 52.4959 31.6087H55.827L55.627 29.0841Z" fill="#212E4A"/>
<path fill-rule="evenodd" clip-rule="evenodd" d="M91.1512 29.1018V16.2341C91.1512 11.8443 89.5372 9.17676 85.4099 9.17676C82.4811 9.17676 79.7316 10.6027 77.7541 12.7647L77.1429 13.8938L77.7884 13.9768C79.3509 12.747 80.8093 12.0935 82.9195 12.0935C85.5712 12.0935 86.0898 14.6539 86.0898 17.5175V28.6384C86.0898 30.5036 86.5106 31.6087 87.9924 31.6087H91.3534L91.1512 29.1018Z" fill="#212E4A"/>
<path fill-rule="evenodd" clip-rule="evenodd" d="M66.9927 3.05913C66.9927 4.74681 65.6282 6.1178 63.9478 6.1178C62.2674 6.1178 60.9025 4.74681 60.9025 3.05913C60.9025 1.37099 62.2674 0 63.9478 0C65.6282 0 66.9927 1.37099 66.9927 3.05913Z" fill="#212E4A"/>
<path fill-rule="evenodd" clip-rule="evenodd" d="M60.9025 10.1963L61.1276 12.641V29.1466L60.9025 31.6086H66.9927L66.7676 29.1466V13.0871C66.7676 11.4363 66.4333 10.1963 64.652 10.1963H60.9025Z" fill="#212E4A"/>
<path fill-rule="evenodd" clip-rule="evenodd" d="M72.0677 10.1963L72.2929 12.641L72.2865 29.1466L72.0677 31.6086H78.158L77.9329 29.1466V13.6027L77.894 13.2323C77.894 11.5753 77.5917 10.1963 75.8168 10.1963H72.0677Z" fill="#212E4A"/>
<path fill-rule="evenodd" clip-rule="evenodd" d="M23.346 10.1963L23.5709 12.641V29.1466L23.346 31.6086H29.4362L29.2113 29.1466V13.6027L29.1661 13.2323C29.1661 11.5753 28.871 10.1963 27.0915 10.1963H23.346Z" fill="#212E4A"/>
</svg>
