<svg width="32" height="32" viewBox="0 0 32 32" fill="none" xmlns="http://www.w3.org/2000/svg">
<path fill-rule="evenodd" clip-rule="evenodd" d="M0 8C0 7.44772 0.397969 7 0.888889 7H31.1111C31.602 7 32 7.44772 32 8C32 8.55228 31.602 9 31.1111 9H0.888889C0.397969 9 0 8.55228 0 8Z" fill="white"/>
<path fill-rule="evenodd" clip-rule="evenodd" d="M0 16C0 15.4477 0.397969 15 0.888889 15H31.1111C31.602 15 32 15.4477 32 16C32 16.5523 31.602 17 31.1111 17H0.888889C0.397969 17 0 16.5523 0 16Z" fill="white"/>
<path fill-rule="evenodd" clip-rule="evenodd" d="M0 24C0 23.4477 0.397969 23 0.888889 23H31.1111C31.602 23 32 23.4477 32 24C32 24.5523 31.602 25 31.1111 25H0.888889C0.397969 25 0 24.5523 0 24Z" fill="white"/>
</svg>
