<svg width="20" height="20" viewBox="0 0 20 20" fill="none" xmlns="http://www.w3.org/2000/svg">
<path d="M18.3 7.79376L11.625 2.26251C11.4397 2.10575 11.2128 2.00633 10.9719 1.97636C10.7311 1.9464 10.4867 1.98719 10.2687 2.09376C10.0539 2.19463 9.87218 2.35458 9.7449 2.55491C9.61762 2.75524 9.55 2.98766 9.54996 3.22501V4.47501C7.11757 5.32522 5.01086 6.91278 3.52316 9.01661C2.03547 11.1204 1.24085 13.6358 1.24996 16.2125C1.24917 16.8636 1.30142 17.5137 1.40621 18.1563C1.42659 18.2855 1.48701 18.4051 1.57896 18.4981C1.6709 18.5912 1.78973 18.6531 1.91871 18.675H2.02496C2.13802 18.6747 2.24889 18.6437 2.34574 18.5854C2.4426 18.5271 2.52181 18.4436 2.57496 18.3438C3.28969 16.9991 4.28056 15.8207 5.48261 14.8857C6.68465 13.9508 8.07072 13.2805 9.54996 12.9188V14.2688C9.55 14.5061 9.61762 14.7385 9.7449 14.9389C9.87218 15.1392 10.0539 15.2991 10.2687 15.4C10.4407 15.4812 10.6285 15.5239 10.8187 15.525C11.1145 15.5235 11.4002 15.4172 11.625 15.225L14.6625 12.725L14.7187 12.6813L18.3 9.71251C18.4393 9.59517 18.5514 9.44879 18.6282 9.28361C18.7051 9.11843 18.7449 8.93845 18.7449 8.75626C18.7449 8.57407 18.7051 8.39408 18.6282 8.2289C18.5514 8.06372 18.4393 7.91734 18.3 7.80001V7.79376ZM13.9687 11.6688L13.9125 11.7125L10.7875 14.275V12.1375C10.791 12.121 10.791 12.104 10.7875 12.0875C10.7875 12.0875 10.7875 12.05 10.7875 12.0313C10.7875 12.0125 10.7875 11.9875 10.7562 11.9625C10.7443 11.924 10.7297 11.8864 10.7125 11.85C10.6898 11.8115 10.6601 11.7776 10.625 11.75C10.6051 11.7186 10.5797 11.6911 10.55 11.6688C10.5172 11.6401 10.4816 11.615 10.4437 11.5938L10.35 11.55H10.2125H10.15H10.1H10.0437C7.03442 12.0691 4.33645 13.7165 2.49996 16.1563C2.50244 13.7791 3.26585 11.4653 4.6784 9.55336C6.09096 7.64146 8.07847 6.23198 10.35 5.53126H10.3812C10.4225 5.51631 10.4622 5.49747 10.5 5.47501C10.5438 5.45145 10.5856 5.42427 10.625 5.39376L10.7 5.30626C10.7265 5.27685 10.7477 5.243 10.7625 5.20626C10.7787 5.17227 10.7913 5.13665 10.8 5.10001C10.8035 5.05633 10.8035 5.01244 10.8 4.96876V3.25626L17.5 8.75001L13.9687 11.6688Z" fill="#1E222E"/>
</svg>
