<svg width="14" height="14" viewBox="0 0 14 14" fill="none" xmlns="http://www.w3.org/2000/svg">
<g clip-path="url(#clip0_1894_2959)">
<path d="M2.95602 7.48945C2.61546 8.15889 3.00213 8.47889 3.88435 9.02556C4.63435 9.48889 5.67046 9.65833 6.33602 9.72611C6.06324 9.98833 7.31324 8.78611 3.71324 12.2489C2.94991 12.9806 4.17879 14.1544 4.94157 13.4383L7.00657 11.4467C7.79713 12.2072 8.55491 12.9361 9.07157 13.4411C9.83491 14.16 11.0632 12.9961 10.3082 12.2517C10.2516 12.1978 7.50991 9.56778 7.67713 9.72889C8.35102 9.66111 9.37157 9.48167 10.1127 9.02833L10.1121 9.02778C10.9944 8.47833 11.381 8.15889 11.0455 7.48945C10.8427 7.10945 10.296 6.79167 9.56824 7.34111C9.56824 7.34111 8.58546 8.09389 7.00046 8.09389C5.41491 8.09389 4.43268 7.34111 4.43268 7.34111C3.70546 6.78889 3.15657 7.10945 2.95602 7.48945Z" fill="#1E222E"/>
<path d="M6.99932 7.0789C8.93155 7.0789 10.5093 5.5689 10.5093 3.71001C10.5093 1.84334 8.93155 0.333344 6.99932 0.333344C5.06655 0.333344 3.48877 1.84334 3.48877 3.71001C3.48877 5.5689 5.06655 7.0789 6.99932 7.0789ZM6.99932 2.0439C7.94877 2.0439 8.72321 2.7889 8.72321 3.71001C8.72321 4.62334 7.94877 5.36834 6.99932 5.36834C6.04988 5.36834 5.27544 4.62334 5.27544 3.71001C5.27488 2.78834 6.04932 2.0439 6.99932 2.0439Z" fill="#1E222E"/>
</g>
<defs>
<clipPath id="clip0_1894_2959">
<rect width="13.3333" height="13.3333" fill="white" transform="translate(0.333252 0.333344)"/>
</clipPath>
</defs>
</svg>
