<svg width="16" height="16" viewBox="0 0 16 16" fill="none" xmlns="http://www.w3.org/2000/svg">
<g clip-path="url(#clip0_1894_2964)">
<path d="M15.2442 3.18214C15.1787 2.56087 14.9019 1.98092 14.4601 1.53925C14.0183 1.09759 13.4382 0.820998 12.817 0.755722C9.6159 0.412521 6.38732 0.412521 3.18627 0.755722C2.56436 0.820263 1.98352 1.09653 1.54101 1.53826C1.09851 1.97999 0.82122 2.56035 0.755588 3.18214C0.413827 6.3847 0.413827 9.61453 0.755588 12.8171C0.821813 13.4382 1.09883 14.0178 1.54048 14.4595C1.98214 14.9011 2.56178 15.1781 3.18286 15.2444C6.38392 15.5876 9.61249 15.5876 12.8135 15.2444C13.4352 15.1789 14.0157 14.9022 14.458 14.4605C14.9004 14.0187 15.1779 13.4387 15.2442 12.8171C15.586 9.61453 15.586 6.3847 15.2442 3.18214ZM12.2383 10.6821C12.0201 10.7128 10.953 10.6821 10.8976 10.6821C10.6211 10.6853 10.3546 10.579 10.1562 10.3864C9.93116 10.1691 9.73002 9.93044 9.51013 9.70459C9.44534 9.63526 9.37493 9.57141 9.29962 9.51368C9.12405 9.37902 8.95019 9.4097 8.86752 9.6168C8.80293 9.8406 8.75787 10.0696 8.73286 10.3012C8.71837 10.51 8.58542 10.6421 8.35019 10.6557C8.20445 10.6642 8.05871 10.6668 7.91468 10.6634C7.38969 10.6598 6.87303 10.5318 6.40701 10.2901C5.90273 10.0094 5.46334 9.62546 5.11752 9.16339C4.54905 8.43726 4.09479 7.63953 3.68911 6.81709C3.6678 6.77532 3.25189 5.89152 3.24167 5.8489C3.20417 5.70998 3.24167 5.57618 3.35672 5.5293C3.43002 5.50118 4.80047 5.5293 4.82349 5.5293C4.92541 5.52874 5.02489 5.56054 5.10759 5.62011C5.1903 5.67969 5.25196 5.76398 5.28371 5.86084C5.53705 6.50952 5.88391 7.11766 6.31326 7.66595C6.37337 7.739 6.4437 7.80301 6.52207 7.85601C6.63371 7.93271 6.7394 7.90629 6.78542 7.77674C6.84002 7.5982 6.87209 7.41353 6.88087 7.22703C6.88854 6.85714 6.88087 6.61424 6.86042 6.24436C6.84678 6.00743 6.76326 5.80032 6.41383 5.73299C6.30644 5.71339 6.29707 5.62476 6.3661 5.53612C6.51013 5.35288 6.70701 5.32305 6.92775 5.31282C7.25672 5.29322 7.5857 5.30601 7.91468 5.31282H7.98627C8.12944 5.3116 8.27232 5.32589 8.41241 5.35544C8.49519 5.37261 8.57027 5.41592 8.62658 5.47899C8.68289 5.54205 8.71746 5.62153 8.72519 5.70572C8.74211 5.79904 8.74926 5.89387 8.7465 5.98868C8.73798 6.3918 8.71837 6.79578 8.71411 7.1989C8.71015 7.35886 8.72473 7.51873 8.75758 7.67532C8.80445 7.89095 8.9519 7.94379 9.09849 7.78868C9.28846 7.5889 9.46256 7.37461 9.61923 7.14777C9.89671 6.7334 10.1255 6.28841 10.301 5.82163C10.3965 5.58214 10.4715 5.5293 10.7272 5.5293H12.1812C12.2676 5.52778 12.3538 5.53928 12.4368 5.56339C12.4662 5.57112 12.4937 5.58482 12.5176 5.60366C12.5414 5.6225 12.5611 5.64605 12.5754 5.67285C12.5897 5.69966 12.5984 5.72913 12.6008 5.75942C12.6032 5.78971 12.5993 5.82018 12.5894 5.8489C12.5178 6.16851 12.3456 6.43953 12.1633 6.70118C11.8675 7.11964 11.5556 7.52788 11.253 7.94123C11.2146 7.99581 11.1796 8.05274 11.1482 8.11169C11.034 8.31708 11.0425 8.43214 11.2079 8.6026C11.4721 8.87447 11.7542 9.12845 12.009 9.40799C12.1959 9.61138 12.3647 9.83068 12.5135 10.0634C12.7002 10.3532 12.5851 10.6293 12.2374 10.6787L12.2383 10.6821Z" fill="#1E222E"/>
</g>
<defs>
<clipPath id="clip0_1894_2964">
<rect width="15" height="15" fill="white" transform="translate(0.5 0.5)"/>
</clipPath>
</defs>
</svg>
