<svg width="18" height="18" viewBox="0 0 18 18" fill="none" xmlns="http://www.w3.org/2000/svg">
<path fill-rule="evenodd" clip-rule="evenodd" d="M9.96967 3.21967C10.6076 2.58175 11.4728 2.22336 12.375 2.22336C13.2772 2.22336 14.1424 2.58175 14.7803 3.21967C15.4183 3.85761 15.7766 4.72283 15.7766 5.62501C15.7766 6.52718 15.4183 7.3924 14.7803 8.03032L11.7829 11.0278C11.4692 11.3471 11.0951 11.6009 10.6825 11.7743C10.2685 11.9483 9.82402 12.0379 9.375 12.0379C8.92597 12.0379 8.48152 11.9483 8.06752 11.7743C7.6536 11.6004 7.27852 11.3456 6.96428 11.0249C6.6744 10.729 6.67924 10.2541 6.97511 9.96427C7.27098 9.6744 7.74585 9.67927 8.03572 9.97515C8.21032 10.1533 8.41867 10.2949 8.64862 10.3915C8.87857 10.4881 9.12555 10.5379 9.375 10.5379C9.62445 10.5379 9.87142 10.4881 10.1014 10.3915C10.3313 10.2949 10.5397 10.1533 10.7143 9.97515L10.7197 9.96967L13.7197 6.96967C14.0763 6.61305 14.2766 6.12936 14.2766 5.62501C14.2766 5.12066 14.0763 4.63696 13.7197 4.28034C13.363 3.92371 12.8794 3.72336 12.375 3.72336C11.8706 3.72336 11.3869 3.92371 11.0303 4.28034L10.6553 4.65534C10.3624 4.94823 9.88755 4.94823 9.59467 4.65534C9.3018 4.36244 9.3018 3.88757 9.59467 3.59467L9.96967 3.21967Z" fill="black"/>
<path fill-rule="evenodd" clip-rule="evenodd" d="M7.31758 6.22564C7.73156 6.05169 8.17601 5.9621 8.62504 5.9621C9.07406 5.9621 9.51851 6.05169 9.93251 6.22564C10.3464 6.39958 10.7215 6.65437 11.0358 6.97509C11.3256 7.27096 11.3208 7.74578 11.025 8.03573C10.7291 8.3256 10.2542 8.32073 9.96431 8.02485C9.78971 7.84673 9.58136 7.70513 9.35141 7.60853C9.12146 7.51185 8.87449 7.4621 8.62504 7.4621C8.37559 7.4621 8.12861 7.51185 7.89866 7.60853C7.66871 7.70513 7.46033 7.84673 7.28575 8.02485L7.28039 8.03033L4.28037 11.0303C3.92374 11.387 3.72339 11.8706 3.72339 12.375C3.72339 12.8793 3.92374 13.3631 4.28037 13.7197C4.63699 14.0763 5.12068 14.2766 5.62504 14.2766C6.12939 14.2766 6.61308 14.0763 6.9697 13.7197L7.3447 13.3447C7.63759 13.0517 8.11249 13.0517 8.40536 13.3447C8.69824 13.6376 8.69824 14.1125 8.40536 14.4053L8.03036 14.7803C7.39243 15.4183 6.52721 15.7766 5.62504 15.7766C4.72286 15.7766 3.85764 15.4183 3.2197 14.7803C2.58178 14.1424 2.22339 13.2772 2.22339 12.375C2.22339 11.4728 2.58178 10.6076 3.2197 9.96968L6.21715 6.97221C6.53082 6.65284 6.90488 6.39905 7.31758 6.22564Z" fill="black"/>
</svg>
