<svg width="16" height="16" viewBox="0 0 16 16" fill="none" xmlns="http://www.w3.org/2000/svg">
<path d="M8 6.00103C7.48665 5.98377 6.98783 6.18451 6.61292 6.55923C6.23801 6.93395 6.01759 7.45207 6 8C6.01759 8.54793 6.23801 9.06605 6.61292 9.44077C6.98783 9.81549 7.48665 10.0162 8 9.99897C8.51335 10.0162 9.01217 9.81549 9.38708 9.44077C9.76199 9.06605 9.98241 8.54793 10 8C9.98241 7.45207 9.76199 6.93395 9.38708 6.55923C9.01217 6.18451 8.51335 5.98377 8 6.00103ZM8 8.99949C7.73537 9.0149 7.47565 8.91881 7.27673 8.73189C7.0778 8.54496 6.95557 8.28215 6.93633 8C6.95557 7.71785 7.0778 7.45504 7.27673 7.26811C7.47565 7.08119 7.73537 6.9851 8 7.00051C8.26463 6.9851 8.52435 7.08119 8.72327 7.26811C8.9222 7.45504 9.04443 7.71785 9.06367 8C9.04443 8.28215 8.9222 8.54496 8.72327 8.73189C8.52435 8.91881 8.26463 9.0149 8 8.99949Z" fill="#696E82"/>
<path d="M8 8.99949C7.73537 9.0149 7.47565 8.91881 7.27673 8.73189C7.0778 8.54496 6.95557 8.28215 6.93633 8C6.95557 7.71785 7.0778 7.45504 7.27673 7.26811C7.47565 7.08119 7.73537 6.9851 8 7.00051C8.26463 6.9851 8.52435 7.08119 8.72327 7.26811C8.9222 7.45504 9.04443 7.71785 9.06367 8C9.04443 8.28215 8.9222 8.54496 8.72327 8.73189C8.52435 8.91881 8.26463 9.0149 8 8.99949Z" fill="#696E82"/>
<path d="M8 3.00571C6.25167 2.94316 4.52794 3.39571 3.08613 4.29581C1.64431 5.19592 0.561736 6.4953 0 8C0.561736 9.5047 1.64431 10.8041 3.08613 11.7042C4.52794 12.6043 6.25167 13.0568 8 12.9943C9.74833 13.0568 11.4721 12.6043 12.9139 11.7042C14.3557 10.8041 15.4383 9.5047 16 8C15.4383 6.4953 14.3557 5.19592 12.9139 4.29581C11.4721 3.39571 9.74833 2.94316 8 3.00571ZM13.4 9.8161C12.7193 10.4946 11.8829 11.0292 10.9499 11.3822C10.0168 11.7352 9.00987 11.898 8 11.8592C6.99013 11.898 5.98317 11.7352 5.05015 11.3822C4.11713 11.0292 3.28075 10.4946 2.6 9.8161C2.06914 9.27857 1.63999 8.66489 1.33 8C1.63999 7.33511 2.06914 6.72143 2.6 6.1839C3.28075 5.50543 4.11713 4.97085 5.05015 4.61783C5.98317 4.26482 6.99013 4.10197 8 4.14078C9.00987 4.10197 10.0168 4.26482 10.9499 4.61783C11.8829 4.97085 12.7193 5.50543 13.4 6.1839C13.9309 6.72143 14.36 7.33511 14.67 8C14.36 8.66489 13.9309 9.27857 13.4 9.8161Z" fill="#696E82"/>
</svg>
