<svg width="16" height="16" viewBox="0 0 16 16" fill="none" xmlns="http://www.w3.org/2000/svg">
<path d="M7.99994 1C4.14018 1 1 4.14018 1 7.99994C1 11.8598 4.14011 15 7.99987 15C11.8597 15 14.9998 11.8598 14.9998 7.99994C14.9999 4.14018 11.8598 1 7.99994 1ZM7.99994 14.0418C4.66856 14.0418 1.95831 11.3314 1.95831 7.99994C1.95825 4.66856 4.66856 1.95825 7.99994 1.95825C11.3313 1.95825 14.0416 4.66856 14.0416 7.99994C14.0416 11.3314 11.3313 14.0418 7.99994 14.0418Z" fill="#696E82"/>
<path d="M11.6116 7.90645H8.28637V4.27392C8.28637 4.00932 8.07192 3.7948 7.80725 3.7948C7.54264 3.7948 7.32812 4.00932 7.32812 4.27392V8.38557C7.32812 8.65018 7.54264 8.8647 7.80725 8.8647H11.6116C11.8762 8.8647 12.0907 8.65018 12.0907 8.38557C12.0907 8.12097 11.8762 7.90645 11.6116 7.90645Z" fill="#696E82"/>
</svg>
