<svg width="20" height="20" viewBox="0 0 20 20" fill="none" xmlns="http://www.w3.org/2000/svg">
<path fill-rule="evenodd" clip-rule="evenodd" d="M3.082 3.41C3 3.57 3 3.78 3 4.2V8.028C3 8.448 3 8.658 3.082 8.818C3.15393 8.95925 3.26875 9.07407 3.41 9.146C3.57 9.228 3.78 9.228 4.2 9.228H8.028C8.448 9.228 8.658 9.228 8.818 9.146C8.95925 9.07407 9.07407 8.95925 9.146 8.818C9.228 8.658 9.228 8.448 9.228 8.028V4.2C9.228 3.78 9.228 3.57 9.146 3.41C9.07407 3.26875 8.95925 3.15393 8.818 3.082C8.658 3 8.448 3 8.028 3H4.2C3.78 3 3.57 3 3.41 3.082C3.26875 3.15393 3.15393 3.26875 3.082 3.41ZM4.5 4.5H7.728V7.728H4.5V4.5Z" fill="white"/>
<path fill-rule="evenodd" clip-rule="evenodd" d="M3.082 11.182C3 11.342 3 11.552 3 11.972V15.8C3 16.22 3 16.43 3.082 16.59C3.15393 16.7312 3.26875 16.846 3.41 16.918C3.57 17 3.78 17 4.2 17H8.028C8.448 17 8.658 17 8.818 16.918C8.95925 16.846 9.07407 16.7312 9.146 16.59C9.228 16.43 9.228 16.22 9.228 15.8V11.972C9.228 11.552 9.228 11.342 9.146 11.182C9.07407 11.0407 8.95925 10.9259 8.818 10.854C8.658 10.772 8.448 10.772 8.028 10.772H4.2C3.78 10.772 3.57 10.772 3.41 10.854C3.26875 10.9259 3.15393 11.0407 3.082 11.182ZM4.5 12.272H7.728V15.5H4.5V12.272Z" fill="white"/>
<path fill-rule="evenodd" clip-rule="evenodd" d="M10.772 4.2C10.772 3.78 10.772 3.57 10.854 3.41C10.9259 3.26875 11.0407 3.15393 11.182 3.082C11.342 3 11.552 3 11.972 3H15.8C16.22 3 16.43 3 16.59 3.082C16.7312 3.15393 16.846 3.26875 16.918 3.41C17 3.57 17 3.78 17 4.2V8.028C17 8.448 17 8.658 16.918 8.818C16.846 8.95925 16.7312 9.07407 16.59 9.146C16.43 9.228 16.22 9.228 15.8 9.228H11.972C11.552 9.228 11.342 9.228 11.182 9.146C11.0407 9.07407 10.9259 8.95925 10.854 8.818C10.772 8.658 10.772 8.448 10.772 8.028V4.2ZM12.272 7.728V4.5H15.5V7.728H12.272Z" fill="white"/>
<path d="M10.77 10.77H12.847V12.847H10.77V10.77Z" fill="white"/>
<path d="M14.923 12.847H12.847V14.923H10.77V17H12.847V14.923H14.923V17H17V14.923H14.923V12.847Z" fill="white"/>
<path d="M14.9231 12.847V10.77H17.0001V12.847H14.9231Z" fill="white"/>
</svg>
