<svg width="15" height="12" viewBox="0 0 15 12" fill="none" xmlns="http://www.w3.org/2000/svg">
<mask id="mask0_1894_2954" style="mask-type:luminance" maskUnits="userSpaceOnUse" x="0" y="0" width="15" height="12">
<path fill-rule="evenodd" clip-rule="evenodd" d="M0.5 0.166656H14.5V11.8333H0.5V0.166656Z" fill="white"/>
</mask>
<g mask="url(#mask0_1894_2954)">
<path fill-rule="evenodd" clip-rule="evenodd" d="M14.5 1.10402C14.4265 1.43024 14.3499 1.7558 14.2799 2.08279C13.8275 4.19733 13.3766 6.31219 12.9249 8.42691C12.7304 9.33766 12.5373 10.2487 12.3383 11.1585C12.3124 11.2767 12.2663 11.3941 12.2094 11.5012C12.0573 11.7874 11.8068 11.8954 11.4984 11.7988C11.3578 11.7547 11.2162 11.6903 11.0974 11.6042C10.0912 10.8751 9.09024 10.1387 8.08762 9.40469C8.05133 9.37812 8.01412 9.35275 7.97084 9.32224C7.93757 9.35067 7.90612 9.37502 7.87744 9.40236C7.35983 9.89561 6.84214 10.3888 6.3254 10.883C6.17144 11.0302 5.99625 11.1189 5.76599 11.1056C5.78505 10.8209 5.80254 10.5453 5.82214 10.2699C5.86321 9.69322 5.90533 9.11664 5.94716 8.53999C5.95376 8.44922 5.97744 8.35626 5.96553 8.26808C5.92049 7.93559 6.10739 7.74287 6.33567 7.53939C8.19169 5.8847 10.0388 4.22 11.8885 2.55825C11.9156 2.5339 11.9508 2.51337 11.9668 2.48297C11.9961 2.4272 12.0139 2.36537 12.0365 2.30606C11.9741 2.28853 11.905 2.245 11.8505 2.25886C11.7383 2.28733 11.6258 2.33348 11.5274 2.3949C9.11644 3.90074 6.70721 5.40939 4.29823 6.91848C4.23056 6.96087 4.17248 6.98431 4.08561 6.9569C3.0636 6.63422 2.03931 6.3189 1.01738 5.99592C0.893738 5.95685 0.770683 5.89845 0.664901 5.82405C0.466054 5.68421 0.442113 5.47949 0.620008 5.31418C0.750314 5.19308 0.908095 5.08562 1.07276 5.02018C1.93378 4.678 2.80066 4.35065 3.6659 4.01911C6.95288 2.7598 10.2399 1.50045 13.5278 0.243655C13.6324 0.203666 13.7464 0.177346 13.8579 0.16878C14.1537 0.146106 14.3731 0.306172 14.4635 0.593678C14.4742 0.627543 14.4878 0.660533 14.5 0.693924V1.10402Z" fill="#1E222E"/>
</g>
</svg>
