<svg width="40" height="40" viewBox="0 0 40 40" fill="none" xmlns="http://www.w3.org/2000/svg">
<path fill-rule="evenodd" clip-rule="evenodd" d="M39.3751 20C39.3751 30.7005 30.7006 39.375 20 39.375C15.353 39.375 11.0881 37.739 7.74983 35.0115C7.55934 35.126 7.3665 35.2369 7.17139 35.3442C10.6439 38.2505 15.1176 40 20 40C31.0457 40 40.0001 31.0457 40.0001 20C40.0001 8.95431 31.0457 0 20 0C15.1176 0 10.6439 1.74949 7.17139 4.65578C7.3665 4.76309 7.55934 4.87402 7.74983 4.98847C11.0881 2.261 15.353 0.625 20 0.625C30.7006 0.625 39.3751 9.29948 39.3751 20Z" fill="black"/>
<g clip-path="url(#clip0_5225_2660)">
<path d="M17.993 19.7349L13.9625 16.3749C13.878 16.3045 13.7633 16.2649 13.6437 16.2649C13.5242 16.2649 13.4095 16.3045 13.325 16.3749C13.2405 16.4454 13.193 16.5409 13.193 16.6405C13.193 16.7402 13.2405 16.8357 13.325 16.9062L16.589 19.6249H3.575C3.45565 19.6249 3.34119 19.6644 3.2568 19.7348C3.17241 19.8051 3.125 19.9005 3.125 19.9999C3.125 20.0994 3.17241 20.1948 3.2568 20.2651C3.34119 20.3354 3.45565 20.3749 3.575 20.3749H16.589L13.325 23.0937C13.2405 23.1641 13.193 23.2597 13.193 23.3593C13.193 23.4589 13.2405 23.5545 13.325 23.6249C13.4095 23.6954 13.5242 23.7349 13.6437 23.7349C13.7633 23.7349 13.878 23.6954 13.9625 23.6249L17.993 20.2649C18.0773 20.1946 18.1246 20.0993 18.1246 19.9999C18.1246 19.9005 18.0773 19.8052 17.993 19.7349Z" fill="black"/>
</g>
<defs>
<clipPath id="clip0_5225_2660">
<rect width="15" height="12.5" fill="white" transform="translate(3.125 13.75)"/>
</clipPath>
</defs>
</svg>
