<svg width="40" height="40" viewBox="0 0 40 40" fill="none" xmlns="http://www.w3.org/2000/svg">
<path d="M6.90217 31.9207C6.58225 32.2516 6.59123 32.7791 6.92209 33.099C7.25303 33.4189 7.78061 33.4099 8.10045 33.0791L32.2671 8.07907C32.587 7.74813 32.5781 7.22055 32.2472 6.90071C31.9163 6.58078 31.3887 6.58977 31.0688 6.92063L6.90217 31.9207Z" fill="currentColor"/>
<path d="M31.0688 33.079C31.3887 33.4099 31.9163 33.4188 32.2472 33.099C32.5781 32.7791 32.587 32.2515 32.2671 31.9206L8.10043 6.92065C7.78059 6.58975 7.25301 6.5808 6.92211 6.90069C6.59121 7.22053 6.58227 7.74811 6.90215 8.07901L31.0688 33.079Z" fill="currentColor"/>
</svg>
