<svg width="420" height="84" viewBox="0 0 420 84" fill="none" xmlns="http://www.w3.org/2000/svg">
<path d="M0 73.5V0H63V10.5H21V31.5H63V42H73.5V63H63V73.5H0ZM21 63H52.5V42H21V63ZM84 73.5V0H157.5V10.5H105V31.5H147V42H105V63H157.5V73.5H84ZM189 73.5V63H178.5V52.5H168V21H178.5V10.5H189V0H231V10.5H241.5V21H220.5V10.5H199.5V21H189V52.5H199.5V63H220.5V52.5H241.5V63H231V73.5H189Z" fill="#87F29A"/>
<path d="M262.5 73.5V63H283.5V10.5H262.5V0H325.5V10.5H304.5V63H325.5V73.5H262.5ZM367.5 73.5V10.5H346.5V0H409.5V10.5H388.5V73.5H367.5Z" fill="white"/>
</svg>
