<svg width="18" height="18" viewBox="0 0 18 18" fill="none" xmlns="http://www.w3.org/2000/svg">
<g clip-path="url(#clip0_4003_1957)">
<path d="M17.6931 3.21863C17.6145 2.47311 17.2823 1.77716 16.7522 1.24717C16.222 0.717171 15.5259 0.385258 14.7804 0.306927C10.9391 -0.104913 7.06481 -0.104913 3.22355 0.306927C2.47726 0.384377 1.78024 0.7159 1.24924 1.24597C0.718235 1.77605 0.385489 2.47248 0.30673 3.21863C-0.103383 7.0617 -0.103383 10.9375 0.30673 14.7806C0.3862 15.5259 0.718615 16.2214 1.2486 16.7514C1.77859 17.2814 2.47416 17.6138 3.21946 17.6933C7.06072 18.1051 10.935 18.1051 14.7763 17.6933C15.5223 17.6147 16.2188 17.2827 16.7496 16.7526C17.2805 16.2225 17.6135 15.5265 17.6931 14.7806C18.1032 10.9375 18.1032 7.0617 17.6931 3.21863ZM14.0859 12.2186C13.8241 12.2554 12.5437 12.2186 12.4772 12.2186C12.1454 12.2224 11.8255 12.0949 11.5874 11.8637C11.3174 11.6029 11.076 11.3166 10.8122 11.0456C10.7344 10.9624 10.6499 10.8858 10.5596 10.8165C10.3489 10.6549 10.1403 10.6917 10.041 10.9402C9.96354 11.2088 9.90947 11.4836 9.87946 11.7615C9.86207 12.012 9.70253 12.1706 9.42025 12.1869C9.24537 12.1972 9.07048 12.2002 8.89764 12.1961C8.26766 12.1918 7.64766 12.0383 7.08843 11.7482C6.4833 11.4113 5.95603 10.9506 5.54105 10.3961C4.85889 9.52477 4.31378 8.5675 3.82696 7.58056C3.80139 7.53045 3.3023 6.46988 3.29003 6.41874C3.24503 6.25204 3.29003 6.09147 3.42809 6.03522C3.51605 6.00147 5.16059 6.03522 5.18821 6.03522C5.31052 6.03455 5.42989 6.07271 5.52914 6.1442C5.62838 6.21569 5.70238 6.31683 5.74048 6.43306C6.04449 7.21148 6.46071 7.94125 6.97593 8.5992C7.04807 8.68686 7.13246 8.76367 7.2265 8.82727C7.36048 8.91931 7.4873 8.88761 7.54253 8.73215C7.60805 8.5179 7.64653 8.2963 7.65707 8.07249C7.66628 7.62863 7.65707 7.33715 7.63253 6.89329C7.61616 6.60897 7.51593 6.36045 7.09662 6.27965C6.96775 6.25613 6.9565 6.14977 7.03934 6.0434C7.21218 5.82352 7.44843 5.78772 7.71332 5.77545C8.10809 5.75193 8.50287 5.76727 8.89764 5.77545H8.98355C9.15535 5.77398 9.3268 5.79112 9.49491 5.82659C9.59425 5.8472 9.68434 5.89917 9.75192 5.97484C9.81949 6.05052 9.86097 6.1459 9.87025 6.24693C9.89056 6.35891 9.89913 6.47271 9.89582 6.58647C9.88559 7.07022 9.86207 7.55499 9.85696 8.03874C9.8522 8.23069 9.8697 8.42254 9.90912 8.61045C9.96537 8.8692 10.1423 8.93261 10.3182 8.74647C10.5462 8.50674 10.7551 8.24959 10.9431 7.97738C11.2761 7.48014 11.5506 6.94616 11.7613 6.38602C11.8758 6.09863 11.9658 6.03522 12.2726 6.03522H14.0174C14.1212 6.0334 14.2246 6.04719 14.3242 6.07613C14.3595 6.0854 14.3925 6.10185 14.4211 6.12445C14.4497 6.14706 14.4733 6.17532 14.4905 6.20749C14.5077 6.23965 14.5181 6.27501 14.521 6.31137C14.5239 6.34772 14.5192 6.38427 14.5073 6.41874C14.4214 6.80227 14.2148 7.1275 13.9959 7.44147C13.641 7.94363 13.2667 8.43352 12.9037 8.92954C12.8575 8.99503 12.8155 9.06335 12.7779 9.13409C12.6408 9.38056 12.651 9.51863 12.8495 9.72318C13.1665 10.0494 13.505 10.3542 13.8108 10.6897C14.0351 10.9337 14.2377 11.1969 14.4163 11.4761C14.6403 11.8239 14.5022 12.1552 14.0849 12.2145L14.0859 12.2186Z" fill="#1E222E"/>
</g>
<defs>
<clipPath id="clip0_4003_1957">
<rect width="18" height="18" fill="white"/>
</clipPath>
</defs>
</svg>
