<svg width="17" height="17" viewBox="0 0 17 17" fill="none" xmlns="http://www.w3.org/2000/svg">
<g clip-path="url(#clip0_5816_402)">
<path d="M3.71163 0.271876C3.04654 -0.0957279 2.26565 -0.0872284 1.60481 0.277188L9.35 7.4221L11.9519 4.82018L3.71163 0.271876Z" fill="#1E222E"/>
<path d="M0.828733 1.00879C0.639619 1.31796 0.53125 1.67175 0.53125 2.04679V14.9512C0.53125 15.3145 0.630057 15.6609 0.808547 15.9637L8.59729 8.17494L0.828733 1.00879Z" fill="#1E222E"/>
<path d="M15.4033 6.72398L12.9214 5.35449L10.1325 8.14233L13.5504 11.2946L15.4043 10.2715C16.0715 9.90174 16.471 9.23877 16.471 8.49719C16.4699 7.75561 16.0715 7.09264 15.4033 6.72398Z" fill="#1E222E"/>
<path d="M9.37608 8.89453L1.56609 16.7045C1.905 16.8979 2.27686 16.9999 2.65084 16.9999C3.01207 16.9999 3.37542 16.9085 3.70796 16.7247L12.5655 11.8364L9.37608 8.89453Z" fill="#1E222E"/>
</g>
<defs>
<clipPath id="clip0_5816_402">
<rect width="17" height="17" fill="white"/>
</clipPath>
</defs>
</svg>
