<svg width="17" height="14" viewBox="0 0 17 14" fill="none" xmlns="http://www.w3.org/2000/svg">
<mask id="mask0_4003_1947" style="mask-type:luminance" maskUnits="userSpaceOnUse" x="0" y="0" width="17" height="14">
<path fill-rule="evenodd" clip-rule="evenodd" d="M0 0H16.8V14H0V0Z" fill="white"/>
</mask>
<g mask="url(#mask0_4003_1947)">
<path fill-rule="evenodd" clip-rule="evenodd" d="M16.8 1.12484C16.7118 1.5163 16.6198 1.90698 16.5359 2.29936C15.993 4.8368 15.4519 7.37464 14.9099 9.9123C14.6765 11.0052 14.4448 12.0985 14.206 13.1902C14.1749 13.3321 14.1196 13.473 14.0513 13.6015C13.8688 13.9449 13.5682 14.0744 13.1981 13.9585C13.0294 13.9057 12.8594 13.8284 12.7168 13.7251C11.5095 12.8501 10.3083 11.9665 9.10515 11.0856C9.06159 11.0538 9.01695 11.0233 8.965 10.9867C8.92508 11.0208 8.88734 11.05 8.85293 11.0828C8.23179 11.6747 7.61057 12.2666 6.99048 12.8597C6.80573 13.0363 6.5955 13.1426 6.31919 13.1267C6.34206 12.785 6.36304 12.4543 6.38657 12.1239C6.43585 11.4319 6.4864 10.74 6.5366 10.048C6.54451 9.93907 6.57293 9.82753 6.55863 9.72171C6.50459 9.32273 6.72886 9.09145 7.00281 8.84727C9.23003 6.86166 11.4465 4.86401 13.6662 2.86991C13.6988 2.84069 13.741 2.81606 13.7602 2.77958C13.7953 2.71265 13.8167 2.63846 13.8438 2.56729C13.7689 2.54625 13.686 2.49402 13.6206 2.51064C13.486 2.5448 13.3509 2.60018 13.2329 2.67389C10.3397 4.4809 7.44865 6.29128 4.55787 8.10219C4.47667 8.15306 4.40697 8.18119 4.30273 8.14829C3.07632 7.76107 1.84717 7.38269 0.62085 6.99512C0.472485 6.94823 0.32482 6.87815 0.197881 6.78887C-0.0407353 6.62107 -0.0694638 6.3754 0.14401 6.17702C0.300377 6.03171 0.489714 5.90275 0.687315 5.82423C1.72053 5.41361 2.76079 5.02079 3.79908 4.62294C7.74345 3.11177 11.6878 1.60055 15.6333 0.0923977C15.7589 0.0444108 15.8957 0.0128278 16.0295 0.00254805C16.3845 -0.0246606 16.6477 0.167418 16.7562 0.512425C16.769 0.553063 16.7853 0.592651 16.8 0.632721V1.12484Z" fill="#1E222E"/>
</g>
</svg>
