<svg width="16" height="16" viewBox="0 0 16 16" fill="none" xmlns="http://www.w3.org/2000/svg">
<g clip-path="url(#clip0_4003_1952)">
<path d="M3.14732 8.58755C2.73865 9.39089 3.20265 9.77489 4.26132 10.4309C5.16132 10.9869 6.40465 11.1902 7.20332 11.2716C6.87598 11.5862 8.37598 10.1436 4.05598 14.2989C3.13998 15.1769 4.61465 16.5856 5.52998 15.7262L8.00798 13.3362C8.95665 14.2489 9.86598 15.1236 10.486 15.7296C11.402 16.5922 12.876 15.1956 11.97 14.3022C11.902 14.2376 8.61198 11.0816 8.81265 11.2749C9.62132 11.1936 10.846 10.9782 11.7353 10.4342L11.7347 10.4336C12.7933 9.77422 13.2573 9.39089 12.8547 8.58755C12.6113 8.13155 11.9553 7.75022 11.082 8.40955C11.082 8.40955 9.90265 9.31289 8.00065 9.31289C6.09798 9.31289 4.91932 8.40955 4.91932 8.40955C4.04665 7.74689 3.38798 8.13155 3.14732 8.58755Z" fill="#1E222E"/>
<path d="M7.99929 8.09467C10.318 8.09467 12.2113 6.28267 12.2113 4.052C12.2113 1.812 10.318 0 7.99929 0C5.67995 0 3.78662 1.812 3.78662 4.052C3.78662 6.28267 5.67995 8.09467 7.99929 8.09467ZM7.99929 2.05267C9.13862 2.05267 10.068 2.94667 10.068 4.052C10.068 5.148 9.13862 6.042 7.99929 6.042C6.85995 6.042 5.93062 5.148 5.93062 4.052C5.92995 2.946 6.85929 2.05267 7.99929 2.05267Z" fill="#1E222E"/>
</g>
<defs>
<clipPath id="clip0_4003_1952">
<rect width="16" height="16" fill="white"/>
</clipPath>
</defs>
</svg>
