<svg width="20" height="20" viewBox="0 0 20 20" fill="none" xmlns="http://www.w3.org/2000/svg">
<g clip-path="url(#clip0_5816_393)">
<path d="M13.7511 0C12.6849 0.0737496 11.4387 0.756246 10.7124 1.64499C10.0499 2.45124 9.50492 3.64873 9.71741 4.81247C10.8824 4.84872 12.0862 4.14998 12.7836 3.24623C13.4361 2.40499 13.9299 1.21499 13.7511 0Z" fill="#1E222E"/>
<path d="M17.9609 6.71038C16.9372 5.42664 15.4984 4.68164 14.1397 4.68164C12.3459 4.68164 11.5872 5.54039 10.3409 5.54039C9.05595 5.54039 8.07971 4.68414 6.52847 4.68414C5.00473 4.68414 3.38224 5.61538 2.35349 7.20788C0.907251 9.45036 1.15475 13.6666 3.49849 17.2578C4.33723 18.5428 5.45722 19.9878 6.92222 20.0003C8.22596 20.0128 8.59346 19.1641 10.3597 19.1553C12.1259 19.1453 12.4609 20.0115 13.7622 19.9978C15.2284 19.9866 16.4097 18.3853 17.2484 17.1003C17.8497 16.1791 18.0734 15.7153 18.5396 14.6753C15.1484 13.3841 14.6047 8.56162 17.9609 6.71038Z" fill="#1E222E"/>
</g>
<defs>
<clipPath id="clip0_5816_393">
<rect width="20" height="20" fill="white"/>
</clipPath>
</defs>
</svg>
