<svg width="170" height="36" viewBox="0 0 170 36" fill="none" xmlns="http://www.w3.org/2000/svg">
<g clip-path="url(#clip0_5816_369)">
<path fill-rule="evenodd" clip-rule="evenodd" d="M0.623721 18C0.623721 8.42405 8.39625 0.616677 17.944 0.616677C27.5037 0.616677 35.2762 8.41241 35.2762 18C35.2762 27.5876 27.5037 35.3833 17.944 35.3833C8.39625 35.3833 0.623721 27.5876 0.623721 18ZM0 18C0 27.925 8.0484 36 17.944 36C27.8396 36 35.888 27.925 35.888 18C35.8999 8.07498 27.8396 0 17.944 0C8.0484 0 0 8.07498 0 18Z" fill="#4F6AE8"/>
<path fill-rule="evenodd" clip-rule="evenodd" d="M29.3629 16.1731C29.231 16.2895 29.087 16.4058 28.9191 16.5222C27.9236 17.2901 26.3643 17.8952 24.1932 18.4769C19.6832 19.687 16.4207 19.8732 12.6904 20.7808C11.9707 20.9553 11.215 21.1996 10.5073 21.4905C11.215 21.8396 11.9587 22.1654 12.7264 22.4563C14.2377 22.0257 14.9574 21.8279 17.1524 21.4556C17.98 21.316 20.5469 20.8622 22.418 20.4666C25.7645 19.7568 30.6703 18.2093 29.3629 16.1731ZM27.2039 11.9495C26.4962 11.6237 25.5966 11.3095 24.649 11.0535C24.2292 11.391 23.7254 11.6935 23.0297 11.9611C24.2052 12.1705 25.1048 12.4963 26.0884 12.7872C26.2803 12.8803 27.0839 12.124 27.2039 11.9495ZM10.7952 16.4407C15.1733 15.1492 19.7672 14.7536 24.4211 13.5086C22.5979 13.0199 21.6024 12.8105 19.6832 13.0316C16.8885 13.3574 13.8179 13.974 11.191 14.7536C10.1595 15.0561 4.73792 16.6036 6.29723 18.7562C6.29723 18.7911 7.23281 17.4879 10.7952 16.4407ZM7.77257 23.8525C7.76057 24.2597 8.01246 24.6088 8.54022 25.051C8.61219 24.8299 8.70815 24.6786 8.86408 24.4692C8.49225 24.2714 8.12041 24.0619 7.77257 23.8525ZM9.82365 23.6431C10.1475 23.4453 10.5433 23.2475 10.9991 23.0729C10.3754 22.8169 9.73969 22.5377 9.09198 22.2352C8.79211 22.4213 8.54022 22.6075 8.32432 22.817C8.8281 23.0962 9.31988 23.3755 9.82365 23.6431ZM26.6521 14.3115C25.7645 14.7187 24.5051 15.1492 22.6819 15.603C21.1946 15.9753 17.5722 16.4989 13.6739 17.3483C12.4385 17.6159 9.10397 18.4071 7.46071 19.8034C7.9165 20.1757 8.20437 20.2688 8.70815 20.548C9.39184 20.1175 10.3034 19.6987 11.6828 19.3263C14.0698 18.6864 15.857 18.4071 18.004 18.0697C20.139 17.7323 24.1452 16.8829 26.3763 16.0917C27.0959 15.8241 27.7676 15.4983 28.2714 15.1027C28.1275 14.9398 26.7001 14.2533 26.6521 14.3115ZM27.9475 13.5202C28.3794 13.7413 28.7752 13.8926 29.159 14.1602C29.4349 13.6366 29.267 13.2992 28.6912 12.8105C28.4753 13.0781 28.2114 13.3108 27.9475 13.5202ZM7.55666 21.4556C7.17284 21.2345 6.89696 21.0833 6.5731 20.8506C6.39318 21.2345 6.72903 21.665 7.07688 21.8628C7.23281 21.7116 7.40073 21.5836 7.55666 21.4556ZM26.1963 9.31986C26.1124 9.62238 25.8005 9.95981 25.5726 10.2042C26.2323 10.3787 26.892 10.623 27.5277 10.8557C27.4558 10.274 26.7721 9.70383 26.1963 9.31986ZM5.58954 13.0665C10.1715 10.0529 15.2452 8.29594 23.8454 9.78528C24.3252 9.50603 24.5891 9.25005 24.709 8.67991C22.562 7.90034 20.235 7.63272 17.2243 7.67926C14.5136 7.74908 9.64373 8.76136 7.05289 10.3089L7.84454 9.31986C9.66772 8.2494 14.4056 6.82988 17.956 6.76007C20.4629 6.71352 21.7583 6.85315 24.733 7.65599C24.4811 7.14403 23.8574 6.88806 22.9578 6.48082C20.0791 5.17765 14.6935 5.06129 10.2794 7.00441C10.8432 6.64371 11.383 6.29465 12.1026 5.96886C13.554 5.30564 15.9409 4.65405 18.9156 4.7006C21.2905 4.7355 24.1213 5.57325 25.8485 7.2953C26.1364 7.63272 26.3043 7.99342 26.3763 8.28431C27.7436 8.98243 28.5353 9.63401 28.9911 10.402C29.171 10.7859 29.255 11.2281 29.171 11.7051C29.7347 12.0542 30.0106 12.3334 30.2865 12.7058C30.4904 13.0199 30.6463 13.3806 30.6823 13.7064C30.7303 14.1369 30.7783 14.6256 30.3345 15.1841C30.8143 15.4168 31.1741 16.0684 31.2341 16.3593C31.45 17.3948 30.7903 18.3955 29.9027 19.1867C28.8951 20.071 26.6761 21.1182 24.8649 21.5836C21.2665 22.4912 18.1 22.8751 15.5691 23.3405C16.6966 23.6082 18.2319 23.9805 20.7508 23.9805C26.1124 23.9805 30.8503 21.4323 30.8503 21.4323C30.8503 21.4323 30.7423 21.7698 30.6343 22.0606C27.2279 24.1318 21.8063 25.0044 19.5033 24.8997C17.1524 24.795 15.1733 24.4459 13.2421 23.8409C12.6424 24.0038 12.0666 24.1899 11.5029 24.4343C14.4536 25.7723 16.6726 26.0749 19.1915 26.261C21.7583 26.4472 26.0044 25.8305 29.6028 24.5274C29.4349 24.6903 29.3509 24.9462 29.183 25.1091C27.3478 26.0749 23.4616 27.0522 21.5064 27.1221C19.5633 27.2035 17.2004 27.1337 15.1373 26.7381C13.3621 26.4007 11.9227 25.8305 10.3994 25.1673C10.1235 25.3651 9.97958 25.6327 9.9316 25.9236C15.833 29.0186 21.3745 29.0884 27.6717 27.1221L27.0959 27.6806C20.163 30.4963 14.7415 29.4026 10.5553 27.378C10.4234 27.3199 10.2555 27.25 10.1355 27.1686C10.5193 27.8435 13.7219 30.1938 17.3083 30.4847C19.7792 30.6825 22.7899 30.2636 24.5771 29.5422L23.5335 30.0891C22.6699 30.5196 20.3789 31.4853 17.1644 31.2759C12.8943 30.985 10.4834 29.0884 9.40384 28.0994C8.90006 27.634 8.67217 27.0988 8.51623 26.4356C7.54467 25.9236 6.94494 25.4 6.44116 24.6204C6.1413 24.155 6.20127 23.6431 6.27324 23.2009C6.29723 23.0613 6.33321 22.9333 6.38119 22.8053C5.9134 22.4679 5.44561 22.1072 5.2417 21.7465C4.82189 20.9786 5.07377 20.327 5.37364 19.815C5.12175 19.5241 4.88186 19.2332 4.77391 18.9424C4.66596 18.6166 4.64197 18.2791 4.67795 17.9068C4.76191 17.2669 5.09776 16.6734 5.54156 16.1615C6.47715 15.0794 7.94049 14.2416 10.4594 13.4039C12.9183 12.5894 13.9138 12.4614 15.773 12.0309C17.944 11.5306 20.5349 11.3677 22.7059 10.6114C16.6486 9.55257 10.3634 10.5183 5.2417 14.0555L5.58954 13.0665Z" fill="#4F6AE8"/>
<path d="M58.4979 14.8702L59.1816 19.6756H57.8022L58.4979 14.8702ZM53.0763 25.8657H56.7826L57.2264 23.143H59.7693L60.2131 25.8657H63.9075L60.7888 10.1113H56.2069L53.0763 25.8657Z" fill="#4F6AE8"/>
<path d="M67.4098 16.2082C67.9976 16.2082 69.0891 15.8243 69.0891 14.6607C69.0891 13.2878 67.8296 13.2063 67.4818 13.2063C67.062 13.2063 66.2703 13.2645 65.4787 13.6484L65.4307 10.2393C66.6662 9.91348 67.5658 9.83203 68.6093 9.83203C71.584 9.83203 72.9274 11.9264 72.9274 13.9626C72.9274 15.9523 71.7759 17.1623 70.6724 17.6278V17.779C71.7279 18.1165 73.1673 19.152 73.1673 21.5605C73.1673 24.5276 71.0922 26.1682 68.4534 26.1682C67.038 26.1682 66.1144 25.9587 64.9989 25.3537L65.0589 22.0841C66.0784 22.5263 66.7741 22.5612 67.4818 22.5612C68.6453 22.5612 69.1251 21.7002 69.1251 21.0602C69.1251 20.1759 68.5613 19.5825 67.3259 19.5825H65.8505V16.2082H67.4098Z" fill="#4F6AE8"/>
<path d="M74.8826 10.1113H84.8261V25.8657H81.1798V13.8928H78.5289V25.8657H74.8826V10.1113Z" fill="#4F6AE8"/>
<path d="M90.5595 13.5787H91.4231C92.2507 13.5787 92.7665 14.079 92.7665 15.3822C92.7665 17.0926 91.8909 17.209 91.4231 17.209H90.5595V13.5787ZM86.9131 25.8657H90.5595V20.6647H91.7829C95.3933 20.6647 96.5088 17.4184 96.5088 15.3473C96.5088 13.3111 95.2374 10.0997 91.7829 10.1114H86.9131V25.8657Z" fill="#4F6AE8"/>
<path d="M103.25 22.2474C101.966 22.2474 101.307 20.7464 101.307 17.9655C101.307 15.1847 101.966 13.6837 103.25 13.6837C104.533 13.6837 105.205 15.1847 105.205 17.9655C105.205 20.7464 104.533 22.2474 103.25 22.2474ZM103.25 26.0521C107.568 26.0521 109.031 22.0147 109.031 17.9655C109.031 13.928 107.568 9.87891 103.25 9.87891C98.9317 9.87891 97.4684 13.928 97.4684 17.9655C97.4804 22.0147 98.9317 26.0521 103.25 26.0521Z" fill="#4F6AE8"/>
<path d="M128.475 22.7125V19.1288H129.002C129.434 19.1288 130.586 19.1521 130.586 20.7694C130.586 22.4332 129.434 22.7125 129.002 22.7125H128.475ZM124.912 25.8657H129.266C130.202 25.8657 134.148 25.4701 134.16 20.6996C134.16 16.6737 131.101 15.9756 129.134 15.9756H128.487V13.8928H133.308V10.1113H124.912V25.8657Z" fill="#4F6AE8"/>
<path d="M147.27 10.1113H150.845V15.7778H153.387V10.1113H156.962V25.8657H153.387V19.5593H150.845V25.8657H147.27V10.1113Z" fill="#4F6AE8"/>
<path d="M159.349 10.1113H162.923L162.911 15.7778H163.691L165.73 10.1113H169.616L166.833 17.5813L170 25.8657H165.802L163.763 19.5244H162.911L162.923 25.8657H159.349V10.1113Z" fill="#4F6AE8"/>
<path d="M46.0234 10.1113H53.4961V14.0325H49.7298V25.8657H46.0234V10.1113Z" fill="#4F6AE8"/>
<path d="M110.782 10.1113H113.877L116.612 13.823L119.359 10.1113H122.453V25.8657H118.807V16.2548L116.612 19.0124L114.429 16.2548V25.8657H110.782V10.1113Z" fill="#4F6AE8"/>
<path d="M140.289 14.8937L140.973 19.6991H139.594L140.289 14.8937ZM134.868 25.8891H138.562L139.006 23.1664H141.549L141.992 25.8891H145.687L142.556 10.1348H137.974L134.868 25.8891Z" fill="#4F6AE8"/>
</g>
<defs>
<clipPath id="clip0_5816_369">
<rect width="170" height="36" fill="white"/>
</clipPath>
</defs>
</svg>
