<svg xmlns="http://www.w3.org/2000/svg">
    <symbol id="icon-logo" viewBox="0 0 420 84">
        <path d="M0 73.5V0H63V10.5H21V31.5H63V42H73.5V63H63V73.5H0ZM21 63H52.5V42H21V63ZM84 73.5V0H157.5V10.5H105V31.5H147V42H105V63H157.5V73.5H84ZM189 73.5V63H178.5V52.5H168V21H178.5V10.5H189V0H231V10.5H241.5V21H220.5V10.5H199.5V21H189V52.5H199.5V63H220.5V52.5H241.5V63H231V73.5H189Z" fill="#87F29A"/>
        <path d="M262.5 73.5V63H283.5V10.5H262.5V0H325.5V10.5H304.5V63H325.5V73.5H262.5ZM367.5 73.5V10.5H346.5V0H409.5V10.5H388.5V73.5H367.5Z" fill="white"/>
    </symbol>
    <symbol id="icon-mail" viewBox="0 0 24 24">
        <path d="M21 3C21.5523 3 22 3.44772 22 4V20.0066C22 20.5552 21.5447 21 21.0082 21H2.9918C2.44405 21 2 20.5551 2 20.0066V19H20V7.3L12 14.5L2 5.5V4C2 3.44772 2.44772 3 3 3H21ZM8 15V17H0V15H8ZM5 10V12H0V10H5ZM19.5659 5H4.43414L12 11.8093L19.5659 5Z"
              fill="currentColor"/>
    </symbol>
    <symbol id="icon-comment" viewBox="0 0 24 24" fill="none" xmlns="http://www.w3.org/2000/svg">
        <path d="M6.45455 19L2 22.5V4C2 3.44772 2.44772 3 3 3H21C21.5523 3 22 3.44772 22 4V18C22 18.5523 21.5523 19 21 19H6.45455ZM5.76282 17H20V5H4V18.3851L5.76282 17ZM11 10H13V12H11V10ZM7 10H9V12H7V10ZM15 10H17V12H15V10Z" fill="currentColor" fill-opacity="0.8"/>
    </symbol>
    <symbol id="icon-phone" viewBox="0 0 24 24" fill="none" xmlns="http://www.w3.org/2000/svg">
        <path d="M9.36556 10.6821C10.302 12.3288 11.6712 13.698 13.3179 14.6344L14.2024 13.3961C14.4965 12.9845 15.0516 12.8573 15.4956 13.0998C16.9024 13.8683 18.4571 14.3353 20.0789 14.4637C20.599 14.5049 21 14.9389 21 15.4606V19.9234C21 20.4361 20.6122 20.8657 20.1022 20.9181C19.5723 20.9726 19.0377 21 18.5 21C9.93959 21 3 14.0604 3 5.5C3 4.96227 3.02742 4.42771 3.08189 3.89776C3.1343 3.38775 3.56394 3 4.07665 3H8.53942C9.0611 3 9.49513 3.40104 9.5363 3.92109C9.66467 5.54288 10.1317 7.09764 10.9002 8.50444C11.1427 8.9484 11.0155 9.50354 10.6039 9.79757L9.36556 10.6821ZM6.84425 10.0252L8.7442 8.66809C8.20547 7.50514 7.83628 6.27183 7.64727 5H5.00907C5.00303 5.16632 5 5.333 5 5.5C5 12.9558 11.0442 19 18.5 19C18.667 19 18.8337 18.997 19 18.9909V16.3527C17.7282 16.1637 16.4949 15.7945 15.3319 15.2558L13.9748 17.1558C13.4258 16.9425 12.8956 16.6915 12.3874 16.4061L12.3293 16.373C10.3697 15.2587 8.74134 13.6303 7.627 11.6707L7.59394 11.6126C7.30849 11.1044 7.05754 10.5742 6.84425 10.0252Z" fill="currentColor" fill-opacity="0.8"/>
    </symbol>
    <symbol id="icon-check" viewBox="0 0 17 15" fill="none" xmlns="http://www.w3.org/2000/svg">
        <path d="M1 7.41667L6.6 12L15 1" stroke="black" stroke-width="3"/>
    </symbol>
    <symbol id="icon-check-2" viewBox="0 0 13 9" fill="none" xmlns="http://www.w3.org/2000/svg">
        <path d="M5.00259 8.99993L0.759979 4.75733L2.1742 3.34303L5.00259 6.17153L10.6595 0.514648L12.0737 1.92886L5.00259 8.99993Z" fill="currentColor"/>
    </symbol>
    <symbol id="icon-i" viewBox="0 0 16 16" fill="none" xmlns="http://www.w3.org/2000/svg">
        <path d="M8.00016 14.6666C4.31826 14.6666 1.3335 11.6818 1.3335 7.99992C1.3335 4.31802 4.31826 1.33325 8.00016 1.33325C11.682 1.33325 14.6668 4.31802 14.6668 7.99992C14.6668 11.6818 11.682 14.6666 8.00016 14.6666ZM8.00016 13.3333C10.9457 13.3333 13.3335 10.9455 13.3335 7.99992C13.3335 5.0544 10.9457 2.66659 8.00016 2.66659C5.05464 2.66659 2.66683 5.0544 2.66683 7.99992C2.66683 10.9455 5.05464 13.3333 8.00016 13.3333ZM7.3335 4.66659H8.66683V5.99992H7.3335V4.66659ZM7.3335 7.33325H8.66683V11.3333H7.3335V7.33325Z" fill="currentColor"/>
    </symbol>
    <symbol id="icon-send" viewBox="0 0 24 24" fill="none" xmlns="http://www.w3.org/2000/svg">
        <path d="M1.94582 10.3153C1.42328 10.1411 1.41915 9.8601 1.95657 9.68096L21.0428 3.31889C21.5713 3.14273 21.8744 3.43854 21.7263 3.95682L16.2731 23.0431C16.1221 23.5715 15.8175 23.5899 15.5942 23.0875L11.9997 14.9999L17.9997 6.99993L9.99967 12.9999L1.94582 10.3153Z" fill="currentColor"/>
    </symbol>




</svg>
