<svg width="170" height="36" viewBox="0 0 170 36" fill="none" xmlns="http://www.w3.org/2000/svg">
<g clip-path="url(#clip0_1894_2426)">
<path fill-rule="evenodd" clip-rule="evenodd" d="M0.623721 18C0.623721 8.42405 8.39625 0.616677 17.944 0.616677C27.5037 0.616677 35.2762 8.41241 35.2762 18C35.2762 27.5876 27.5037 35.3833 17.944 35.3833C8.39625 35.3833 0.623721 27.5876 0.623721 18ZM0 18C0 27.925 8.0484 36 17.944 36C27.8396 36 35.888 27.925 35.888 18C35.8999 8.07498 27.8396 0 17.944 0C8.0484 0 0 8.07498 0 18Z" fill="white"/>
<path fill-rule="evenodd" clip-rule="evenodd" d="M29.3629 16.1732C29.231 16.2896 29.087 16.406 28.9191 16.5223C27.9236 17.2902 26.3643 17.8953 24.1932 18.4771C19.6832 19.6871 16.4207 19.8733 12.6904 20.7809C11.9707 20.9554 11.215 21.1997 10.5073 21.4906C11.215 21.8397 11.9587 22.1655 12.7264 22.4564C14.2377 22.0259 14.9574 21.8281 17.1524 21.4557C17.98 21.3161 20.5469 20.8623 22.418 20.4667C25.7645 19.757 30.6703 18.2094 29.3629 16.1732ZM27.2039 11.9496C26.4962 11.6238 25.5966 11.3096 24.649 11.0537C24.2292 11.3911 23.7254 11.6936 23.0297 11.9612C24.2052 12.1707 25.1048 12.4965 26.0884 12.7873C26.2803 12.8804 27.0839 12.1241 27.2039 11.9496ZM10.7952 16.4409C15.1733 15.1493 19.7672 14.7537 24.4211 13.5087C22.5979 13.02 21.6024 12.8106 19.6832 13.0317C16.8885 13.3575 13.8179 13.9742 11.191 14.7537C10.1595 15.0562 4.73792 16.6038 6.29723 18.7563C6.29723 18.7912 7.23281 17.488 10.7952 16.4409ZM7.77257 23.8526C7.76057 24.2599 8.01246 24.6089 8.54022 25.0511C8.61219 24.83 8.70815 24.6787 8.86408 24.4693C8.49225 24.2715 8.12041 24.0621 7.77257 23.8526ZM9.82365 23.6432C10.1475 23.4454 10.5433 23.2476 10.9991 23.0731C10.3754 22.8171 9.73969 22.5378 9.09198 22.2353C8.79211 22.4215 8.54022 22.6076 8.32432 22.8171C8.8281 23.0963 9.31988 23.3756 9.82365 23.6432ZM26.6521 14.3116C25.7645 14.7188 24.5051 15.1493 22.6819 15.6031C21.1946 15.9754 17.5722 16.499 13.6739 17.3484C12.4385 17.616 9.10397 18.4072 7.46071 19.8035C7.9165 20.1758 8.20437 20.2689 8.70815 20.5482C9.39184 20.1177 10.3034 19.6988 11.6828 19.3264C14.0698 18.6865 15.857 18.4072 18.004 18.0698C20.139 17.7324 24.1452 16.883 26.3763 16.0918C27.0959 15.8242 27.7676 15.4984 28.2714 15.1028C28.1275 14.9399 26.7001 14.2534 26.6521 14.3116ZM27.9475 13.5204C28.3794 13.7414 28.7752 13.8927 29.159 14.1603C29.4349 13.6367 29.267 13.2993 28.6912 12.8106C28.4753 13.0782 28.2114 13.3109 27.9475 13.5204ZM7.55666 21.4557C7.17284 21.2347 6.89696 21.0834 6.5731 20.8507C6.39318 21.2347 6.72903 21.6652 7.07688 21.863C7.23281 21.7117 7.40073 21.5837 7.55666 21.4557ZM26.1963 9.31998C26.1124 9.6225 25.8005 9.95993 25.5726 10.2043C26.2323 10.3788 26.892 10.6231 27.5277 10.8559C27.4558 10.2741 26.7721 9.70395 26.1963 9.31998ZM5.58954 13.0666C10.1715 10.053 15.2452 8.29606 23.8454 9.7854C24.3252 9.50615 24.5891 9.25017 24.709 8.68003C22.562 7.90046 20.235 7.63284 17.2243 7.67939C14.5136 7.7492 9.64373 8.76148 7.05289 10.309L7.84454 9.31998C9.66772 8.24952 14.4056 6.83 17.956 6.76019C20.4629 6.71365 21.7583 6.85327 24.733 7.65612C24.4811 7.14416 23.8574 6.88818 22.9578 6.48094C20.0791 5.17777 14.6935 5.06142 10.2794 7.00453C10.8432 6.64383 11.383 6.29477 12.1026 5.96898C13.554 5.30576 15.9409 4.65418 18.9156 4.70072C21.2905 4.73562 24.1213 5.57337 25.8485 7.29542C26.1364 7.63284 26.3043 7.99354 26.3763 8.28443C27.7436 8.98255 28.5353 9.63414 28.9911 10.4021C29.171 10.786 29.255 11.2282 29.171 11.7052C29.7347 12.0543 30.0106 12.3336 30.2865 12.7059C30.4904 13.02 30.6463 13.3807 30.6823 13.7065C30.7303 14.137 30.7783 14.6257 30.3345 15.1842C30.8143 15.4169 31.1741 16.0685 31.2341 16.3594C31.45 17.395 30.7903 18.3956 29.9027 19.1868C28.8951 20.0711 26.6761 21.1183 24.8649 21.5837C21.2665 22.4913 18.1 22.8752 15.5691 23.3407C16.6966 23.6083 18.2319 23.9806 20.7508 23.9806C26.1124 23.9806 30.8503 21.4325 30.8503 21.4325C30.8503 21.4325 30.7423 21.7699 30.6343 22.0608C27.2279 24.1319 21.8063 25.0045 19.5033 24.8998C17.1524 24.7951 15.1733 24.446 13.2421 23.841C12.6424 24.0039 12.0666 24.1901 11.5029 24.4344C14.4536 25.7725 16.6726 26.075 19.1915 26.2612C21.7583 26.4473 26.0044 25.8306 29.6028 24.5275C29.4349 24.6904 29.3509 24.9464 29.183 25.1093C27.3478 26.075 23.4616 27.0524 21.5064 27.1222C19.5633 27.2036 17.2004 27.1338 15.1373 26.7382C13.3621 26.4008 11.9227 25.8306 10.3994 25.1674C10.1235 25.3652 9.97958 25.6328 9.9316 25.9237C15.833 29.0188 21.3745 29.0886 27.6717 27.1222L27.0959 27.6807C20.163 30.4965 14.7415 29.4027 10.5553 27.3782C10.4234 27.32 10.2555 27.2502 10.1355 27.1687C10.5193 27.8436 13.7219 30.1939 17.3083 30.4848C19.7792 30.6826 22.7899 30.2637 24.5771 29.5423L23.5335 30.0892C22.6699 30.5197 20.3789 31.4855 17.1644 31.276C12.8943 30.9851 10.4834 29.0886 9.40384 28.0996C8.90006 27.6341 8.67217 27.0989 8.51623 26.4357C7.54467 25.9237 6.94494 25.4001 6.44116 24.6206C6.1413 24.1551 6.20127 23.6432 6.27324 23.201C6.29723 23.0614 6.33321 22.9334 6.38119 22.8054C5.9134 22.468 5.44561 22.1073 5.2417 21.7466C4.82189 20.9787 5.07377 20.3271 5.37364 19.8151C5.12175 19.5242 4.88186 19.2334 4.77391 18.9425C4.66596 18.6167 4.64197 18.2793 4.67795 17.9069C4.76191 17.267 5.09776 16.6736 5.54156 16.1616C6.47715 15.0795 7.94049 14.2418 10.4594 13.404C12.9183 12.5895 13.9138 12.4615 15.773 12.031C17.944 11.5307 20.5349 11.3678 22.7059 10.6115C16.6486 9.55269 10.3634 10.5184 5.2417 14.0556L5.58954 13.0666Z" fill="white"/>
<path d="M58.4977 14.8701L59.1814 19.6755H57.8021L58.4977 14.8701ZM53.0762 25.8656H56.7825L57.2263 23.1429H59.7692L60.213 25.8656H63.9073L60.7887 10.1112H56.2068L53.0762 25.8656Z" fill="white"/>
<path d="M67.4099 16.2081C67.9977 16.2081 69.0892 15.8242 69.0892 14.6606C69.0892 13.2876 67.8298 13.2062 67.4819 13.2062C67.0621 13.2062 66.2705 13.2644 65.4788 13.6483L65.4308 10.2391C66.6663 9.91336 67.5659 9.83191 68.6094 9.83191C71.5841 9.83191 72.9275 11.9263 72.9275 13.9625C72.9275 15.9521 71.776 17.1622 70.6725 17.6276V17.7789C71.728 18.1163 73.1674 19.1519 73.1674 21.5604C73.1674 24.5274 71.0923 26.168 68.4535 26.168C67.0381 26.168 66.1145 25.9586 64.999 25.3536L65.059 22.084C66.0785 22.5262 66.7742 22.5611 67.4819 22.5611C68.6454 22.5611 69.1252 21.7 69.1252 21.0601C69.1252 20.1758 68.5614 19.5824 67.326 19.5824H65.8506V16.2081H67.4099Z" fill="white"/>
<path d="M74.8826 10.1112H84.8261V25.8656H81.1798V13.8927H78.5289V25.8656H74.8826V10.1112Z" fill="white"/>
<path d="M90.5595 13.5786H91.4231C92.2507 13.5786 92.7665 14.0789 92.7665 15.3821C92.7665 17.0925 91.8909 17.2088 91.4231 17.2088H90.5595V13.5786ZM86.9131 25.8656H90.5595V20.6646H91.7829C95.3933 20.6646 96.5088 17.4183 96.5088 15.3472C96.5088 13.311 95.2374 10.0996 91.7829 10.1112H86.9131V25.8656Z" fill="white"/>
<path d="M103.25 22.2469C101.966 22.2469 101.307 20.7459 101.307 17.965C101.307 15.1842 101.966 13.6832 103.25 13.6832C104.533 13.6832 105.205 15.1842 105.205 17.965C105.205 20.7459 104.533 22.2469 103.25 22.2469ZM103.25 26.0517C107.568 26.0517 109.031 22.0142 109.031 17.965C109.031 13.9275 107.568 9.87842 103.25 9.87842C98.9319 9.87842 97.4685 13.9275 97.4685 17.965C97.4805 22.0142 98.9319 26.0517 103.25 26.0517Z" fill="white"/>
<path d="M128.475 22.7124V19.1287H129.002C129.434 19.1287 130.586 19.1519 130.586 20.7693C130.586 22.4331 129.434 22.7124 129.002 22.7124H128.475ZM124.912 25.8656H129.266C130.202 25.8656 134.148 25.47 134.16 20.6994C134.16 16.6736 131.101 15.9755 129.134 15.9755H128.487V13.8927H133.308V10.1112H124.912V25.8656Z" fill="white"/>
<path d="M147.27 10.1112H150.845V15.7777H153.388V10.1112H156.962V25.8656H153.388V19.5592H150.845V25.8656H147.27V10.1112Z" fill="white"/>
<path d="M159.349 10.1112H162.923L162.911 15.7777H163.691L165.73 10.1112H169.616L166.834 17.5811L170 25.8656H165.802L163.763 19.5243H162.911L162.923 25.8656H159.349V10.1112Z" fill="white"/>
<path d="M46.0234 10.1112H53.4961V14.0323H49.7298V25.8656H46.0234V10.1112Z" fill="white"/>
<path d="M110.782 10.1112H113.877L116.612 13.8229L119.359 10.1112H122.453V25.8656H118.807V16.2547L116.612 19.0123L114.429 16.2547V25.8656H110.782V10.1112Z" fill="white"/>
<path d="M140.289 14.8933L140.973 19.6987H139.594L140.289 14.8933ZM134.868 25.8888H138.562L139.006 23.1661H141.549L141.992 25.8888H145.687L142.556 10.1344H137.974L134.868 25.8888Z" fill="white"/>
</g>
<defs>
<clipPath id="clip0_1894_2426">
<rect width="170" height="36" fill="white"/>
</clipPath>
</defs>
</svg>
