<svg width="36" height="36" viewBox="0 0 36 36" fill="none" xmlns="http://www.w3.org/2000/svg">
	<g clip-path="url(#clip0_1_298)">
		<path fill-rule="evenodd" clip-rule="evenodd"
			d="M0.623721 18C0.623721 8.42405 8.39625 0.616677 17.944 0.616677C27.5037 0.616677 35.2762 8.41241 35.2762 18C35.2762 27.5876 27.5037 35.3833 17.944 35.3833C8.39625 35.3833 0.623721 27.5876 0.623721 18ZM0 18C0 27.925 8.0484 36 17.944 36C27.8396 36 35.888 27.925 35.888 18C35.8999 8.07498 27.8396 0 17.944 0C8.0484 0 0 8.07498 0 18Z"
			fill="white" />
		<path fill-rule="evenodd" clip-rule="evenodd"
			d="M29.3629 16.1732C29.2309 16.2896 29.087 16.406 28.9191 16.5223C27.9235 17.2902 26.3642 17.8953 24.1932 18.4771C19.6832 19.6871 16.4206 19.8733 12.6903 20.7809C11.9706 20.9554 11.215 21.1997 10.5073 21.4906C11.215 21.8397 11.9586 22.1655 12.7263 22.4564C14.2376 22.0259 14.9573 21.8281 17.1523 21.4557C17.9799 21.3161 20.5468 20.8623 22.418 20.4667C25.7645 19.757 30.6703 18.2094 29.3629 16.1732ZM27.2038 11.9496C26.4961 11.6238 25.5965 11.3096 24.649 11.0537C24.2291 11.3911 23.7254 11.6936 23.0297 11.9612C24.2052 12.1707 25.1048 12.4965 26.0883 12.7873C26.2802 12.8804 27.0839 12.1241 27.2038 11.9496ZM10.7952 16.4409C15.1732 15.1493 19.7671 14.7537 24.4211 13.5087C22.5979 13.02 21.6023 12.8106 19.6832 13.0317C16.8884 13.3575 13.8178 13.9742 11.191 14.7537C10.1594 15.0562 4.73786 16.6038 6.29717 18.7563C6.29717 18.7912 7.23275 17.488 10.7952 16.4409ZM7.77251 23.8526C7.76051 24.2599 8.0124 24.6089 8.54016 25.0511C8.61213 24.83 8.70809 24.6787 8.86402 24.4693C8.49218 24.2715 8.12035 24.0621 7.77251 23.8526ZM9.82359 23.6432C10.1474 23.4454 10.5433 23.2476 10.9991 23.0731C10.3753 22.8171 9.73963 22.5378 9.09192 22.2353C8.79205 22.4215 8.54016 22.6076 8.32426 22.8171C8.82803 23.0963 9.31981 23.3756 9.82359 23.6432ZM26.6521 14.3116C25.7645 14.7188 24.505 15.1493 22.6818 15.6031C21.1945 15.9754 17.5721 16.499 13.6739 17.3484C12.4384 17.616 9.10391 18.4072 7.46065 19.8035C7.91644 20.1758 8.20431 20.2689 8.70809 20.5482C9.39178 20.1177 10.3034 19.6988 11.6828 19.3264C14.0697 18.6865 15.8569 18.4072 18.0039 18.0698C20.139 17.7324 24.1452 16.883 26.3762 16.0918C27.0959 15.8242 27.7676 15.4984 28.2713 15.1028C28.1274 14.9399 26.7 14.2534 26.6521 14.3116ZM27.9475 13.5204C28.3793 13.7414 28.7751 13.8927 29.1589 14.1603C29.4348 13.6367 29.2669 13.2993 28.6912 12.8106C28.4753 13.0782 28.2114 13.3109 27.9475 13.5204ZM7.5566 21.4557C7.17277 21.2347 6.8969 21.0834 6.57304 20.8507C6.39312 21.2347 6.72897 21.6652 7.07682 21.863C7.23275 21.7117 7.40067 21.5837 7.5566 21.4557ZM26.1963 9.31998C26.1123 9.6225 25.8004 9.95993 25.5725 10.2043C26.2323 10.3788 26.892 10.6231 27.5277 10.8559C27.4557 10.2741 26.772 9.70395 26.1963 9.31998ZM5.58948 13.0666C10.1714 10.053 15.2452 8.29606 23.8453 9.7854C24.3251 9.50615 24.589 9.25017 24.7089 8.68003C22.5619 7.90046 20.2349 7.63284 17.2243 7.67939C14.5135 7.7492 9.64367 8.76148 7.05283 10.309L7.84447 9.31998C9.66766 8.24952 14.4055 6.83 17.956 6.76019C20.4628 6.71365 21.7583 6.85327 24.7329 7.65612C24.481 7.14416 23.8573 6.88818 22.9577 6.48094C20.079 5.17777 14.6934 5.06142 10.2794 7.00453C10.8431 6.64383 11.3829 6.29477 12.1026 5.96898C13.5539 5.30576 15.9409 4.65418 18.9155 4.70072C21.2905 4.73562 24.1212 5.57337 25.8484 7.29542C26.1363 7.63284 26.3042 7.99354 26.3762 8.28443C27.7436 8.98255 28.5352 9.63414 28.991 10.4021C29.1709 10.786 29.2549 11.2282 29.1709 11.7052C29.7347 12.0543 30.0106 12.3336 30.2864 12.7059C30.4904 13.02 30.6463 13.3807 30.6823 13.7065C30.7302 14.137 30.7782 14.6257 30.3344 15.1842C30.8142 15.4169 31.174 16.0685 31.234 16.3594C31.4499 17.395 30.7902 18.3956 29.9026 19.1868C28.8951 20.0711 26.6761 21.1183 24.8649 21.5837C21.2665 22.4913 18.0999 22.8752 15.569 23.3407C16.6965 23.6083 18.2318 23.9806 20.7507 23.9806C26.1123 23.9806 30.8502 21.4325 30.8502 21.4325C30.8502 21.4325 30.7422 21.7699 30.6343 22.0608C27.2278 24.1319 21.8062 25.0045 19.5033 24.8998C17.1523 24.7951 15.1732 24.446 13.2421 23.841C12.6423 24.0039 12.0666 24.1901 11.5028 24.4344C14.4535 25.7725 16.6725 26.075 19.1914 26.2612C21.7583 26.4473 26.0044 25.8306 29.6027 24.5275C29.4348 24.6904 29.3509 24.9464 29.1829 25.1093C27.3478 26.075 23.4615 27.0524 21.5064 27.1222C19.5632 27.2036 17.2003 27.1338 15.1372 26.7382C13.362 26.4008 11.9227 25.8306 10.3993 25.1674C10.1235 25.3652 9.97952 25.6328 9.93154 25.9237C15.8329 29.0188 21.3744 29.0886 27.6716 27.1222L27.0959 27.6807C20.163 30.4965 14.7414 29.4027 10.5553 27.3782C10.4233 27.32 10.2554 27.2502 10.1354 27.1687C10.5193 27.8436 13.7218 30.1939 17.3082 30.4848C19.7791 30.6826 22.7898 30.2637 24.577 29.5423L23.5335 30.0892C22.6698 30.5197 20.3789 31.4855 17.1643 31.276C12.8942 30.9851 10.4833 29.0886 9.40378 28.0996C8.9 27.6341 8.6721 27.0989 8.51617 26.4357C7.54461 25.9237 6.94488 25.4001 6.4411 24.6206C6.14124 24.1551 6.20121 23.6432 6.27318 23.201C6.29717 23.0614 6.33315 22.9334 6.38113 22.8054C5.91334 22.468 5.44555 22.1073 5.24164 21.7466C4.82183 20.9787 5.07371 20.3271 5.37358 19.8151C5.12169 19.5242 4.8818 19.2334 4.77385 18.9425C4.66589 18.6167 4.64191 18.2793 4.67789 17.9069C4.76185 17.267 5.0977 16.6736 5.5415 16.1616C6.47709 15.0795 7.94043 14.2418 10.4593 13.404C12.9182 12.5895 13.9138 12.4615 15.7729 12.031C17.944 11.5307 20.5348 11.3678 22.7058 10.6115C16.6485 9.55269 10.3633 10.5184 5.24164 14.0556L5.58948 13.0666Z"
			fill="white" />
	</g>
	<defs>
		<clipPath id="clip0_1_298">
			<rect width="36" height="36" fill="white" />
		</clipPath>
	</defs>
</svg>