<svg xmlns="http://www.w3.org/2000/svg">
  <symbol fill="none" xmlns="http://www.w3.org/2000/svg" viewBox="0 0 170 36" id="logo-large">
    <g clip-path="url(#clip0_1894_2426)">
      <path fill-rule="evenodd" clip-rule="evenodd"
        d="M0.623721 18C0.623721 8.42405 8.39625 0.616677 17.944 0.616677C27.5037 0.616677 35.2762 8.41241 35.2762 18C35.2762 27.5876 27.5037 35.3833 17.944 35.3833C8.39625 35.3833 0.623721 27.5876 0.623721 18ZM0 18C0 27.925 8.0484 36 17.944 36C27.8396 36 35.888 27.925 35.888 18C35.8999 8.07498 27.8396 0 17.944 0C8.0484 0 0 8.07498 0 18Z"
        fill="white"></path>
      <path fill-rule="evenodd" clip-rule="evenodd"
        d="M29.3629 16.1732C29.231 16.2896 29.087 16.406 28.9191 16.5223C27.9236 17.2902 26.3643 17.8953 24.1932 18.4771C19.6832 19.6871 16.4207 19.8733 12.6904 20.7809C11.9707 20.9554 11.215 21.1997 10.5073 21.4906C11.215 21.8397 11.9587 22.1655 12.7264 22.4564C14.2377 22.0259 14.9574 21.8281 17.1524 21.4557C17.98 21.3161 20.5469 20.8623 22.418 20.4667C25.7645 19.757 30.6703 18.2094 29.3629 16.1732ZM27.2039 11.9496C26.4962 11.6238 25.5966 11.3096 24.649 11.0537C24.2292 11.3911 23.7254 11.6936 23.0297 11.9612C24.2052 12.1707 25.1048 12.4965 26.0884 12.7873C26.2803 12.8804 27.0839 12.1241 27.2039 11.9496ZM10.7952 16.4409C15.1733 15.1493 19.7672 14.7537 24.4211 13.5087C22.5979 13.02 21.6024 12.8106 19.6832 13.0317C16.8885 13.3575 13.8179 13.9742 11.191 14.7537C10.1595 15.0562 4.73792 16.6038 6.29723 18.7563C6.29723 18.7912 7.23281 17.488 10.7952 16.4409ZM7.77257 23.8526C7.76057 24.2599 8.01246 24.6089 8.54022 25.0511C8.61219 24.83 8.70815 24.6787 8.86408 24.4693C8.49225 24.2715 8.12041 24.0621 7.77257 23.8526ZM9.82365 23.6432C10.1475 23.4454 10.5433 23.2476 10.9991 23.0731C10.3754 22.8171 9.73969 22.5378 9.09198 22.2353C8.79211 22.4215 8.54022 22.6076 8.32432 22.8171C8.8281 23.0963 9.31988 23.3756 9.82365 23.6432ZM26.6521 14.3116C25.7645 14.7188 24.5051 15.1493 22.6819 15.6031C21.1946 15.9754 17.5722 16.499 13.6739 17.3484C12.4385 17.616 9.10397 18.4072 7.46071 19.8035C7.9165 20.1758 8.20437 20.2689 8.70815 20.5482C9.39184 20.1177 10.3034 19.6988 11.6828 19.3264C14.0698 18.6865 15.857 18.4072 18.004 18.0698C20.139 17.7324 24.1452 16.883 26.3763 16.0918C27.0959 15.8242 27.7676 15.4984 28.2714 15.1028C28.1275 14.9399 26.7001 14.2534 26.6521 14.3116ZM27.9475 13.5204C28.3794 13.7414 28.7752 13.8927 29.159 14.1603C29.4349 13.6367 29.267 13.2993 28.6912 12.8106C28.4753 13.0782 28.2114 13.3109 27.9475 13.5204ZM7.55666 21.4557C7.17284 21.2347 6.89696 21.0834 6.5731 20.8507C6.39318 21.2347 6.72903 21.6652 7.07688 21.863C7.23281 21.7117 7.40073 21.5837 7.55666 21.4557ZM26.1963 9.31998C26.1124 9.6225 25.8005 9.95993 25.5726 10.2043C26.2323 10.3788 26.892 10.6231 27.5277 10.8559C27.4558 10.2741 26.7721 9.70395 26.1963 9.31998ZM5.58954 13.0666C10.1715 10.053 15.2452 8.29606 23.8454 9.7854C24.3252 9.50615 24.5891 9.25017 24.709 8.68003C22.562 7.90046 20.235 7.63284 17.2243 7.67939C14.5136 7.7492 9.64373 8.76148 7.05289 10.309L7.84454 9.31998C9.66772 8.24952 14.4056 6.83 17.956 6.76019C20.4629 6.71365 21.7583 6.85327 24.733 7.65612C24.4811 7.14416 23.8574 6.88818 22.9578 6.48094C20.0791 5.17777 14.6935 5.06142 10.2794 7.00453C10.8432 6.64383 11.383 6.29477 12.1026 5.96898C13.554 5.30576 15.9409 4.65418 18.9156 4.70072C21.2905 4.73562 24.1213 5.57337 25.8485 7.29542C26.1364 7.63284 26.3043 7.99354 26.3763 8.28443C27.7436 8.98255 28.5353 9.63414 28.9911 10.4021C29.171 10.786 29.255 11.2282 29.171 11.7052C29.7347 12.0543 30.0106 12.3336 30.2865 12.7059C30.4904 13.02 30.6463 13.3807 30.6823 13.7065C30.7303 14.137 30.7783 14.6257 30.3345 15.1842C30.8143 15.4169 31.1741 16.0685 31.2341 16.3594C31.45 17.395 30.7903 18.3956 29.9027 19.1868C28.8951 20.0711 26.6761 21.1183 24.8649 21.5837C21.2665 22.4913 18.1 22.8752 15.5691 23.3407C16.6966 23.6083 18.2319 23.9806 20.7508 23.9806C26.1124 23.9806 30.8503 21.4325 30.8503 21.4325C30.8503 21.4325 30.7423 21.7699 30.6343 22.0608C27.2279 24.1319 21.8063 25.0045 19.5033 24.8998C17.1524 24.7951 15.1733 24.446 13.2421 23.841C12.6424 24.0039 12.0666 24.1901 11.5029 24.4344C14.4536 25.7725 16.6726 26.075 19.1915 26.2612C21.7583 26.4473 26.0044 25.8306 29.6028 24.5275C29.4349 24.6904 29.3509 24.9464 29.183 25.1093C27.3478 26.075 23.4616 27.0524 21.5064 27.1222C19.5633 27.2036 17.2004 27.1338 15.1373 26.7382C13.3621 26.4008 11.9227 25.8306 10.3994 25.1674C10.1235 25.3652 9.97958 25.6328 9.9316 25.9237C15.833 29.0188 21.3745 29.0886 27.6717 27.1222L27.0959 27.6807C20.163 30.4965 14.7415 29.4027 10.5553 27.3782C10.4234 27.32 10.2555 27.2502 10.1355 27.1687C10.5193 27.8436 13.7219 30.1939 17.3083 30.4848C19.7792 30.6826 22.7899 30.2637 24.5771 29.5423L23.5335 30.0892C22.6699 30.5197 20.3789 31.4855 17.1644 31.276C12.8943 30.9851 10.4834 29.0886 9.40384 28.0996C8.90006 27.6341 8.67217 27.0989 8.51623 26.4357C7.54467 25.9237 6.94494 25.4001 6.44116 24.6206C6.1413 24.1551 6.20127 23.6432 6.27324 23.201C6.29723 23.0614 6.33321 22.9334 6.38119 22.8054C5.9134 22.468 5.44561 22.1073 5.2417 21.7466C4.82189 20.9787 5.07377 20.3271 5.37364 19.8151C5.12175 19.5242 4.88186 19.2334 4.77391 18.9425C4.66596 18.6167 4.64197 18.2793 4.67795 17.9069C4.76191 17.267 5.09776 16.6736 5.54156 16.1616C6.47715 15.0795 7.94049 14.2418 10.4594 13.404C12.9183 12.5895 13.9138 12.4615 15.773 12.031C17.944 11.5307 20.5349 11.3678 22.7059 10.6115C16.6486 9.55269 10.3634 10.5184 5.2417 14.0556L5.58954 13.0666Z"
        fill="white"></path>
      <path
        d="M58.4977 14.8701L59.1814 19.6755H57.8021L58.4977 14.8701ZM53.0762 25.8656H56.7825L57.2263 23.1429H59.7692L60.213 25.8656H63.9073L60.7887 10.1112H56.2068L53.0762 25.8656Z"
        fill="white"></path>
      <path
        d="M67.4099 16.2081C67.9977 16.2081 69.0892 15.8242 69.0892 14.6606C69.0892 13.2876 67.8298 13.2062 67.4819 13.2062C67.0621 13.2062 66.2705 13.2644 65.4788 13.6483L65.4308 10.2391C66.6663 9.91336 67.5659 9.83191 68.6094 9.83191C71.5841 9.83191 72.9275 11.9263 72.9275 13.9625C72.9275 15.9521 71.776 17.1622 70.6725 17.6276V17.7789C71.728 18.1163 73.1674 19.1519 73.1674 21.5604C73.1674 24.5274 71.0923 26.168 68.4535 26.168C67.0381 26.168 66.1145 25.9586 64.999 25.3536L65.059 22.084C66.0785 22.5262 66.7742 22.5611 67.4819 22.5611C68.6454 22.5611 69.1252 21.7 69.1252 21.0601C69.1252 20.1758 68.5614 19.5824 67.326 19.5824H65.8506V16.2081H67.4099Z"
        fill="white"></path>
      <path d="M74.8826 10.1112H84.8261V25.8656H81.1798V13.8927H78.5289V25.8656H74.8826V10.1112Z" fill="white"></path>
      <path
        d="M90.5595 13.5786H91.4231C92.2507 13.5786 92.7665 14.0789 92.7665 15.3821C92.7665 17.0925 91.8909 17.2088 91.4231 17.2088H90.5595V13.5786ZM86.9131 25.8656H90.5595V20.6646H91.7829C95.3933 20.6646 96.5088 17.4183 96.5088 15.3472C96.5088 13.311 95.2374 10.0996 91.7829 10.1112H86.9131V25.8656Z"
        fill="white"></path>
      <path
        d="M103.25 22.2469C101.966 22.2469 101.307 20.7459 101.307 17.965C101.307 15.1842 101.966 13.6832 103.25 13.6832C104.533 13.6832 105.205 15.1842 105.205 17.965C105.205 20.7459 104.533 22.2469 103.25 22.2469ZM103.25 26.0517C107.568 26.0517 109.031 22.0142 109.031 17.965C109.031 13.9275 107.568 9.87842 103.25 9.87842C98.9319 9.87842 97.4685 13.9275 97.4685 17.965C97.4805 22.0142 98.9319 26.0517 103.25 26.0517Z"
        fill="white"></path>
      <path
        d="M128.475 22.7124V19.1287H129.002C129.434 19.1287 130.586 19.1519 130.586 20.7693C130.586 22.4331 129.434 22.7124 129.002 22.7124H128.475ZM124.912 25.8656H129.266C130.202 25.8656 134.148 25.47 134.16 20.6994C134.16 16.6736 131.101 15.9755 129.134 15.9755H128.487V13.8927H133.308V10.1112H124.912V25.8656Z"
        fill="white"></path>
      <path
        d="M147.27 10.1112H150.845V15.7777H153.388V10.1112H156.962V25.8656H153.388V19.5592H150.845V25.8656H147.27V10.1112Z"
        fill="white"></path>
      <path
        d="M159.349 10.1112H162.923L162.911 15.7777H163.691L165.73 10.1112H169.616L166.834 17.5811L170 25.8656H165.802L163.763 19.5243H162.911L162.923 25.8656H159.349V10.1112Z"
        fill="white"></path>
      <path d="M46.0234 10.1112H53.4961V14.0323H49.7298V25.8656H46.0234V10.1112Z" fill="white"></path>
      <path
        d="M110.782 10.1112H113.877L116.612 13.8229L119.359 10.1112H122.453V25.8656H118.807V16.2547L116.612 19.0123L114.429 16.2547V25.8656H110.782V10.1112Z"
        fill="white"></path>
      <path
        d="M140.289 14.8933L140.973 19.6987H139.594L140.289 14.8933ZM134.868 25.8888H138.562L139.006 23.1661H141.549L141.992 25.8888H145.687L142.556 10.1344H137.974L134.868 25.8888Z"
        fill="white"></path>
    </g>
    <defs>
      <clipPath id="clip0_1894_2426">
        <rect width="170" height="36" fill="white"></rect>
      </clipPath>
    </defs>
  </symbol>
  <symbol fill="none" xmlns="http://www.w3.org/2000/svg" viewBox="0 0 20 20" id="icon-qr">
    <path fill-rule="evenodd" clip-rule="evenodd"
      d="M3.082 3.41C3 3.57 3 3.78 3 4.2V8.028C3 8.448 3 8.658 3.082 8.818C3.15393 8.95925 3.26875 9.07407 3.41 9.146C3.57 9.228 3.78 9.228 4.2 9.228H8.028C8.448 9.228 8.658 9.228 8.818 9.146C8.95925 9.07407 9.07407 8.95925 9.146 8.818C9.228 8.658 9.228 8.448 9.228 8.028V4.2C9.228 3.78 9.228 3.57 9.146 3.41C9.07407 3.26875 8.95925 3.15393 8.818 3.082C8.658 3 8.448 3 8.028 3H4.2C3.78 3 3.57 3 3.41 3.082C3.26875 3.15393 3.15393 3.26875 3.082 3.41ZM4.5 4.5H7.728V7.728H4.5V4.5Z"
      fill="currentColor"></path>
    <path fill-rule="evenodd" clip-rule="evenodd"
      d="M3.082 11.182C3 11.342 3 11.552 3 11.972V15.8C3 16.22 3 16.43 3.082 16.59C3.15393 16.7312 3.26875 16.846 3.41 16.918C3.57 17 3.78 17 4.2 17H8.028C8.448 17 8.658 17 8.818 16.918C8.95925 16.846 9.07407 16.7312 9.146 16.59C9.228 16.43 9.228 16.22 9.228 15.8V11.972C9.228 11.552 9.228 11.342 9.146 11.182C9.07407 11.0407 8.95925 10.9259 8.818 10.854C8.658 10.772 8.448 10.772 8.028 10.772H4.2C3.78 10.772 3.57 10.772 3.41 10.854C3.26875 10.9259 3.15393 11.0407 3.082 11.182ZM4.5 12.272H7.728V15.5H4.5V12.272Z"
      fill="currentColor"></path>
    <path fill-rule="evenodd" clip-rule="evenodd"
      d="M10.772 4.2C10.772 3.78 10.772 3.57 10.854 3.41C10.9259 3.26875 11.0407 3.15393 11.182 3.082C11.342 3 11.552 3 11.972 3H15.8C16.22 3 16.43 3 16.59 3.082C16.7312 3.15393 16.846 3.26875 16.918 3.41C17 3.57 17 3.78 17 4.2V8.028C17 8.448 17 8.658 16.918 8.818C16.846 8.95925 16.7312 9.07407 16.59 9.146C16.43 9.228 16.22 9.228 15.8 9.228H11.972C11.552 9.228 11.342 9.228 11.182 9.146C11.0407 9.07407 10.9259 8.95925 10.854 8.818C10.772 8.658 10.772 8.448 10.772 8.028V4.2ZM12.272 7.728V4.5H15.5V7.728H12.272Z"
      fill="currentColor"></path>
    <path d="M10.77 10.77H12.847V12.847H10.77V10.77Z" fill="currentColor"></path>
    <path d="M14.923 12.847H12.847V14.923H10.77V17H12.847V14.923H14.923V17H17V14.923H14.923V12.847Z" fill="currentColor">
    </path>
    <path d="M14.9231 12.847V10.77H17.0001V12.847H14.9231Z" fill="currentColor"></path>
  </symbol>
  <symbol fill="none" xmlns="http://www.w3.org/2000/svg" viewBox="0 0 16 16" id="icon-eye">
    <path
      d="M8 6.00103C7.48665 5.98377 6.98783 6.18451 6.61292 6.55923C6.23801 6.93395 6.01759 7.45207 6 8C6.01759 8.54793 6.23801 9.06605 6.61292 9.44077C6.98783 9.81549 7.48665 10.0162 8 9.99897C8.51335 10.0162 9.01217 9.81549 9.38708 9.44077C9.76199 9.06605 9.98241 8.54793 10 8C9.98241 7.45207 9.76199 6.93395 9.38708 6.55923C9.01217 6.18451 8.51335 5.98377 8 6.00103ZM8 8.99949C7.73537 9.0149 7.47565 8.91881 7.27673 8.73189C7.0778 8.54496 6.95557 8.28215 6.93633 8C6.95557 7.71785 7.0778 7.45504 7.27673 7.26811C7.47565 7.08119 7.73537 6.9851 8 7.00051C8.26463 6.9851 8.52435 7.08119 8.72327 7.26811C8.9222 7.45504 9.04443 7.71785 9.06367 8C9.04443 8.28215 8.9222 8.54496 8.72327 8.73189C8.52435 8.91881 8.26463 9.0149 8 8.99949Z"
      fill="#696E82"></path>
    <path
      d="M8 8.99949C7.73537 9.0149 7.47565 8.91881 7.27673 8.73189C7.0778 8.54496 6.95557 8.28215 6.93633 8C6.95557 7.71785 7.0778 7.45504 7.27673 7.26811C7.47565 7.08119 7.73537 6.9851 8 7.00051C8.26463 6.9851 8.52435 7.08119 8.72327 7.26811C8.9222 7.45504 9.04443 7.71785 9.06367 8C9.04443 8.28215 8.9222 8.54496 8.72327 8.73189C8.52435 8.91881 8.26463 9.0149 8 8.99949Z"
      fill="#696E82"></path>
    <path
      d="M8 3.00571C6.25167 2.94316 4.52794 3.39571 3.08613 4.29581C1.64431 5.19592 0.561736 6.4953 0 8C0.561736 9.5047 1.64431 10.8041 3.08613 11.7042C4.52794 12.6043 6.25167 13.0568 8 12.9943C9.74833 13.0568 11.4721 12.6043 12.9139 11.7042C14.3557 10.8041 15.4383 9.5047 16 8C15.4383 6.4953 14.3557 5.19592 12.9139 4.29581C11.4721 3.39571 9.74833 2.94316 8 3.00571ZM13.4 9.8161C12.7193 10.4946 11.8829 11.0292 10.9499 11.3822C10.0168 11.7352 9.00987 11.898 8 11.8592C6.99013 11.898 5.98317 11.7352 5.05015 11.3822C4.11713 11.0292 3.28075 10.4946 2.6 9.8161C2.06914 9.27857 1.63999 8.66489 1.33 8C1.63999 7.33511 2.06914 6.72143 2.6 6.1839C3.28075 5.50543 4.11713 4.97085 5.05015 4.61783C5.98317 4.26482 6.99013 4.10197 8 4.14078C9.00987 4.10197 10.0168 4.26482 10.9499 4.61783C11.8829 4.97085 12.7193 5.50543 13.4 6.1839C13.9309 6.72143 14.36 7.33511 14.67 8C14.36 8.66489 13.9309 9.27857 13.4 9.8161Z"
      fill="#696E82"></path>
  </symbol>
  <symbol fill="none" xmlns="http://www.w3.org/2000/svg" viewBox="0 0 18 18" id="icon-link">
    <path fill-rule="evenodd" clip-rule="evenodd"
      d="M9.96967 3.21967C10.6076 2.58175 11.4728 2.22336 12.375 2.22336C13.2772 2.22336 14.1424 2.58175 14.7803 3.21967C15.4183 3.85761 15.7766 4.72283 15.7766 5.62501C15.7766 6.52718 15.4183 7.3924 14.7803 8.03032L11.7829 11.0278C11.4692 11.3471 11.0951 11.6009 10.6825 11.7743C10.2685 11.9483 9.82402 12.0379 9.375 12.0379C8.92597 12.0379 8.48152 11.9483 8.06752 11.7743C7.6536 11.6004 7.27852 11.3456 6.96428 11.0249C6.6744 10.729 6.67924 10.2541 6.97511 9.96427C7.27098 9.6744 7.74585 9.67927 8.03572 9.97515C8.21032 10.1533 8.41867 10.2949 8.64862 10.3915C8.87857 10.4881 9.12555 10.5379 9.375 10.5379C9.62445 10.5379 9.87142 10.4881 10.1014 10.3915C10.3313 10.2949 10.5397 10.1533 10.7143 9.97515L10.7197 9.96967L13.7197 6.96967C14.0763 6.61305 14.2766 6.12936 14.2766 5.62501C14.2766 5.12066 14.0763 4.63696 13.7197 4.28034C13.363 3.92371 12.8794 3.72336 12.375 3.72336C11.8706 3.72336 11.3869 3.92371 11.0303 4.28034L10.6553 4.65534C10.3624 4.94823 9.88755 4.94823 9.59467 4.65534C9.3018 4.36244 9.3018 3.88757 9.59467 3.59467L9.96967 3.21967Z"
      fill="black"></path>
    <path fill-rule="evenodd" clip-rule="evenodd"
      d="M7.31758 6.22564C7.73156 6.05169 8.17601 5.9621 8.62504 5.9621C9.07406 5.9621 9.51851 6.05169 9.93251 6.22564C10.3464 6.39958 10.7215 6.65437 11.0358 6.97509C11.3256 7.27096 11.3208 7.74578 11.025 8.03573C10.7291 8.3256 10.2542 8.32073 9.96431 8.02485C9.78971 7.84673 9.58136 7.70513 9.35141 7.60853C9.12146 7.51185 8.87449 7.4621 8.62504 7.4621C8.37559 7.4621 8.12861 7.51185 7.89866 7.60853C7.66871 7.70513 7.46033 7.84673 7.28575 8.02485L7.28039 8.03033L4.28037 11.0303C3.92374 11.387 3.72339 11.8706 3.72339 12.375C3.72339 12.8793 3.92374 13.3631 4.28037 13.7197C4.63699 14.0763 5.12068 14.2766 5.62504 14.2766C6.12939 14.2766 6.61308 14.0763 6.9697 13.7197L7.3447 13.3447C7.63759 13.0517 8.11249 13.0517 8.40536 13.3447C8.69824 13.6376 8.69824 14.1125 8.40536 14.4053L8.03036 14.7803C7.39243 15.4183 6.52721 15.7766 5.62504 15.7766C4.72286 15.7766 3.85764 15.4183 3.2197 14.7803C2.58178 14.1424 2.22339 13.2772 2.22339 12.375C2.22339 11.4728 2.58178 10.6076 3.2197 9.96968L6.21715 6.97221C6.53082 6.65284 6.90488 6.39905 7.31758 6.22564Z"
      fill="black"></path>
  </symbol>
  <symbol fill="none" xmlns="http://www.w3.org/2000/svg" viewBox="0 0 14 14" id="icon-ok">
    <g clip-path="url(#clip0_1894_2959)">
      <path
        d="M2.95602 7.48945C2.61546 8.15889 3.00213 8.47889 3.88435 9.02556C4.63435 9.48889 5.67046 9.65833 6.33602 9.72611C6.06324 9.98833 7.31324 8.78611 3.71324 12.2489C2.94991 12.9806 4.17879 14.1544 4.94157 13.4383L7.00657 11.4467C7.79713 12.2072 8.55491 12.9361 9.07157 13.4411C9.83491 14.16 11.0632 12.9961 10.3082 12.2517C10.2516 12.1978 7.50991 9.56778 7.67713 9.72889C8.35102 9.66111 9.37157 9.48167 10.1127 9.02833L10.1121 9.02778C10.9944 8.47833 11.381 8.15889 11.0455 7.48945C10.8427 7.10945 10.296 6.79167 9.56824 7.34111C9.56824 7.34111 8.58546 8.09389 7.00046 8.09389C5.41491 8.09389 4.43268 7.34111 4.43268 7.34111C3.70546 6.78889 3.15657 7.10945 2.95602 7.48945Z"
        fill="#1E222E"></path>
      <path
        d="M6.99932 7.0789C8.93155 7.0789 10.5093 5.5689 10.5093 3.71001C10.5093 1.84334 8.93155 0.333344 6.99932 0.333344C5.06655 0.333344 3.48877 1.84334 3.48877 3.71001C3.48877 5.5689 5.06655 7.0789 6.99932 7.0789ZM6.99932 2.0439C7.94877 2.0439 8.72321 2.7889 8.72321 3.71001C8.72321 4.62334 7.94877 5.36834 6.99932 5.36834C6.04988 5.36834 5.27544 4.62334 5.27544 3.71001C5.27488 2.78834 6.04932 2.0439 6.99932 2.0439Z"
        fill="#1E222E"></path>
    </g>
    <defs>
      <clipPath id="clip0_1894_2959">
        <rect width="13.3333" height="13.3333" fill="white" transform="translate(0.333252 0.333344)"></rect>
      </clipPath>
    </defs>
  </symbol>
  <symbol fill="none" xmlns="http://www.w3.org/2000/svg" viewBox="0 0 15 12" id="icon-tg">
    <mask id="mask0_1894_2954" maskUnits="userSpaceOnUse" x="0" y="0" width="15" height="12">
      <path fill-rule="evenodd" clip-rule="evenodd" d="M0.5 0.166656H14.5V11.8333H0.5V0.166656Z" fill="white"></path>
    </mask>
    <g mask="url(#mask0_1894_2954)">
      <path fill-rule="evenodd" clip-rule="evenodd"
        d="M14.5 1.10402C14.4265 1.43024 14.3499 1.7558 14.2799 2.08279C13.8275 4.19733 13.3766 6.31219 12.9249 8.42691C12.7304 9.33766 12.5373 10.2487 12.3383 11.1585C12.3124 11.2767 12.2663 11.3941 12.2094 11.5012C12.0573 11.7874 11.8068 11.8954 11.4984 11.7988C11.3578 11.7547 11.2162 11.6903 11.0974 11.6042C10.0912 10.8751 9.09024 10.1387 8.08762 9.40469C8.05133 9.37812 8.01412 9.35275 7.97084 9.32224C7.93757 9.35067 7.90612 9.37502 7.87744 9.40236C7.35983 9.89561 6.84214 10.3888 6.3254 10.883C6.17144 11.0302 5.99625 11.1189 5.76599 11.1056C5.78505 10.8209 5.80254 10.5453 5.82214 10.2699C5.86321 9.69322 5.90533 9.11664 5.94716 8.53999C5.95376 8.44922 5.97744 8.35626 5.96553 8.26808C5.92049 7.93559 6.10739 7.74287 6.33567 7.53939C8.19169 5.8847 10.0388 4.22 11.8885 2.55825C11.9156 2.5339 11.9508 2.51337 11.9668 2.48297C11.9961 2.4272 12.0139 2.36537 12.0365 2.30606C11.9741 2.28853 11.905 2.245 11.8505 2.25886C11.7383 2.28733 11.6258 2.33348 11.5274 2.3949C9.11644 3.90074 6.70721 5.40939 4.29823 6.91848C4.23056 6.96087 4.17248 6.98431 4.08561 6.9569C3.0636 6.63422 2.03931 6.3189 1.01738 5.99592C0.893738 5.95685 0.770683 5.89845 0.664901 5.82405C0.466054 5.68421 0.442113 5.47949 0.620008 5.31418C0.750314 5.19308 0.908095 5.08562 1.07276 5.02018C1.93378 4.678 2.80066 4.35065 3.6659 4.01911C6.95288 2.7598 10.2399 1.50045 13.5278 0.243655C13.6324 0.203666 13.7464 0.177346 13.8579 0.16878C14.1537 0.146106 14.3731 0.306172 14.4635 0.593678C14.4742 0.627543 14.4878 0.660533 14.5 0.693924V1.10402Z"
        fill="#1E222E"></path>
    </g>
  </symbol>
  <symbol fill="none" xmlns="http://www.w3.org/2000/svg" viewBox="0 0 16 16" id="icon-time">
    <path
      d="M7.99994 1C4.14018 1 1 4.14018 1 7.99994C1 11.8598 4.14011 15 7.99987 15C11.8597 15 14.9998 11.8598 14.9998 7.99994C14.9999 4.14018 11.8598 1 7.99994 1ZM7.99994 14.0418C4.66856 14.0418 1.95831 11.3314 1.95831 7.99994C1.95825 4.66856 4.66856 1.95825 7.99994 1.95825C11.3313 1.95825 14.0416 4.66856 14.0416 7.99994C14.0416 11.3314 11.3313 14.0418 7.99994 14.0418Z"
      fill="#696E82"></path>
    <path
      d="M11.6116 7.90645H8.28637V4.27392C8.28637 4.00932 8.07192 3.7948 7.80725 3.7948C7.54264 3.7948 7.32812 4.00932 7.32812 4.27392V8.38557C7.32812 8.65018 7.54264 8.8647 7.80725 8.8647H11.6116C11.8762 8.8647 12.0907 8.65018 12.0907 8.38557C12.0907 8.12097 11.8762 7.90645 11.6116 7.90645Z"
      fill="#696E82"></path>
  </symbol>
  <symbol fill="none" xmlns="http://www.w3.org/2000/svg" viewBox="0 0 16 16" id="icon-vk">
    <g clip-path="url(#clip0_1894_2964)">
      <path
        d="M15.2442 3.18214C15.1787 2.56087 14.9019 1.98092 14.4601 1.53925C14.0183 1.09759 13.4382 0.820998 12.817 0.755722C9.6159 0.412521 6.38732 0.412521 3.18627 0.755722C2.56436 0.820263 1.98352 1.09653 1.54101 1.53826C1.09851 1.97999 0.82122 2.56035 0.755588 3.18214C0.413827 6.3847 0.413827 9.61453 0.755588 12.8171C0.821813 13.4382 1.09883 14.0178 1.54048 14.4595C1.98214 14.9011 2.56178 15.1781 3.18286 15.2444C6.38392 15.5876 9.61249 15.5876 12.8135 15.2444C13.4352 15.1789 14.0157 14.9022 14.458 14.4605C14.9004 14.0187 15.1779 13.4387 15.2442 12.8171C15.586 9.61453 15.586 6.3847 15.2442 3.18214ZM12.2383 10.6821C12.0201 10.7128 10.953 10.6821 10.8976 10.6821C10.6211 10.6853 10.3546 10.579 10.1562 10.3864C9.93116 10.1691 9.73002 9.93044 9.51013 9.70459C9.44534 9.63526 9.37493 9.57141 9.29962 9.51368C9.12405 9.37902 8.95019 9.4097 8.86752 9.6168C8.80293 9.8406 8.75787 10.0696 8.73286 10.3012C8.71837 10.51 8.58542 10.6421 8.35019 10.6557C8.20445 10.6642 8.05871 10.6668 7.91468 10.6634C7.38969 10.6598 6.87303 10.5318 6.40701 10.2901C5.90273 10.0094 5.46334 9.62546 5.11752 9.16339C4.54905 8.43726 4.09479 7.63953 3.68911 6.81709C3.6678 6.77532 3.25189 5.89152 3.24167 5.8489C3.20417 5.70998 3.24167 5.57618 3.35672 5.5293C3.43002 5.50118 4.80047 5.5293 4.82349 5.5293C4.92541 5.52874 5.02489 5.56054 5.10759 5.62011C5.1903 5.67969 5.25196 5.76398 5.28371 5.86084C5.53705 6.50952 5.88391 7.11766 6.31326 7.66595C6.37337 7.739 6.4437 7.80301 6.52207 7.85601C6.63371 7.93271 6.7394 7.90629 6.78542 7.77674C6.84002 7.5982 6.87209 7.41353 6.88087 7.22703C6.88854 6.85714 6.88087 6.61424 6.86042 6.24436C6.84678 6.00743 6.76326 5.80032 6.41383 5.73299C6.30644 5.71339 6.29707 5.62476 6.3661 5.53612C6.51013 5.35288 6.70701 5.32305 6.92775 5.31282C7.25672 5.29322 7.5857 5.30601 7.91468 5.31282H7.98627C8.12944 5.3116 8.27232 5.32589 8.41241 5.35544C8.49519 5.37261 8.57027 5.41592 8.62658 5.47899C8.68289 5.54205 8.71746 5.62153 8.72519 5.70572C8.74211 5.79904 8.74926 5.89387 8.7465 5.98868C8.73798 6.3918 8.71837 6.79578 8.71411 7.1989C8.71015 7.35886 8.72473 7.51873 8.75758 7.67532C8.80445 7.89095 8.9519 7.94379 9.09849 7.78868C9.28846 7.5889 9.46256 7.37461 9.61923 7.14777C9.89671 6.7334 10.1255 6.28841 10.301 5.82163C10.3965 5.58214 10.4715 5.5293 10.7272 5.5293H12.1812C12.2676 5.52778 12.3538 5.53928 12.4368 5.56339C12.4662 5.57112 12.4937 5.58482 12.5176 5.60366C12.5414 5.6225 12.5611 5.64605 12.5754 5.67285C12.5897 5.69966 12.5984 5.72913 12.6008 5.75942C12.6032 5.78971 12.5993 5.82018 12.5894 5.8489C12.5178 6.16851 12.3456 6.43953 12.1633 6.70118C11.8675 7.11964 11.5556 7.52788 11.253 7.94123C11.2146 7.99581 11.1796 8.05274 11.1482 8.11169C11.034 8.31708 11.0425 8.43214 11.2079 8.6026C11.4721 8.87447 11.7542 9.12845 12.009 9.40799C12.1959 9.61138 12.3647 9.83068 12.5135 10.0634C12.7002 10.3532 12.5851 10.6293 12.2374 10.6787L12.2383 10.6821Z"
        fill="#1E222E"></path>
    </g>
    <defs>
      <clipPath id="clip0_1894_2964">
        <rect width="15" height="15" fill="white" transform="translate(0.5 0.5)"></rect>
      </clipPath>
    </defs>
  </symbol>
  <symbol id="icon-burger" viewBox="0 0 32 32" fill="none" xmlns="http://www.w3.org/2000/svg">
    <path fill-rule="evenodd" clip-rule="evenodd"
      d="M0 8C0 7.44772 0.397969 7 0.888889 7H31.1111C31.602 7 32 7.44772 32 8C32 8.55228 31.602 9 31.1111 9H0.888889C0.397969 9 0 8.55228 0 8Z"
      fill="currentColor" />
    <path fill-rule="evenodd" clip-rule="evenodd"
      d="M0 16C0 15.4477 0.397969 15 0.888889 15H31.1111C31.602 15 32 15.4477 32 16C32 16.5523 31.602 17 31.1111 17H0.888889C0.397969 17 0 16.5523 0 16Z"
      fill="currentColor" />
    <path fill-rule="evenodd" clip-rule="evenodd"
      d="M0 24C0 23.4477 0.397969 23 0.888889 23H31.1111C31.602 23 32 23.4477 32 24C32 24.5523 31.602 25 31.1111 25H0.888889C0.397969 25 0 24.5523 0 24Z"
      fill="currentColor" />
  </symbol>
  <symbol id="icon-share" viewBox="0 0 20 20" fill="none" xmlns="http://www.w3.org/2000/svg">
    <path
      d="M18.3 7.79376L11.625 2.26251C11.4397 2.10575 11.2128 2.00633 10.9719 1.97636C10.7311 1.9464 10.4867 1.98719 10.2687 2.09376C10.0539 2.19463 9.87218 2.35458 9.7449 2.55491C9.61762 2.75524 9.55 2.98766 9.54996 3.22501V4.47501C7.11757 5.32522 5.01086 6.91278 3.52316 9.01661C2.03547 11.1204 1.24085 13.6358 1.24996 16.2125C1.24917 16.8636 1.30142 17.5137 1.40621 18.1563C1.42659 18.2855 1.48701 18.4051 1.57896 18.4981C1.6709 18.5912 1.78973 18.6531 1.91871 18.675H2.02496C2.13802 18.6747 2.24889 18.6437 2.34574 18.5854C2.4426 18.5271 2.52181 18.4436 2.57496 18.3438C3.28969 16.9991 4.28056 15.8207 5.48261 14.8857C6.68465 13.9508 8.07072 13.2805 9.54996 12.9188V14.2688C9.55 14.5061 9.61762 14.7385 9.7449 14.9389C9.87218 15.1392 10.0539 15.2991 10.2687 15.4C10.4407 15.4812 10.6285 15.5239 10.8187 15.525C11.1145 15.5235 11.4002 15.4172 11.625 15.225L14.6625 12.725L14.7187 12.6813L18.3 9.71251C18.4393 9.59517 18.5514 9.44879 18.6282 9.28361C18.7051 9.11843 18.7449 8.93845 18.7449 8.75626C18.7449 8.57407 18.7051 8.39408 18.6282 8.2289C18.5514 8.06372 18.4393 7.91734 18.3 7.80001V7.79376ZM13.9687 11.6688L13.9125 11.7125L10.7875 14.275V12.1375C10.791 12.121 10.791 12.104 10.7875 12.0875C10.7875 12.0875 10.7875 12.05 10.7875 12.0313C10.7875 12.0125 10.7875 11.9875 10.7562 11.9625C10.7443 11.924 10.7297 11.8864 10.7125 11.85C10.6898 11.8115 10.6601 11.7776 10.625 11.75C10.6051 11.7186 10.5797 11.6911 10.55 11.6688C10.5172 11.6401 10.4816 11.615 10.4437 11.5938L10.35 11.55H10.2125H10.15H10.1H10.0437C7.03442 12.0691 4.33645 13.7165 2.49996 16.1563C2.50244 13.7791 3.26585 11.4653 4.6784 9.55336C6.09096 7.64146 8.07847 6.23198 10.35 5.53126H10.3812C10.4225 5.51631 10.4622 5.49747 10.5 5.47501C10.5438 5.45145 10.5856 5.42427 10.625 5.39376L10.7 5.30626C10.7265 5.27685 10.7477 5.243 10.7625 5.20626C10.7787 5.17227 10.7913 5.13665 10.8 5.10001C10.8035 5.05633 10.8035 5.01244 10.8 4.96876V3.25626L17.5 8.75001L13.9687 11.6688Z"
      fill="currentColor" />
  </symbol>
</svg>