<svg xmlns="http://www.w3.org/2000/svg">
	<symbol id="logo" viewBox="0 0 114 26" fill="none">
		<path d="M96.1508 25.6469L103.251 17.237L96.4113 7.57531H100.124C101.948 7.57531 101.688 8.31359 104.847 12.7753L105.922 14.3161L110.222 7.80001C110.352 7.60742 110.58 7.54321 110.775 7.54321H112.99L106.541 15.1827L114 25.6469H110.515C108.202 25.679 108.626 24.7482 105.564 20.479L103.87 18.1037L98.9519 25.358C98.8216 25.5506 98.6262 25.6148 98.3656 25.6148H96.1508V25.6469Z" fill="currentColor"/>
		<path d="M88.6921 26C86.1841 26 83.5783 25.2939 81.9498 23.3038C80.4189 21.442 79.8652 19.1309 79.8001 16.7877C79.7675 13.8667 80.5166 11.5235 82.0801 9.75808C83.6435 7.99265 85.7932 7.12598 88.5292 7.12598C89.8321 7.12598 91.0046 7.31857 92.0143 7.70375C93.0241 8.08894 93.8058 8.60252 94.4246 9.2766C95.0435 9.95067 95.4995 10.721 95.7926 11.5877C96.0858 12.4544 96.2486 13.4173 96.2812 14.4445C96.2812 14.9902 96.2486 15.5038 96.1509 15.9531C96.1509 16.0173 96.0858 16.0494 96.0532 16.0494H84.5881C84.6532 18.9704 85.1092 21.0568 85.9561 22.3729C86.8029 23.6889 88.2035 24.3309 90.1903 24.3309C92.2423 24.3309 93.8383 23.7531 95.4018 22.5655C95.6623 22.7902 95.9555 23.4001 95.4018 23.8815C93.9686 25.1655 91.1675 26 88.6921 26ZM84.5555 15.1828L91.9818 14.6371C92.0143 12.1976 91.9166 8.18523 88.6269 8.18523C85.1743 8.18523 84.6532 12.5828 84.5555 15.1828Z" fill="currentColor"/>
		<path d="M76.9338 23.5604V12.9678C76.9338 9.34068 75.5332 7.15796 71.9178 7.15796C69.3772 7.15796 66.9669 8.34561 65.2407 10.111C65.2407 8.69869 65.0127 7.54314 63.6121 7.54314H60.6807L60.8435 9.59747V23.5283L60.6807 25.6147H65.4361L65.2732 23.5283V11.074C66.6412 10.0468 67.9115 9.53327 69.7355 9.53327C72.0481 9.53327 72.5041 11.6518 72.5041 13.995V23.1752C72.5041 24.716 72.8624 25.6147 74.1652 25.6147H77.0967L76.9338 23.5604Z" fill="currentColor"/>
		<path d="M56.088 2.31112C56.088 3.59507 55.0131 4.62223 53.7103 4.62223C52.4074 4.62223 51.3326 3.59507 51.3326 2.31112C51.3326 1.02716 52.4074 0 53.7103 0C55.0131 0 56.088 1.02716 56.088 2.31112Z" fill="currentColor"/>
		<path d="M51.4954 7.54308L51.6582 9.59741V23.5283L51.4954 25.6147H56.2508L56.0879 23.5283V9.95048C56.0879 8.57024 55.8274 7.51099 54.4268 7.51099H51.4954V7.54308Z" fill="currentColor"/>
		<path d="M47.0005 23.5604V12.9678C47.0005 9.30858 45.5999 7.15796 41.9845 7.15796C38.9554 7.15796 36.9034 8.6666 35.2748 10.3678C34.6885 8.34561 33.2554 7.15796 30.5194 7.15796C27.9462 7.15796 25.8617 8.34561 24.1679 10.1431V10.111C24.1679 8.69869 23.9399 7.54314 22.5394 7.54314H19.6079L19.7708 9.59747V23.5283L19.6079 25.6147H24.3634L24.2005 23.5283V11.074C25.5359 9.98264 27.1319 9.53327 28.4022 9.53327C30.9102 9.53327 31.1708 12.0691 31.1708 13.995V23.5283L31.0079 25.6147H35.7634L35.6005 23.5283V11.074C36.7405 10.111 38.3365 9.53327 39.8348 9.53327C42.4405 9.53327 42.6034 12.3259 42.6034 13.995V23.1752C42.6034 24.9086 43.0919 25.6147 44.2645 25.6147H47.1959L47.0005 23.5604Z" fill="currentColor"/>
		<path d="M7.5892 26C5.40692 26 2.18235 25.3901 0.228064 24.2988C0.58635 23.4963 1.27035 22.8864 2.24749 23.4C4.00635 24.2988 5.7652 24.716 7.71949 24.716C10.5206 24.716 12.5726 23.1753 12.4423 20.3827C12.1492 14.5407 -0.0325062 13.6741 6.52001e-05 6.64445C0.0326366 1.47655 4.75549 0 9.28292 0C11.4652 0 13.6149 0.417292 15.7321 1.25186C15.3738 2.08643 14.7549 2.79259 13.6801 2.27901C12.1818 1.57284 10.6835 1.25186 9.08749 1.25186C6.31892 1.25186 4.75549 2.7284 4.75549 4.91112C4.72292 10.4963 17.1001 11.3309 17.3281 18.5852C17.4583 23.8815 12.9635 26 7.5892 26Z" fill="currentColor"/>
	</symbol>

	<symbol id="icon-menu" viewBox="0 0 60 23" fill="none">
		<rect width="60" height="1" fill="#1D252D"/>
		<rect y="11" width="40" height="1" fill="#1D252D"/>
		<rect y="22" width="26" height="1" fill="#1D252D"/>
	</symbol>

	<symbol id="icon-hh" viewBox="0 0 20 20" fill="none">
		<path fill-rule="evenodd" d="M10 20C15.523 20 20 15.523 20 10C20 4.477 15.523 0 10 0C4.477 0 0 4.477 0 10C0 15.523 4.477 20 10 20ZM5.68798 5.48706V8.88906C6.20598 8.27206 6.82598 7.96106 7.54598 7.96106C7.91698 7.96106 8.24898 8.03206 8.54698 8.17206C8.84598 8.31206 9.06898 8.49106 9.21998 8.70806C9.37198 8.92806 9.47398 9.16806 9.52898 9.43306C9.58398 9.69706 9.61198 10.1071 9.61198 10.6641V14.3011H8.00298V11.0251C8.00298 10.3751 7.97398 9.96306 7.91298 9.78806C7.85198 9.61206 7.74398 9.47306 7.58998 9.37206C7.43498 9.26706 7.24198 9.21606 7.00898 9.21606C6.74298 9.21606 6.50298 9.28306 6.29498 9.41506C6.08298 9.54806 5.92998 9.74806 5.83298 10.0141C5.73498 10.2811 5.68598 10.6741 5.68698 11.1961L5.68498 14.3021H4.07898V5.48706H5.68798ZM12.024 8.88906V5.48706H10.416V14.3021H12.023V11.1961C12.023 10.6741 12.072 10.2811 12.168 10.0141C12.266 9.74806 12.419 9.54806 12.629 9.41506C12.838 9.28306 13.077 9.21606 13.343 9.21606C13.576 9.21606 13.771 9.26706 13.924 9.37206C14.08 9.47306 14.187 9.61206 14.248 9.78806C14.31 9.96306 14.34 10.3751 14.34 11.0251V14.3011H15.947V10.6641C15.947 10.1071 15.919 9.69706 15.864 9.43306C15.81 9.16806 15.707 8.92806 15.555 8.70806C15.405 8.49106 15.181 8.31206 14.884 8.17206C14.586 8.03206 14.251 7.96106 13.882 7.96106C13.162 7.96106 12.542 8.27206 12.024 8.88906Z" fill="currentColor"/>
	</symbol>

	<symbol id="icon-tg" viewBox="0 0 22 18" fill="none">
		<path d="M22 1.44622C21.8844 1.94953 21.7641 2.45183 21.6541 2.95632C20.9432 6.21875 20.2346 9.48168 19.5249 12.7444C19.2192 14.1495 18.9158 15.5552 18.603 16.9588C18.5624 17.1412 18.4899 17.3224 18.4006 17.4876C18.1615 17.9292 17.7678 18.0957 17.2832 17.9467C17.0623 17.8787 16.8397 17.7793 16.653 17.6465C15.0719 16.5215 13.4989 15.3855 11.9234 14.253C11.8664 14.212 11.8079 14.1728 11.7399 14.1257C11.6876 14.1696 11.6382 14.2072 11.5931 14.2494C10.7797 15.0104 9.96622 15.7713 9.1542 16.5339C8.91227 16.761 8.63696 16.8977 8.27512 16.8772C8.30507 16.4379 8.33256 16.0127 8.36336 15.5878C8.4279 14.6981 8.49409 13.8085 8.55983 12.9189C8.57019 12.7788 8.60741 12.6354 8.58869 12.4993C8.51791 11.9864 8.8116 11.689 9.17035 11.3751C12.0869 8.82213 14.9895 6.25373 17.8963 3.68988C17.9389 3.65231 17.9941 3.62065 18.0193 3.57374C18.0653 3.48769 18.0932 3.39231 18.1288 3.3008C18.0307 3.27375 17.9221 3.20659 17.8365 3.22797C17.6602 3.27189 17.4834 3.34309 17.3288 3.43786C13.5401 5.76116 9.75418 8.08879 5.96864 10.4171C5.86231 10.4825 5.77103 10.5187 5.63452 10.4764C4.02852 9.97852 2.41891 9.49203 0.813018 8.99373C0.618731 8.93343 0.42536 8.84333 0.25913 8.72854C-0.0533439 8.5128 -0.0909645 8.19695 0.188585 7.94189C0.393351 7.75505 0.641292 7.58925 0.900055 7.4883C2.25308 6.96035 3.61532 6.4553 4.97499 5.94378C10.1402 4.00084 15.3055 2.05785 20.4722 0.118797C20.6366 0.0570996 20.8158 0.0164929 20.9911 0.00327607C21.4558 -0.0317064 21.8006 0.215252 21.9427 0.658833C21.9594 0.711081 21.9808 0.76198 22 0.813498V1.44622Z" fill="currentColor"/>
	</symbol>

	<symbol id="icon-vk" viewBox="0 0 24 14" fill="none" xmlns="http://www.w3.org/2000/svg">
		<path d="M7.92898 0.972652C8.10115 0.584837 8.37473 0.344025 8.73062 0.254702C9.16196 0.146473 9.60749 0.0718104 10.0505 0.0435314C11.0907 -0.0228801 12.1332 -0.0395431 13.1615 0.187249C13.7311 0.312863 14.0157 0.623691 14.0255 1.2266C14.0416 2.20659 14.0074 3.18738 14.004 4.16785C14.002 4.75739 14.0181 5.347 14.0263 5.93653C14.0265 5.95656 14.028 5.97675 14.0314 5.99637C14.0915 6.33805 14.1669 6.70551 14.5144 6.83096C14.8454 6.95041 15.0802 6.67058 15.2833 6.44724C16.2368 5.39923 16.9288 4.1717 17.5368 2.89242C17.7881 2.36369 18.0015 1.81565 18.2251 1.27331C18.4264 0.784953 18.6494 0.622569 19.158 0.618804C20.4242 0.609431 21.6902 0.600859 22.9563 0.591967C23.9683 0.584837 24.216 0.947898 23.8219 1.90706C23.3671 3.01378 22.6551 3.9578 21.9638 4.9124C21.4815 5.5786 20.977 6.22813 20.5052 6.90194C19.8565 7.82866 19.895 8.16096 20.6751 8.9748C21.5014 9.83663 22.3396 10.6875 23.1392 11.575C23.4252 11.8927 23.6383 12.2896 23.8404 12.6749C24.1345 13.2355 23.9477 13.6705 23.3542 13.8596C23.1713 13.9179 22.9729 13.9453 22.7809 13.9493C21.6806 13.9722 20.5802 13.9899 19.4797 13.9973C18.809 14.0018 18.2498 13.6901 17.7814 13.237C17.2862 12.7579 16.8425 12.2228 16.369 11.7193C16.1327 11.4681 15.8971 11.2107 15.6312 10.9953C15.1054 10.5696 14.6179 10.6683 14.3669 11.3086C14.1852 11.7717 14.082 12.2868 14.0459 12.7866C13.9796 13.7033 13.722 13.9885 12.8262 13.9972C11.7543 14.0075 10.6879 14.0069 9.64552 13.6772C7.81487 13.0981 6.36419 11.9683 5.16323 10.4669C3.42128 8.28929 2.10513 5.84176 0.893496 3.32918C0.617421 2.75671 0.356467 2.17615 0.103852 1.59223C-0.142683 1.02208 0.0528772 0.686978 0.65686 0.671036C1.74713 0.642196 2.83803 0.635868 3.92861 0.624171C4.5262 0.617763 4.9174 0.877641 5.15505 1.47687C5.79925 3.10191 6.60924 4.63938 7.64168 6.043C7.82726 6.29535 8.05119 6.53023 8.29554 6.72185C8.65634 7.00472 9.00506 6.90274 9.15292 6.4631C9.2721 6.10861 9.3703 5.7276 9.37779 5.35629C9.39727 4.38792 9.42011 3.41273 9.33188 2.45101C9.24404 1.49273 8.94045 1.23597 7.92898 0.972652Z" fill="currentColor"/>
	</symbol>

	<symbol id="icon-wa" viewBox="0 0 20 20" fill="none">
		<path d="M9.9975 0H10.0025C15.5162 0 20 4.48625 20 10C20 15.5138 15.5162 20 10.0025 20C7.96875 20 6.0825 19.395 4.50125 18.3475L0.6575 19.5763L1.90375 15.8612C0.705 14.215 0 12.1875 0 10C0 4.485 4.48375 0 9.9975 0ZM13.8588 15.5325C14.6226 15.3675 15.5801 14.8025 15.8213 14.1212C16.0626 13.4387 16.0626 12.8575 15.9926 12.7337C15.936 12.6355 15.8024 12.5712 15.6029 12.4751C15.5509 12.4501 15.4945 12.423 15.4338 12.3925C15.1401 12.2462 13.7113 11.54 13.4413 11.4462C13.1763 11.3462 12.9238 11.3812 12.7238 11.6637C12.6858 11.717 12.6478 11.7704 12.6101 11.8234C12.3688 12.1628 12.136 12.4901 11.9426 12.6987C11.7663 12.8862 11.4788 12.91 11.2376 12.81C11.2113 12.799 11.1811 12.7868 11.1473 12.7732C10.7654 12.6189 9.91813 12.2767 8.89256 11.3637C8.02756 10.5937 7.44006 9.63498 7.27006 9.34748C7.10315 9.05907 7.24712 8.88995 7.38019 8.73365C7.38265 8.73076 7.38511 8.72787 7.38756 8.72498C7.47335 8.61884 7.5566 8.53045 7.64027 8.44163C7.70045 8.37773 7.76085 8.31361 7.82256 8.24248C7.83173 8.23192 7.84064 8.22167 7.84933 8.21168C7.98036 8.06102 8.05839 7.9713 8.14631 7.78373C8.24631 7.58998 8.17506 7.38998 8.10381 7.24248C8.05479 7.13919 7.75198 6.40447 7.49202 5.77373C7.38077 5.50381 7.27737 5.25293 7.20506 5.07873C7.01131 4.61498 6.86381 4.59748 6.57006 4.58498C6.56107 4.58453 6.55198 4.58407 6.5428 4.58361C6.44995 4.57891 6.34768 4.57373 6.23506 4.57373C5.85256 4.57373 5.45381 4.68623 5.21256 4.93248C5.20413 4.94109 5.19534 4.95003 5.18623 4.9593C4.87759 5.27319 4.19006 5.97241 4.19006 7.36623C4.19006 8.76274 5.18094 10.1143 5.36428 10.3643C5.36933 10.3712 5.37377 10.3773 5.37756 10.3825C5.3886 10.397 5.40939 10.4271 5.43965 10.4709C5.814 11.013 7.63736 13.6535 10.3563 14.78C12.6538 15.7325 13.3363 15.6437 13.8588 15.5325Z" fill="currentColor"/>
	</symbol>

	<symbol id="icon-ya" viewBox="0 0 20 20" fill="none">
		<path d="M18.7576 9.59456C18.7592 9.59456 18.7604 9.59456 18.762 9.59456C18.8736 9.59456 18.98 9.54776 19.0556 9.46576C19.1324 9.38256 19.1704 9.27096 19.1604 9.15816C18.7588 4.74096 15.2616 1.24256 10.844 0.840156C10.732 0.831356 10.6192 0.867756 10.536 0.944956C10.4528 1.02176 10.4064 1.13016 10.4076 1.24336C10.4772 7.11376 11.2516 9.51256 18.7576 9.59456ZM18.7576 10.4058C11.2516 10.4878 10.4776 12.8866 10.408 18.757C10.4068 18.8702 10.4532 18.9786 10.5364 19.0554C10.6108 19.1238 10.708 19.1618 10.808 19.1618C10.82 19.1618 10.8324 19.1614 10.8444 19.1602C15.262 18.7578 18.7592 15.2598 19.1604 10.8422C19.1704 10.7294 19.1328 10.6178 19.0556 10.5346C18.9784 10.4514 18.8708 10.4102 18.7576 10.4058ZM9.1292 0.842156C4.7256 1.25616 1.2396 4.75376 0.840001 9.15896C0.830001 9.27176 0.867601 9.38336 0.944801 9.46656C1.0204 9.54856 1.1272 9.59496 1.2384 9.59496C1.24 9.59496 1.2416 9.59496 1.2432 9.59496C8.7244 9.50896 9.4968 7.11136 9.5672 1.24496C9.5684 1.13176 9.5216 1.02296 9.4384 0.946156C9.3544 0.869356 9.242 0.831756 9.1292 0.842156ZM1.2428 10.4054C1.1184 10.3914 1.0208 10.4506 0.944401 10.5338C0.867601 10.617 0.829601 10.7286 0.839601 10.8414C1.2392 15.2466 4.7256 18.7442 9.1292 19.1582C9.1416 19.1594 9.1544 19.1598 9.1668 19.1598C9.2668 19.1598 9.3636 19.1222 9.438 19.0538C9.5212 18.977 9.568 18.8682 9.5668 18.755C9.4964 12.889 8.7244 10.4914 1.2428 10.4054Z" fill="currentColor"/>
	</symbol>

	<svg id="icon-youtube" viewBox="0 0 22 16" fill="none">
		<path d="M8.38181 3.20123C9.42607 3.92357 10.5054 4.71634 11.542 5.47934C12.5888 6.25084 13.6511 6.99303 14.6675 7.73948C12.8452 8.92841 11.0152 10.0748 9.168 11.2467C8.90865 11.4103 8.66213 11.6093 8.38181 11.7346V3.20123ZM0.00617203 4.42965V11.6371C0.00617203 12.485 -0.0356037 13.2863 0.162377 13.8797C0.359449 14.4688 0.715451 14.943 1.13548 15.2869C1.57094 15.642 2.07634 15.9012 2.82013 15.9631C3.52032 16.0203 4.3404 15.9812 5.14731 15.9812H16.8699C17.6582 15.9812 18.4565 16.0338 19.2148 15.9631C20.5562 15.8379 21.4798 14.9732 21.8371 13.8452C22.031 13.2337 21.9934 12.4324 21.9934 11.6022V4.39382C21.9934 3.53942 22.0492 2.80323 21.8371 2.15079C21.6482 1.56956 21.3181 1.09164 20.8827 0.727268C20.4558 0.370339 19.9618 0.0962436 19.2148 0.032955C18.4778 -0.0284721 17.6541 0.0148061 16.8876 0.0148061H5.16456C4.38989 0.0148061 3.49626 -0.027076 2.78562 0.032955C1.46605 0.144641 0.480689 1.04836 0.145576 2.16894C-0.0446853 2.80322 0.00617203 3.6162 0.00617203 4.42965Z" fill="currentColor"/>
	</svg>
</svg>
