<svg width="36" height="36" viewBox="0 0 36 36" fill="none" xmlns="http://www.w3.org/2000/svg">
<g clip-path="url(#clip0_4003_2416)">
<path fill-rule="evenodd" clip-rule="evenodd" d="M0.623721 18C0.623721 8.42405 8.39625 0.616677 17.944 0.616677C27.5037 0.616677 35.2762 8.41241 35.2762 18C35.2762 27.5876 27.5037 35.3833 17.944 35.3833C8.39625 35.3833 0.623721 27.5876 0.623721 18ZM0 18C0 27.925 8.0484 36 17.944 36C27.8396 36 35.888 27.925 35.888 18C35.8999 8.07498 27.8396 0 17.944 0C8.0484 0 0 8.07498 0 18Z" fill="white"/>
<path fill-rule="evenodd" clip-rule="evenodd" d="M29.3629 16.1731C29.2309 16.2895 29.087 16.4058 28.9191 16.5222C27.9235 17.2901 26.3642 17.8952 24.1932 18.4769C19.6832 19.687 16.4207 19.8732 12.6903 20.7808C11.9706 20.9553 11.215 21.1996 10.5073 21.4905C11.215 21.8396 11.9587 22.1654 12.7263 22.4563C14.2376 22.0257 14.9573 21.8279 17.1523 21.4556C17.98 21.316 20.5468 20.8622 22.418 20.4666C25.7645 19.7568 30.6703 18.2093 29.3629 16.1731ZM27.2038 11.9495C26.4962 11.6237 25.5966 11.3095 24.649 11.0535C24.2292 11.391 23.7254 11.6935 23.0297 11.9611C24.2052 12.1705 25.1048 12.4963 26.0883 12.7872C26.2803 12.8803 27.0839 12.124 27.2038 11.9495ZM10.7952 16.4407C15.1732 15.1492 19.7672 14.7536 24.4211 13.5086C22.5979 13.0199 21.6023 12.8105 19.6832 13.0316C16.8885 13.3574 13.8178 13.974 11.191 14.7536C10.1595 15.0561 4.73788 16.6036 6.29718 18.7562C6.29718 18.7911 7.23277 17.4879 10.7952 16.4407ZM7.77253 23.8525C7.76053 24.2597 8.01242 24.6088 8.54018 25.051C8.61215 24.8299 8.70811 24.6786 8.86404 24.4692C8.4922 24.2714 8.12037 24.0619 7.77253 23.8525ZM9.82361 23.6431C10.1475 23.4453 10.5433 23.2475 10.9991 23.0729C10.3754 22.8169 9.73965 22.5377 9.09194 22.2352C8.79207 22.4213 8.54018 22.6075 8.32428 22.817C8.82805 23.0962 9.31983 23.3755 9.82361 23.6431ZM26.6521 14.3115C25.7645 14.7187 24.505 15.1492 22.6819 15.603C21.1945 15.9753 17.5721 16.4989 13.6739 17.3483C12.4384 17.6159 9.10393 18.4071 7.46066 19.8034C7.91646 20.1757 8.20433 20.2688 8.70811 20.548C9.3918 20.1175 10.3034 19.6987 11.6828 19.3263C14.0697 18.6864 15.8569 18.4071 18.004 18.0697C20.139 17.7323 24.1452 16.8829 26.3762 16.0917C27.0959 15.8241 27.7676 15.4983 28.2714 15.1027C28.1274 14.9398 26.7001 14.2533 26.6521 14.3115ZM27.9475 13.5202C28.3793 13.7413 28.7751 13.8926 29.159 14.1602C29.4348 13.6366 29.2669 13.2992 28.6912 12.8105C28.4753 13.0781 28.2114 13.3108 27.9475 13.5202ZM7.55662 21.4556C7.17279 21.2345 6.89692 21.0833 6.57306 20.8506C6.39314 21.2345 6.72899 21.665 7.07684 21.8628C7.23277 21.7116 7.40069 21.5836 7.55662 21.4556ZM26.1963 9.31986C26.1123 9.62238 25.8005 9.95981 25.5726 10.2042C26.2323 10.3787 26.892 10.623 27.5277 10.8557C27.4557 10.274 26.772 9.70383 26.1963 9.31986ZM5.5895 13.0665C10.1715 10.0529 15.2452 8.29594 23.8453 9.78528C24.3251 9.50603 24.589 9.25005 24.709 8.67991C22.5619 7.90034 20.235 7.63272 17.2243 7.67926C14.5135 7.74908 9.64369 8.76136 7.05285 10.3089L7.84449 9.31986C9.66768 8.2494 14.4056 6.82988 17.956 6.76007C20.4629 6.71352 21.7583 6.85315 24.7329 7.65599C24.4811 7.14403 23.8573 6.88806 22.9577 6.48082C20.079 5.17765 14.6934 5.06129 10.2794 7.00441C10.8432 6.64371 11.3829 6.29465 12.1026 5.96886C13.5539 5.30564 15.9409 4.65405 18.9155 4.7006C21.2905 4.7355 24.1212 5.57325 25.8484 7.2953C26.1363 7.63272 26.3042 7.99342 26.3762 8.28431C27.7436 8.98243 28.5352 9.63401 28.991 10.402C29.171 10.7859 29.2549 11.2281 29.171 11.7051C29.7347 12.0542 30.0106 12.3334 30.2865 12.7058C30.4904 13.0199 30.6463 13.3806 30.6823 13.7064C30.7303 14.1369 30.7782 14.6256 30.3344 15.1841C30.8142 15.4168 31.1741 16.0684 31.234 16.3593C31.4499 17.3948 30.7902 18.3955 29.9026 19.1867C28.8951 20.071 26.6761 21.1182 24.8649 21.5836C21.2665 22.4912 18.0999 22.8751 15.569 23.3405C16.6965 23.6082 18.2318 23.9805 20.7507 23.9805C26.1123 23.9805 30.8502 21.4323 30.8502 21.4323C30.8502 21.4323 30.7423 21.7698 30.6343 22.0606C27.2278 24.1318 21.8063 25.0044 19.5033 24.8997C17.1523 24.795 15.1732 24.4459 13.2421 23.8409C12.6423 24.0038 12.0666 24.1899 11.5029 24.4343C14.4535 25.7723 16.6725 26.0749 19.1914 26.261C21.7583 26.4472 26.0044 25.8305 29.6028 24.5274C29.4348 24.6903 29.3509 24.9462 29.183 25.1091C27.3478 26.0749 23.4615 27.0522 21.5064 27.1221C19.5633 27.2035 17.2003 27.1337 15.1372 26.7381C13.362 26.4007 11.9227 25.8305 10.3994 25.1673C10.1235 25.3651 9.97954 25.6327 9.93156 25.9236C15.8329 29.0186 21.3744 29.0884 27.6716 27.1221L27.0959 27.6806C20.163 30.4963 14.7414 29.4026 10.5553 27.378C10.4233 27.3199 10.2554 27.25 10.1355 27.1686C10.5193 27.8435 13.7219 30.1938 17.3083 30.4847C19.7792 30.6825 22.7898 30.2636 24.577 29.5422L23.5335 30.0891C22.6699 30.5196 20.3789 31.4853 17.1643 31.2759C12.8942 30.985 10.4833 29.0884 9.4038 28.0994C8.90002 27.634 8.67212 27.0988 8.51619 26.4356C7.54463 25.9236 6.9449 25.4 6.44112 24.6204C6.14125 24.155 6.20123 23.6431 6.2732 23.2009C6.29718 23.0613 6.33317 22.9333 6.38115 22.8053C5.91336 22.4679 5.44557 22.1072 5.24166 21.7465C4.82184 20.9786 5.07373 20.327 5.3736 19.815C5.12171 19.5241 4.88182 19.2332 4.77387 18.9424C4.66591 18.6166 4.64192 18.2791 4.67791 17.9068C4.76187 17.2669 5.09772 16.6734 5.54152 16.1615C6.4771 15.0794 7.94045 14.2416 10.4593 13.4039C12.9182 12.5894 13.9138 12.4614 15.7729 12.0309C17.944 11.5306 20.5348 11.3677 22.7059 10.6114C16.6486 9.55257 10.3634 10.5183 5.24166 14.0555L5.5895 13.0665Z" fill="white"/>
</g>
<defs>
<clipPath id="clip0_4003_2416">
<rect width="36" height="36" fill="white"/>
</clipPath>
</defs>
</svg>
