<svg xmlns="http://www.w3.org/2000/svg">
    <symbol fill="none" xmlns="http://www.w3.org/2000/svg" viewBox="0 0 32 32" id="icon-burger">
        <path fill-rule="evenodd" clip-rule="evenodd"
              d="M0 8C0 7.44772 0.397969 7 0.888889 7H31.1111C31.602 7 32 7.44772 32 8C32 8.55228 31.602 9 31.1111 9H0.888889C0.397969 9 0 8.55228 0 8Z"
              fill="white"></path>
        <path fill-rule="evenodd" clip-rule="evenodd"
              d="M0 16C0 15.4477 0.397969 15 0.888889 15H31.1111C31.602 15 32 15.4477 32 16C32 16.5523 31.602 17 31.1111 17H0.888889C0.397969 17 0 16.5523 0 16Z"
              fill="white"></path>
        <path fill-rule="evenodd" clip-rule="evenodd"
              d="M0 24C0 23.4477 0.397969 23 0.888889 23H31.1111C31.602 23 32 23.4477 32 24C32 24.5523 31.602 25 31.1111 25H0.888889C0.397969 25 0 24.5523 0 24Z"
              fill="white"></path>
    </symbol>
    <symbol fill="none" xmlns="http://www.w3.org/2000/svg" viewBox="0 0 170 36" id="logo-gazprombank-dark">
        <g clip-path="url(#clip0_5816_369)">
            <path fill-rule="evenodd" clip-rule="evenodd"
                  d="M0.623721 18C0.623721 8.42405 8.39625 0.616677 17.944 0.616677C27.5037 0.616677 35.2762 8.41241 35.2762 18C35.2762 27.5876 27.5037 35.3833 17.944 35.3833C8.39625 35.3833 0.623721 27.5876 0.623721 18ZM0 18C0 27.925 8.0484 36 17.944 36C27.8396 36 35.888 27.925 35.888 18C35.8999 8.07498 27.8396 0 17.944 0C8.0484 0 0 8.07498 0 18Z"
                  fill="#4F6AE8"></path>
            <path fill-rule="evenodd" clip-rule="evenodd"
                  d="M29.3629 16.1731C29.231 16.2895 29.087 16.4058 28.9191 16.5222C27.9236 17.2901 26.3643 17.8952 24.1932 18.4769C19.6832 19.687 16.4207 19.8732 12.6904 20.7808C11.9707 20.9553 11.215 21.1996 10.5073 21.4905C11.215 21.8396 11.9587 22.1654 12.7264 22.4563C14.2377 22.0257 14.9574 21.8279 17.1524 21.4556C17.98 21.316 20.5469 20.8622 22.418 20.4666C25.7645 19.7568 30.6703 18.2093 29.3629 16.1731ZM27.2039 11.9495C26.4962 11.6237 25.5966 11.3095 24.649 11.0535C24.2292 11.391 23.7254 11.6935 23.0297 11.9611C24.2052 12.1705 25.1048 12.4963 26.0884 12.7872C26.2803 12.8803 27.0839 12.124 27.2039 11.9495ZM10.7952 16.4407C15.1733 15.1492 19.7672 14.7536 24.4211 13.5086C22.5979 13.0199 21.6024 12.8105 19.6832 13.0316C16.8885 13.3574 13.8179 13.974 11.191 14.7536C10.1595 15.0561 4.73792 16.6036 6.29723 18.7562C6.29723 18.7911 7.23281 17.4879 10.7952 16.4407ZM7.77257 23.8525C7.76057 24.2597 8.01246 24.6088 8.54022 25.051C8.61219 24.8299 8.70815 24.6786 8.86408 24.4692C8.49225 24.2714 8.12041 24.0619 7.77257 23.8525ZM9.82365 23.6431C10.1475 23.4453 10.5433 23.2475 10.9991 23.0729C10.3754 22.8169 9.73969 22.5377 9.09198 22.2352C8.79211 22.4213 8.54022 22.6075 8.32432 22.817C8.8281 23.0962 9.31988 23.3755 9.82365 23.6431ZM26.6521 14.3115C25.7645 14.7187 24.5051 15.1492 22.6819 15.603C21.1946 15.9753 17.5722 16.4989 13.6739 17.3483C12.4385 17.6159 9.10397 18.4071 7.46071 19.8034C7.9165 20.1757 8.20437 20.2688 8.70815 20.548C9.39184 20.1175 10.3034 19.6987 11.6828 19.3263C14.0698 18.6864 15.857 18.4071 18.004 18.0697C20.139 17.7323 24.1452 16.8829 26.3763 16.0917C27.0959 15.8241 27.7676 15.4983 28.2714 15.1027C28.1275 14.9398 26.7001 14.2533 26.6521 14.3115ZM27.9475 13.5202C28.3794 13.7413 28.7752 13.8926 29.159 14.1602C29.4349 13.6366 29.267 13.2992 28.6912 12.8105C28.4753 13.0781 28.2114 13.3108 27.9475 13.5202ZM7.55666 21.4556C7.17284 21.2345 6.89696 21.0833 6.5731 20.8506C6.39318 21.2345 6.72903 21.665 7.07688 21.8628C7.23281 21.7116 7.40073 21.5836 7.55666 21.4556ZM26.1963 9.31986C26.1124 9.62238 25.8005 9.95981 25.5726 10.2042C26.2323 10.3787 26.892 10.623 27.5277 10.8557C27.4558 10.274 26.7721 9.70383 26.1963 9.31986ZM5.58954 13.0665C10.1715 10.0529 15.2452 8.29594 23.8454 9.78528C24.3252 9.50603 24.5891 9.25005 24.709 8.67991C22.562 7.90034 20.235 7.63272 17.2243 7.67926C14.5136 7.74908 9.64373 8.76136 7.05289 10.3089L7.84454 9.31986C9.66772 8.2494 14.4056 6.82988 17.956 6.76007C20.4629 6.71352 21.7583 6.85315 24.733 7.65599C24.4811 7.14403 23.8574 6.88806 22.9578 6.48082C20.0791 5.17765 14.6935 5.06129 10.2794 7.00441C10.8432 6.64371 11.383 6.29465 12.1026 5.96886C13.554 5.30564 15.9409 4.65405 18.9156 4.7006C21.2905 4.7355 24.1213 5.57325 25.8485 7.2953C26.1364 7.63272 26.3043 7.99342 26.3763 8.28431C27.7436 8.98243 28.5353 9.63401 28.9911 10.402C29.171 10.7859 29.255 11.2281 29.171 11.7051C29.7347 12.0542 30.0106 12.3334 30.2865 12.7058C30.4904 13.0199 30.6463 13.3806 30.6823 13.7064C30.7303 14.1369 30.7783 14.6256 30.3345 15.1841C30.8143 15.4168 31.1741 16.0684 31.2341 16.3593C31.45 17.3948 30.7903 18.3955 29.9027 19.1867C28.8951 20.071 26.6761 21.1182 24.8649 21.5836C21.2665 22.4912 18.1 22.8751 15.5691 23.3405C16.6966 23.6082 18.2319 23.9805 20.7508 23.9805C26.1124 23.9805 30.8503 21.4323 30.8503 21.4323C30.8503 21.4323 30.7423 21.7698 30.6343 22.0606C27.2279 24.1318 21.8063 25.0044 19.5033 24.8997C17.1524 24.795 15.1733 24.4459 13.2421 23.8409C12.6424 24.0038 12.0666 24.1899 11.5029 24.4343C14.4536 25.7723 16.6726 26.0749 19.1915 26.261C21.7583 26.4472 26.0044 25.8305 29.6028 24.5274C29.4349 24.6903 29.3509 24.9462 29.183 25.1091C27.3478 26.0749 23.4616 27.0522 21.5064 27.1221C19.5633 27.2035 17.2004 27.1337 15.1373 26.7381C13.3621 26.4007 11.9227 25.8305 10.3994 25.1673C10.1235 25.3651 9.97958 25.6327 9.9316 25.9236C15.833 29.0186 21.3745 29.0884 27.6717 27.1221L27.0959 27.6806C20.163 30.4963 14.7415 29.4026 10.5553 27.378C10.4234 27.3199 10.2555 27.25 10.1355 27.1686C10.5193 27.8435 13.7219 30.1938 17.3083 30.4847C19.7792 30.6825 22.7899 30.2636 24.5771 29.5422L23.5335 30.0891C22.6699 30.5196 20.3789 31.4853 17.1644 31.2759C12.8943 30.985 10.4834 29.0884 9.40384 28.0994C8.90006 27.634 8.67217 27.0988 8.51623 26.4356C7.54467 25.9236 6.94494 25.4 6.44116 24.6204C6.1413 24.155 6.20127 23.6431 6.27324 23.2009C6.29723 23.0613 6.33321 22.9333 6.38119 22.8053C5.9134 22.4679 5.44561 22.1072 5.2417 21.7465C4.82189 20.9786 5.07377 20.327 5.37364 19.815C5.12175 19.5241 4.88186 19.2332 4.77391 18.9424C4.66596 18.6166 4.64197 18.2791 4.67795 17.9068C4.76191 17.2669 5.09776 16.6734 5.54156 16.1615C6.47715 15.0794 7.94049 14.2416 10.4594 13.4039C12.9183 12.5894 13.9138 12.4614 15.773 12.0309C17.944 11.5306 20.5349 11.3677 22.7059 10.6114C16.6486 9.55257 10.3634 10.5183 5.2417 14.0555L5.58954 13.0665Z"
                  fill="#4F6AE8"></path>
            <path d="M58.4979 14.8702L59.1816 19.6756H57.8022L58.4979 14.8702ZM53.0763 25.8657H56.7826L57.2264 23.143H59.7693L60.2131 25.8657H63.9075L60.7888 10.1113H56.2069L53.0763 25.8657Z"
                  fill="#4F6AE8"></path>
            <path d="M67.4098 16.2082C67.9976 16.2082 69.0891 15.8243 69.0891 14.6607C69.0891 13.2878 67.8296 13.2063 67.4818 13.2063C67.062 13.2063 66.2703 13.2645 65.4787 13.6484L65.4307 10.2393C66.6662 9.91348 67.5658 9.83203 68.6093 9.83203C71.584 9.83203 72.9274 11.9264 72.9274 13.9626C72.9274 15.9523 71.7759 17.1623 70.6724 17.6278V17.779C71.7279 18.1165 73.1673 19.152 73.1673 21.5605C73.1673 24.5276 71.0922 26.1682 68.4534 26.1682C67.038 26.1682 66.1144 25.9587 64.9989 25.3537L65.0589 22.0841C66.0784 22.5263 66.7741 22.5612 67.4818 22.5612C68.6453 22.5612 69.1251 21.7002 69.1251 21.0602C69.1251 20.1759 68.5613 19.5825 67.3259 19.5825H65.8505V16.2082H67.4098Z"
                  fill="#4F6AE8"></path>
            <path d="M74.8826 10.1113H84.8261V25.8657H81.1798V13.8928H78.5289V25.8657H74.8826V10.1113Z"
                  fill="#4F6AE8"></path>
            <path d="M90.5595 13.5787H91.4231C92.2507 13.5787 92.7665 14.079 92.7665 15.3822C92.7665 17.0926 91.8909 17.209 91.4231 17.209H90.5595V13.5787ZM86.9131 25.8657H90.5595V20.6647H91.7829C95.3933 20.6647 96.5088 17.4184 96.5088 15.3473C96.5088 13.3111 95.2374 10.0997 91.7829 10.1114H86.9131V25.8657Z"
                  fill="#4F6AE8"></path>
            <path d="M103.25 22.2474C101.966 22.2474 101.307 20.7464 101.307 17.9655C101.307 15.1847 101.966 13.6837 103.25 13.6837C104.533 13.6837 105.205 15.1847 105.205 17.9655C105.205 20.7464 104.533 22.2474 103.25 22.2474ZM103.25 26.0521C107.568 26.0521 109.031 22.0147 109.031 17.9655C109.031 13.928 107.568 9.87891 103.25 9.87891C98.9317 9.87891 97.4684 13.928 97.4684 17.9655C97.4804 22.0147 98.9317 26.0521 103.25 26.0521Z"
                  fill="#4F6AE8"></path>
            <path d="M128.475 22.7125V19.1288H129.002C129.434 19.1288 130.586 19.1521 130.586 20.7694C130.586 22.4332 129.434 22.7125 129.002 22.7125H128.475ZM124.912 25.8657H129.266C130.202 25.8657 134.148 25.4701 134.16 20.6996C134.16 16.6737 131.101 15.9756 129.134 15.9756H128.487V13.8928H133.308V10.1113H124.912V25.8657Z"
                  fill="#4F6AE8"></path>
            <path d="M147.27 10.1113H150.845V15.7778H153.387V10.1113H156.962V25.8657H153.387V19.5593H150.845V25.8657H147.27V10.1113Z"
                  fill="#4F6AE8"></path>
            <path d="M159.349 10.1113H162.923L162.911 15.7778H163.691L165.73 10.1113H169.616L166.833 17.5813L170 25.8657H165.802L163.763 19.5244H162.911L162.923 25.8657H159.349V10.1113Z"
                  fill="#4F6AE8"></path>
            <path d="M46.0234 10.1113H53.4961V14.0325H49.7298V25.8657H46.0234V10.1113Z" fill="#4F6AE8"></path>
            <path d="M110.782 10.1113H113.877L116.612 13.823L119.359 10.1113H122.453V25.8657H118.807V16.2548L116.612 19.0124L114.429 16.2548V25.8657H110.782V10.1113Z"
                  fill="#4F6AE8"></path>
            <path d="M140.289 14.8937L140.973 19.6991H139.594L140.289 14.8937ZM134.868 25.8891H138.562L139.006 23.1664H141.549L141.992 25.8891H145.687L142.556 10.1348H137.974L134.868 25.8891Z"
                  fill="#4F6AE8"></path>
        </g>
        <defs>
            <clipPath id="clip0_5816_369">
                <rect width="170" height="36" fill="white"></rect>
            </clipPath>
        </defs>
    </symbol>
    <symbol fill="none" xmlns="http://www.w3.org/2000/svg" viewBox="0 0 16 16" id="icon-ok">
        <g clip-path="url(#clip0_4003_1952)">
            <path d="M3.14732 8.58755C2.73865 9.39089 3.20265 9.77489 4.26132 10.4309C5.16132 10.9869 6.40465 11.1902 7.20332 11.2716C6.87598 11.5862 8.37598 10.1436 4.05598 14.2989C3.13998 15.1769 4.61465 16.5856 5.52998 15.7262L8.00798 13.3362C8.95665 14.2489 9.86598 15.1236 10.486 15.7296C11.402 16.5922 12.876 15.1956 11.97 14.3022C11.902 14.2376 8.61198 11.0816 8.81265 11.2749C9.62132 11.1936 10.846 10.9782 11.7353 10.4342L11.7347 10.4336C12.7933 9.77422 13.2573 9.39089 12.8547 8.58755C12.6113 8.13155 11.9553 7.75022 11.082 8.40955C11.082 8.40955 9.90265 9.31289 8.00065 9.31289C6.09798 9.31289 4.91932 8.40955 4.91932 8.40955C4.04665 7.74689 3.38798 8.13155 3.14732 8.58755Z"
                  fill="#1E222E"></path>
            <path d="M7.99929 8.09467C10.318 8.09467 12.2113 6.28267 12.2113 4.052C12.2113 1.812 10.318 0 7.99929 0C5.67995 0 3.78662 1.812 3.78662 4.052C3.78662 6.28267 5.67995 8.09467 7.99929 8.09467ZM7.99929 2.05267C9.13862 2.05267 10.068 2.94667 10.068 4.052C10.068 5.148 9.13862 6.042 7.99929 6.042C6.85995 6.042 5.93062 5.148 5.93062 4.052C5.92995 2.946 6.85929 2.05267 7.99929 2.05267Z"
                  fill="#1E222E"></path>
        </g>
        <defs>
            <clipPath id="clip0_4003_1952">
                <rect width="16" height="16" fill="white"></rect>
            </clipPath>
        </defs>
    </symbol>
    <symbol fill="none" xmlns="http://www.w3.org/2000/svg" viewBox="0 0 17 14" id="icon-tg">
        <mask id="mask0_4003_1947" maskUnits="userSpaceOnUse" x="0" y="0" width="17" height="14">
            <path fill-rule="evenodd" clip-rule="evenodd" d="M0 0H16.8V14H0V0Z" fill="white"></path>
        </mask>
        <g mask="url(#mask0_4003_1947)">
            <path fill-rule="evenodd" clip-rule="evenodd"
                  d="M16.8 1.12484C16.7118 1.5163 16.6198 1.90698 16.5359 2.29936C15.993 4.8368 15.4519 7.37464 14.9099 9.9123C14.6765 11.0052 14.4448 12.0985 14.206 13.1902C14.1749 13.3321 14.1196 13.473 14.0513 13.6015C13.8688 13.9449 13.5682 14.0744 13.1981 13.9585C13.0294 13.9057 12.8594 13.8284 12.7168 13.7251C11.5095 12.8501 10.3083 11.9665 9.10515 11.0856C9.06159 11.0538 9.01695 11.0233 8.965 10.9867C8.92508 11.0208 8.88734 11.05 8.85293 11.0828C8.23179 11.6747 7.61057 12.2666 6.99048 12.8597C6.80573 13.0363 6.5955 13.1426 6.31919 13.1267C6.34206 12.785 6.36304 12.4543 6.38657 12.1239C6.43585 11.4319 6.4864 10.74 6.5366 10.048C6.54451 9.93907 6.57293 9.82753 6.55863 9.72171C6.50459 9.32273 6.72886 9.09145 7.00281 8.84727C9.23003 6.86166 11.4465 4.86401 13.6662 2.86991C13.6988 2.84069 13.741 2.81606 13.7602 2.77958C13.7953 2.71265 13.8167 2.63846 13.8438 2.56729C13.7689 2.54625 13.686 2.49402 13.6206 2.51064C13.486 2.5448 13.3509 2.60018 13.2329 2.67389C10.3397 4.4809 7.44865 6.29128 4.55787 8.10219C4.47667 8.15306 4.40697 8.18119 4.30273 8.14829C3.07632 7.76107 1.84717 7.38269 0.62085 6.99512C0.472485 6.94823 0.32482 6.87815 0.197881 6.78887C-0.0407353 6.62107 -0.0694638 6.3754 0.14401 6.17702C0.300377 6.03171 0.489714 5.90275 0.687315 5.82423C1.72053 5.41361 2.76079 5.02079 3.79908 4.62294C7.74345 3.11177 11.6878 1.60055 15.6333 0.0923977C15.7589 0.0444108 15.8957 0.0128278 16.0295 0.00254805C16.3845 -0.0246606 16.6477 0.167418 16.7562 0.512425C16.769 0.553063 16.7853 0.592651 16.8 0.632721V1.12484Z"
                  fill="#1E222E"></path>
        </g>
    </symbol>
    <symbol fill="none" xmlns="http://www.w3.org/2000/svg" viewBox="0 0 18 18" id="icon-vk">
        <g clip-path="url(#clip0_4003_1957)">
            <path d="M17.6931 3.21863C17.6145 2.47311 17.2823 1.77716 16.7522 1.24717C16.222 0.717171 15.5259 0.385258 14.7804 0.306927C10.9391 -0.104913 7.06481 -0.104913 3.22355 0.306927C2.47726 0.384377 1.78024 0.7159 1.24924 1.24597C0.718235 1.77605 0.385489 2.47248 0.30673 3.21863C-0.103383 7.0617 -0.103383 10.9375 0.30673 14.7806C0.3862 15.5259 0.718615 16.2214 1.2486 16.7514C1.77859 17.2814 2.47416 17.6138 3.21946 17.6933C7.06072 18.1051 10.935 18.1051 14.7763 17.6933C15.5223 17.6147 16.2188 17.2827 16.7496 16.7526C17.2805 16.2225 17.6135 15.5265 17.6931 14.7806C18.1032 10.9375 18.1032 7.0617 17.6931 3.21863ZM14.0859 12.2186C13.8241 12.2554 12.5437 12.2186 12.4772 12.2186C12.1454 12.2224 11.8255 12.0949 11.5874 11.8637C11.3174 11.6029 11.076 11.3166 10.8122 11.0456C10.7344 10.9624 10.6499 10.8858 10.5596 10.8165C10.3489 10.6549 10.1403 10.6917 10.041 10.9402C9.96354 11.2088 9.90947 11.4836 9.87946 11.7615C9.86207 12.012 9.70253 12.1706 9.42025 12.1869C9.24537 12.1972 9.07048 12.2002 8.89764 12.1961C8.26766 12.1918 7.64766 12.0383 7.08843 11.7482C6.4833 11.4113 5.95603 10.9506 5.54105 10.3961C4.85889 9.52477 4.31378 8.5675 3.82696 7.58056C3.80139 7.53045 3.3023 6.46988 3.29003 6.41874C3.24503 6.25204 3.29003 6.09147 3.42809 6.03522C3.51605 6.00147 5.16059 6.03522 5.18821 6.03522C5.31052 6.03455 5.42989 6.07271 5.52914 6.1442C5.62838 6.21569 5.70238 6.31683 5.74048 6.43306C6.04449 7.21148 6.46071 7.94125 6.97593 8.5992C7.04807 8.68686 7.13246 8.76367 7.2265 8.82727C7.36048 8.91931 7.4873 8.88761 7.54253 8.73215C7.60805 8.5179 7.64653 8.2963 7.65707 8.07249C7.66628 7.62863 7.65707 7.33715 7.63253 6.89329C7.61616 6.60897 7.51593 6.36045 7.09662 6.27965C6.96775 6.25613 6.9565 6.14977 7.03934 6.0434C7.21218 5.82352 7.44843 5.78772 7.71332 5.77545C8.10809 5.75193 8.50287 5.76727 8.89764 5.77545H8.98355C9.15535 5.77398 9.3268 5.79112 9.49491 5.82659C9.59425 5.8472 9.68434 5.89917 9.75192 5.97484C9.81949 6.05052 9.86097 6.1459 9.87025 6.24693C9.89056 6.35891 9.89913 6.47271 9.89582 6.58647C9.88559 7.07022 9.86207 7.55499 9.85696 8.03874C9.8522 8.23069 9.8697 8.42254 9.90912 8.61045C9.96537 8.8692 10.1423 8.93261 10.3182 8.74647C10.5462 8.50674 10.7551 8.24959 10.9431 7.97738C11.2761 7.48014 11.5506 6.94616 11.7613 6.38602C11.8758 6.09863 11.9658 6.03522 12.2726 6.03522H14.0174C14.1212 6.0334 14.2246 6.04719 14.3242 6.07613C14.3595 6.0854 14.3925 6.10185 14.4211 6.12445C14.4497 6.14706 14.4733 6.17532 14.4905 6.20749C14.5077 6.23965 14.5181 6.27501 14.521 6.31137C14.5239 6.34772 14.5192 6.38427 14.5073 6.41874C14.4214 6.80227 14.2148 7.1275 13.9959 7.44147C13.641 7.94363 13.2667 8.43352 12.9037 8.92954C12.8575 8.99503 12.8155 9.06335 12.7779 9.13409C12.6408 9.38056 12.651 9.51863 12.8495 9.72318C13.1665 10.0494 13.505 10.3542 13.8108 10.6897C14.0351 10.9337 14.2377 11.1969 14.4163 11.4761C14.6403 11.8239 14.5022 12.1552 14.0849 12.2145L14.0859 12.2186Z"
                  fill="#1E222E"></path>
        </g>
        <defs>
            <clipPath id="clip0_4003_1957">
                <rect width="18" height="18" fill="white"></rect>
            </clipPath>
        </defs>
    </symbol>
    <symbol viewBox="0 0 20 20" fill="none" xmlns="http://www.w3.org/2000/svg" id="icon-apple">
        <g clip-path="url(#clip0_5816_393)">
            <path d="M13.7511 0C12.6849 0.0737496 11.4387 0.756246 10.7124 1.64499C10.0499 2.45124 9.50492 3.64873 9.71741 4.81247C10.8824 4.84872 12.0862 4.14998 12.7836 3.24623C13.4361 2.40499 13.9299 1.21499 13.7511 0Z"
                  fill="#1E222E"/>
            <path d="M17.9609 6.71038C16.9372 5.42664 15.4984 4.68164 14.1397 4.68164C12.3459 4.68164 11.5872 5.54039 10.3409 5.54039C9.05595 5.54039 8.07971 4.68414 6.52847 4.68414C5.00473 4.68414 3.38224 5.61538 2.35349 7.20788C0.907251 9.45036 1.15475 13.6666 3.49849 17.2578C4.33723 18.5428 5.45722 19.9878 6.92222 20.0003C8.22596 20.0128 8.59346 19.1641 10.3597 19.1553C12.1259 19.1453 12.4609 20.0115 13.7622 19.9978C15.2284 19.9866 16.4097 18.3853 17.2484 17.1003C17.8497 16.1791 18.0734 15.7153 18.5396 14.6753C15.1484 13.3841 14.6047 8.56162 17.9609 6.71038Z"
                  fill="#1E222E"/>
        </g>
        <defs>
            <clipPath id="clip0_5816_393">
                <rect width="20" height="20" fill="white"/>
            </clipPath>
        </defs>
    </symbol>
    <symbol viewBox="0 0 17 17" fill="none" xmlns="http://www.w3.org/2000/svg" id="icon-google">
        <g clip-path="url(#clip0_5816_402)">
            <path d="M3.71163 0.271876C3.04654 -0.0957279 2.26565 -0.0872284 1.60481 0.277188L9.35 7.4221L11.9519 4.82018L3.71163 0.271876Z" fill="#1E222E"/>
            <path d="M0.828733 1.00879C0.639619 1.31796 0.53125 1.67175 0.53125 2.04679V14.9512C0.53125 15.3145 0.630057 15.6609 0.808547 15.9637L8.59729 8.17494L0.828733 1.00879Z" fill="#1E222E"/>
            <path d="M15.4033 6.72398L12.9214 5.35449L10.1325 8.14233L13.5504 11.2946L15.4043 10.2715C16.0715 9.90174 16.471 9.23877 16.471 8.49719C16.4699 7.75561 16.0715 7.09264 15.4033 6.72398Z" fill="#1E222E"/>
            <path d="M9.37608 8.89453L1.56609 16.7045C1.905 16.8979 2.27686 16.9999 2.65084 16.9999C3.01207 16.9999 3.37542 16.9085 3.70796 16.7247L12.5655 11.8364L9.37608 8.89453Z" fill="#1E222E"/>
        </g>
        <defs>
            <clipPath id="clip0_5816_402">
                <rect width="17" height="17" fill="white"/>
            </clipPath>
        </defs>
    </symbol>


</svg>
