<svg width="68" height="20" viewBox="0 0 68 20" fill="none" xmlns="http://www.w3.org/2000/svg">
<rect width="68" height="20" rx="4" fill="#141211"/>
<g clip-path="url(#clip0_1_94)">
<path d="M15.9392 6H14.6044V12.7689H15.9392V6Z" fill="white"/>
<path d="M13.0711 6.37876H11.7363V13.1475H13.0711V6.37876Z" fill="white"/>
<path d="M10.203 6.80162H8.86814V13.5716H10.203V6.80162Z" fill="white"/>
<path d="M7.33482 7.22917H6L6.00001 14H7.33482L7.33482 7.22917Z" fill="white"/>
<path d="M51.1944 9.60631L49.0452 7.21671H47.7887V12.7495H49.1006V9.21946L51.0628 11.3109H51.3052L53.2337 9.21946V12.7495H54.5456V7.21671H53.2891L51.1944 9.60631Z" fill="white"/>
<path d="M60.7955 7.21671L57.544 10.8128V7.21671H56.2321V12.7495H57.434L60.6855 9.15338V12.7495H61.9974V7.21671H60.7955Z" fill="white"/>
<path d="M40.7227 9.24122C40.7227 10.1221 41.2044 10.816 41.9438 11.107L40.5573 12.7495H42.163L43.4243 11.2553H44.7891V12.7495H46.101V7.21671H42.7611C41.5159 7.21671 40.7227 8.06858 40.7227 9.24122ZM44.7899 8.43528V10.0713H43.0044C42.4087 10.0713 42.0891 9.73929 42.0891 9.25251C42.0891 8.76572 42.4199 8.43367 43.0044 8.43367L44.7899 8.43528Z" fill="white"/>
<path d="M34.6265 8.32326C34.5462 10.2261 34.1448 11.4543 33.3588 11.4543H33.1621V12.7825L33.3717 12.7938C34.9477 12.8817 35.8188 11.4987 35.9617 8.478H38.0346V12.7495H39.3441V7.21671H34.6707L34.6265 8.32326Z" fill="white"/>
<path d="M29.6882 7.1394C27.9139 7.1394 26.6374 8.36765 26.6374 9.98276C26.6374 11.6535 28.0263 12.8382 29.6882 12.8382C31.4192 12.8382 32.764 11.5874 32.764 9.98276C32.764 8.37813 31.4192 7.1394 29.6882 7.1394ZM29.6882 11.51C28.6855 11.51 28.0022 10.8572 28.0022 9.98276C28.0022 9.08655 28.6863 8.45147 29.6882 8.45147C30.6902 8.45147 31.3967 9.11557 31.3967 9.98276C31.3967 10.8499 30.6805 11.51 29.6882 11.51Z" fill="white"/>
<path d="M25.2461 7.22714H20.616L20.5718 8.3337C20.506 9.92784 20.0901 11.4438 19.3041 11.4656L18.9404 11.4769V14L20.2635 13.9974V12.7502H24.8599V13.9974H26.1942V11.4656H25.2461V7.22714ZM23.9342 11.4656H21.1346C21.6083 10.7467 21.862 9.70621 21.9062 8.48924H23.9342V11.4656Z" fill="white"/>
</g>
<defs>
<clipPath id="clip0_1_94">
<rect width="56" height="8" fill="white" transform="translate(6 6)"/>
</clipPath>
</defs>
</svg>
