<svg width="24" height="24" viewBox="0 0 24 24" fill="none" xmlns="http://www.w3.org/2000/svg">
<path d="M19.841 4.50003H16.091V2.79549C16.0899 1.85458 15.3273 1.09205 14.3864 1.09094H9.61369C8.67278 1.09205 7.91025 1.85458 7.90915 2.79549V4.50003H4.15915C3.97088 4.50003 3.81824 4.65268 3.81824 4.84094V22.5682C3.81824 22.7565 3.97088 22.9091 4.15915 22.9091H19.841C20.0292 22.9091 20.1819 22.7565 20.1819 22.5682V4.84094C20.1819 4.65268 20.0292 4.50003 19.841 4.50003ZM8.59096 2.79549C8.59096 2.23064 9.04885 1.77276 9.61369 1.77276H14.3864C14.9513 1.77276 15.4091 2.23064 15.4091 2.79549V4.50003H8.59096V2.79549ZM19.5001 22.2273H4.50006V5.18185H7.90915V6.54549C7.90915 6.73376 8.06179 6.8864 8.25006 6.8864C8.43832 6.8864 8.59096 6.73376 8.59096 6.54549V5.18185H15.4091V6.54549C15.4091 6.73376 15.5618 6.8864 15.7501 6.8864C15.9383 6.8864 16.091 6.73376 16.091 6.54549V5.18185H19.5001V22.2273Z" fill="#141211" stroke="#141211" stroke-width="0.3"/>
</svg>
