<svg width="24" height="24" viewBox="0 0 24 24" fill="none" xmlns="http://www.w3.org/2000/svg">
<g clip-path="url(#clip0_1_57)">
<path d="M22.776 22.1332L16.1374 15.4946C17.5162 13.9636 18.3637 11.945 18.3637 9.72728C18.3637 4.96525 14.4894 1.09094 9.72732 1.09094C4.96525 1.09094 1.09094 4.96525 1.09094 9.72732C1.09094 14.4894 4.96525 18.3637 9.72732 18.3637C11.9451 18.3637 13.9636 17.5162 15.4946 16.1373L22.1332 22.776C22.222 22.8647 22.3383 22.9091 22.4546 22.9091C22.5709 22.9091 22.6872 22.8647 22.776 22.776C22.9535 22.5984 22.9535 22.3107 22.776 22.1332ZM9.72732 17.4546C5.46685 17.4546 2.00006 13.9882 2.00006 9.72732C2.00006 5.46643 5.46685 2.00002 9.72732 2.00002C13.9878 2.00002 17.4546 5.46638 17.4546 9.72732C17.4546 13.9883 13.9878 17.4546 9.72732 17.4546Z" fill="#141211" stroke="#141211" stroke-width="0.3"/>
</g>
<defs>
<clipPath id="clip0_1_57">
<rect width="24" height="24" fill="white"/>
</clipPath>
</defs>
</svg>
