<svg width="24" height="24" viewBox="0 0 24 24" fill="none" xmlns="http://www.w3.org/2000/svg">
<mask id="mask0_1_147" style="mask-type:luminance" maskUnits="userSpaceOnUse" x="1" y="3" width="22" height="18">
<path fill-rule="evenodd" clip-rule="evenodd" d="M1 3H23V21H1V3Z" fill="white"/>
</mask>
<g mask="url(#mask0_1_147)">
<path fill-rule="evenodd" clip-rule="evenodd" d="M23 4.44622C22.8844 4.94953 22.7641 5.45183 22.6541 5.95632C21.9432 9.21875 21.2346 12.4817 20.5249 15.7444C20.2192 17.1495 19.9158 18.5552 19.603 19.9588C19.5624 20.1412 19.4899 20.3224 19.4006 20.4876C19.1615 20.9292 18.7678 21.0957 18.2832 20.9467C18.0623 20.8787 17.8397 20.7793 17.653 20.6465C16.0719 19.5215 14.4989 18.3855 12.9234 17.253C12.8664 17.212 12.8079 17.1728 12.7399 17.1257C12.6876 17.1696 12.6382 17.2072 12.5931 17.2494C11.7797 18.0104 10.9662 18.7713 10.1542 19.5339C9.91227 19.761 9.63696 19.8977 9.27512 19.8772C9.30507 19.4379 9.33256 19.0127 9.36336 18.5878C9.4279 17.6981 9.49409 16.8085 9.55983 15.9189C9.57019 15.7788 9.60741 15.6354 9.58869 15.4993C9.51791 14.9864 9.8116 14.689 10.1703 14.3751C13.0869 11.8221 15.9895 9.25373 18.8963 6.68988C18.9389 6.65231 18.9941 6.62065 19.0193 6.57374C19.0653 6.48769 19.0932 6.39231 19.1288 6.3008C19.0307 6.27375 18.9221 6.20659 18.8365 6.22797C18.6602 6.27189 18.4834 6.34309 18.3288 6.43786C14.5401 8.76116 10.7542 11.0888 6.96864 13.4171C6.86231 13.4825 6.77103 13.5187 6.63452 13.4764C5.02852 12.9785 3.41891 12.492 1.81302 11.9937C1.61873 11.9334 1.42536 11.8433 1.25913 11.7285C0.946656 11.5128 0.909036 11.1969 1.18858 10.9419C1.39335 10.7551 1.64129 10.5893 1.90005 10.4883C3.25308 9.96035 4.61532 9.4553 5.97499 8.94378C11.1402 7.00084 16.3055 5.05785 21.4722 3.1188C21.6366 3.0571 21.8158 3.01649 21.9911 3.00328C22.4558 2.96829 22.8006 3.21525 22.9427 3.65883C22.9594 3.71108 22.9808 3.76198 23 3.8135V4.44622Z" fill="#141211"/>
</g>
</svg>
