<svg width="24" height="24" viewBox="0 0 24 24" fill="none" xmlns="http://www.w3.org/2000/svg">
<g clip-path="url(#clip0_1_61)">
<path d="M22.3366 17.9227L17.9205 14.9777C17.3601 14.607 16.6089 14.7289 16.1946 15.258L14.9082 16.9119C14.7429 17.1299 14.4424 17.1931 14.2032 17.0603L13.9586 16.9254C13.1474 16.4833 12.1381 15.9328 10.1046 13.8986C8.07107 11.8643 7.51952 10.8543 7.07738 10.0446L6.94321 9.79992C6.80853 9.56081 6.87057 9.25902 7.08863 9.09238L8.74146 7.80641C9.2703 7.39205 9.39245 6.64105 9.02215 6.08047L6.07713 1.66439C5.69763 1.09354 4.93624 0.922174 4.34873 1.27535L2.50208 2.38463C1.92186 2.72574 1.49617 3.27819 1.31428 3.9262C0.649304 6.34911 1.14956 10.5307 7.30938 16.6912C12.2094 21.5909 15.8572 22.9085 18.3645 22.9085C18.9415 22.911 19.5163 22.8359 20.0733 22.6853C20.7215 22.5036 21.274 22.0779 21.6149 21.4975L22.7253 19.6519C23.079 19.0643 22.9077 18.3024 22.3366 17.9227ZM22.0988 19.2789L20.991 21.1255C20.7462 21.5444 20.3488 21.8524 19.882 21.985C17.6453 22.5991 13.7375 22.0905 7.82382 16.1768C1.91014 10.2631 1.40154 6.35567 2.01564 4.11857C2.1484 3.65126 2.45679 3.25335 2.87622 3.00819L4.72286 1.90035C4.97778 1.74697 5.30824 1.82132 5.47292 2.06903L7.0727 4.47085L8.41542 6.48473C8.57622 6.72789 8.52339 7.05379 8.29399 7.23372L6.64079 8.5197C6.13768 8.9044 5.99401 9.60047 6.30376 10.1529L6.43504 10.3914C6.89971 11.2437 7.47742 12.3039 9.58657 14.4127C11.6957 16.5214 12.7556 17.0992 13.6074 17.5638L13.8463 17.6954C14.3987 18.0051 15.0948 17.8615 15.4795 17.3584L16.7655 15.7052C16.9455 15.4759 17.2712 15.4231 17.5145 15.5838L21.9302 18.5288C22.1781 18.6933 22.2524 19.024 22.0988 19.2789Z" fill="#141211" stroke="#141211" stroke-width="0.3"/>
</g>
<defs>
<clipPath id="clip0_1_61">
<rect width="24" height="24" fill="white"/>
</clipPath>
</defs>
</svg>
