<svg width="24" height="24" viewBox="0 0 24 24" fill="none" xmlns="http://www.w3.org/2000/svg">
<path fill-rule="evenodd" clip-rule="evenodd" d="M9.38181 7.20123C10.4261 7.92357 11.5054 8.71634 12.542 9.47934C13.5888 10.2508 14.6511 10.993 15.6675 11.7395C13.8452 12.9284 12.0152 14.0748 10.168 15.2467C9.90865 15.4103 9.66213 15.6093 9.38181 15.7346V7.20123ZM1.00617 8.42965V15.6371C1.00617 16.485 0.964396 17.2863 1.16238 17.8797C1.35945 18.4688 1.71545 18.943 2.13548 19.2869C2.57094 19.642 3.07634 19.9012 3.82013 19.9631C4.52032 20.0203 5.3404 19.9812 6.14731 19.9812H17.8699C18.6582 19.9812 19.4565 20.0338 20.2148 19.9631C21.5562 19.8379 22.4798 18.9732 22.8371 17.8452C23.031 17.2337 22.9934 16.4324 22.9934 15.6022V8.39382C22.9934 7.53942 23.0492 6.80323 22.8371 6.15079C22.6482 5.56956 22.3181 5.09164 21.8827 4.72727C21.4558 4.37034 20.9618 4.09624 20.2148 4.03296C19.4778 3.97153 18.6541 4.01481 17.8876 4.01481H6.16456C5.38989 4.01481 4.49626 3.97292 3.78562 4.03296C2.46605 4.14464 1.48069 5.04836 1.14558 6.16894C0.955315 6.80322 1.00617 7.6162 1.00617 8.42965Z" fill="#141211"/>
</svg>
