<svg width="24" height="24" viewBox="0 0 24 24" fill="none" xmlns="http://www.w3.org/2000/svg">
<mask id="mask0_1_151" style="mask-type:luminance" maskUnits="userSpaceOnUse" x="0" y="5" width="24" height="14">
<path fill-rule="evenodd" clip-rule="evenodd" d="M0 5H24V19H0V5Z" fill="white"/>
</mask>
<g mask="url(#mask0_1_151)">
<path fill-rule="evenodd" clip-rule="evenodd" d="M7.92898 5.97265C8.10115 5.58484 8.37473 5.34403 8.73062 5.2547C9.16196 5.14647 9.60749 5.07181 10.0505 5.04353C11.0907 4.97712 12.1332 4.96046 13.1615 5.18725C13.7311 5.31286 14.0157 5.62369 14.0255 6.2266C14.0416 7.20659 14.0074 8.18738 14.004 9.16785C14.002 9.75739 14.0181 10.347 14.0263 10.9365C14.0265 10.9566 14.028 10.9767 14.0314 10.9964C14.0915 11.338 14.1669 11.7055 14.5144 11.831C14.8454 11.9504 15.0802 11.6706 15.2833 11.4472C16.2368 10.3992 16.9288 9.1717 17.5368 7.89242C17.7881 7.36369 18.0015 6.81565 18.2251 6.27331C18.4264 5.78495 18.6494 5.62257 19.158 5.6188C20.4242 5.60943 21.6902 5.60086 22.9563 5.59197C23.9683 5.58484 24.216 5.9479 23.8219 6.90706C23.3671 8.01378 22.6551 8.9578 21.9638 9.9124C21.4815 10.5786 20.977 11.2281 20.5052 11.9019C19.8565 12.8287 19.895 13.161 20.6751 13.9748C21.5014 14.8366 22.3396 15.6875 23.1392 16.575C23.4252 16.8927 23.6383 17.2896 23.8404 17.6749C24.1345 18.2355 23.9477 18.6705 23.3542 18.8596C23.1713 18.9179 22.9729 18.9453 22.7809 18.9493C21.6806 18.9722 20.5802 18.9899 19.4797 18.9973C18.809 19.0018 18.2498 18.6901 17.7814 18.237C17.2862 17.7579 16.8425 17.2228 16.369 16.7193C16.1327 16.4681 15.8971 16.2107 15.6312 15.9953C15.1054 15.5696 14.6179 15.6683 14.3669 16.3086C14.1852 16.7717 14.082 17.2868 14.0459 17.7866C13.9796 18.7033 13.722 18.9885 12.8262 18.9972C11.7543 19.0075 10.6879 19.0069 9.64552 18.6772C7.81487 18.0981 6.36419 16.9683 5.16323 15.4669C3.42128 13.2893 2.10513 10.8418 0.893496 8.32918C0.617421 7.75671 0.356467 7.17615 0.103852 6.59223C-0.142683 6.02208 0.0528772 5.68698 0.65686 5.67104C1.74713 5.6422 2.83803 5.63587 3.92861 5.62417C4.5262 5.61776 4.9174 5.87764 5.15505 6.47687C5.79925 8.10191 6.60924 9.63938 7.64168 11.043C7.82726 11.2953 8.05119 11.5302 8.29554 11.7219C8.65634 12.0047 9.00506 11.9027 9.15292 11.4631C9.2721 11.1086 9.3703 10.7276 9.37779 10.3563C9.39727 9.38792 9.42011 8.41273 9.33188 7.45101C9.24404 6.49273 8.94045 6.23597 7.92898 5.97265Z" fill="#141211"/>
</g>
</svg>
