<svg width="24" height="24" viewBox="0 0 24 24" fill="none" xmlns="http://www.w3.org/2000/svg">
<path d="M16.9091 2.00012C14.9546 2.00314 13.1236 2.95644 12 4.5557C10.8765 2.95644 9.04549 2.00314 7.09094 2.00012C3.89456 2.00012 1.09094 4.97402 1.09094 8.36376C1.09094 11.6674 2.95635 15.0699 6.48583 18.2038C8.12113 19.653 9.91498 20.9128 11.8331 21.9595C11.9379 22.0134 12.0622 22.0134 12.1669 21.9595C14.0844 20.9128 15.8777 19.6528 17.5125 18.2038C21.0437 15.0699 22.9091 11.6674 22.9091 8.36376C22.9091 4.97402 20.1055 2.00012 16.9091 2.00012V2.00012ZM12 21.223C10.6645 20.4859 1.81822 15.3368 1.81822 8.36376C1.81822 5.36127 4.28182 2.72739 7.09094 2.72739C8.994 2.73077 10.7483 3.7574 11.6833 5.41507C11.7532 5.52196 11.8724 5.58624 12 5.58624C12.1277 5.58624 12.2468 5.52196 12.3168 5.41507C13.2518 3.7574 15.0061 2.73077 16.9091 2.72739C19.7183 2.72739 22.1819 5.36127 22.1819 8.36376C22.1819 15.3368 13.3356 20.4859 12 21.223Z" fill="#141211" stroke="#141211" stroke-width="0.3"/>
</svg>
