<svg width="24" height="24" viewBox="0 0 24 24" fill="none" xmlns="http://www.w3.org/2000/svg">
<g clip-path="url(#clip0_5311_2356)">
<path d="M22.3365 17.9228L17.9204 14.9778C17.36 14.6071 16.6088 14.7291 16.1945 15.2581L14.9081 16.9121C14.7428 17.13 14.4423 17.1933 14.2031 17.0604L13.9584 16.9255C13.1473 16.4834 12.138 15.9329 10.1045 13.8987C8.07095 11.8645 7.5194 10.8544 7.07726 10.0447L6.94309 9.80004C6.80841 9.56093 6.87045 9.25914 7.08851 9.0925L8.74133 7.80653C9.27017 7.39217 9.39233 6.64118 9.02203 6.08059L6.07701 1.66452C5.69751 1.09366 4.93612 0.922296 4.3486 1.27547L2.50196 2.38475C1.92173 2.72586 1.49604 3.27831 1.31415 3.92632C0.649182 6.34923 1.14943 10.5308 7.30926 16.6913C12.2093 21.591 15.8571 22.9086 18.3644 22.9086C18.9414 22.9111 19.5162 22.836 20.0732 22.6854C20.7214 22.5037 21.2739 22.078 21.6148 21.4976L22.7252 19.652C23.0789 19.0644 22.9076 18.3025 22.3365 17.9228ZM22.0987 19.279L20.9909 21.1256C20.7461 21.5445 20.3487 21.8525 19.8819 21.9851C17.6452 22.5992 13.7374 22.0906 7.8237 16.1769C1.91002 10.2632 1.40141 6.35579 2.01551 4.1187C2.14828 3.65138 2.45667 3.25347 2.8761 3.00831L4.72274 1.90047C4.97766 1.74709 5.30812 1.82144 5.4728 2.06916L7.07258 4.47097L8.4153 6.48485C8.5761 6.72801 8.52327 7.05391 8.29387 7.23385L6.64066 8.51982C6.13756 8.90452 5.99389 9.6006 6.30364 10.153L6.43491 10.3916C6.89959 11.2438 7.4773 12.304 9.58645 14.4128C11.6956 16.5216 12.7555 17.0993 13.6073 17.5639L13.8462 17.6956C14.3986 18.0053 15.0947 17.8616 15.4794 17.3585L16.7654 15.7053C16.9453 15.4761 17.2711 15.4233 17.5143 15.5839L21.93 18.5289C22.1779 18.6935 22.2523 19.0241 22.0987 19.279Z" fill="#141211" stroke="#141211" stroke-width="0.3"/>
</g>
<defs>
<clipPath id="clip0_5311_2356">
<rect width="24" height="24" fill="white"/>
</clipPath>
</defs>
</svg>
