<svg width="24" height="24" viewBox="0 0 24 24" fill="none" xmlns="http://www.w3.org/2000/svg">
<path d="M16.909 2.00024C14.9545 2.00326 13.1235 2.95657 11.9999 4.55582C10.8763 2.95657 9.04537 2.00326 7.09082 2.00024C3.89444 2.00024 1.09082 4.97414 1.09082 8.36388C1.09082 11.6675 2.95623 15.07 6.48571 18.2039C8.12101 19.6531 9.91486 20.9129 11.833 21.9596C11.9378 22.0136 12.0621 22.0136 12.1668 21.9596C14.0843 20.9129 15.8776 19.6529 17.5123 18.2039C21.0436 15.07 22.909 11.6675 22.909 8.36388C22.909 4.97414 20.1054 2.00024 16.909 2.00024V2.00024ZM11.9999 21.2231C10.6643 20.486 1.81809 15.3369 1.81809 8.36388C1.81809 5.36139 4.28169 2.72752 7.09082 2.72752C8.99387 2.73089 10.7481 3.75752 11.6832 5.41519C11.7531 5.52208 11.8722 5.58636 11.9999 5.58636C12.1276 5.58636 12.2467 5.52208 12.3167 5.41519C13.2517 3.75752 15.0059 2.73089 16.909 2.72752C19.7181 2.72752 22.1817 5.36139 22.1817 8.36388C22.1817 15.3369 13.3355 20.486 11.9999 21.2231Z" fill="#141211" stroke="#141211" stroke-width="0.3"/>
</svg>
