<svg width="24" height="24" viewBox="0 0 24 24" fill="none" xmlns="http://www.w3.org/2000/svg">
<g clip-path="url(#clip0_5311_2352)">
<path d="M22.7758 22.1331L16.1372 15.4944C17.5161 13.9635 18.3636 11.9449 18.3636 9.72716C18.3635 4.96512 14.4893 1.09082 9.7272 1.09082C4.96513 1.09082 1.09082 4.96512 1.09082 9.7272C1.09082 14.4893 4.96513 18.3636 9.7272 18.3636C11.9449 18.3636 13.9635 17.5161 15.4945 16.1372L22.1331 22.7758C22.2219 22.8646 22.3382 22.909 22.4545 22.909C22.5708 22.909 22.6871 22.8646 22.7759 22.7758C22.9534 22.5983 22.9534 22.3106 22.7758 22.1331ZM9.7272 17.4545C5.46673 17.4545 1.99994 13.9881 1.99994 9.7272C1.99994 5.4663 5.46673 1.9999 9.7272 1.9999C13.9877 1.9999 17.4545 5.46626 17.4545 9.7272C17.4545 13.9881 13.9877 17.4545 9.7272 17.4545Z" fill="#141211" stroke="#141211" stroke-width="0.3"/>
</g>
<defs>
<clipPath id="clip0_5311_2352">
<rect width="24" height="24" fill="white"/>
</clipPath>
</defs>
</svg>
