<svg width="24" height="24" viewBox="0 0 24 24" fill="none" xmlns="http://www.w3.org/2000/svg">
<path fill-rule="evenodd" clip-rule="evenodd" d="M11.9975 2H12.0025C17.5162 2 22 6.48625 22 12C22 17.5138 17.5162 22 12.0025 22C9.96875 22 8.0825 21.395 6.50125 20.3475L2.6575 21.5763L3.90375 17.8612C2.705 16.215 2 14.1875 2 12C2 6.485 6.48375 2 11.9975 2ZM15.8592 17.5325C16.6229 17.3675 17.5804 16.8025 17.8217 16.1212C18.0629 15.4387 18.0629 14.8575 17.9929 14.7337C17.9364 14.6355 17.8028 14.5712 17.6032 14.4751C17.5513 14.4501 17.4949 14.423 17.4342 14.3925C17.1404 14.2462 15.7117 13.54 15.4417 13.4462C15.1767 13.3462 14.9242 13.3812 14.7242 13.6637C14.6861 13.717 14.6482 13.7704 14.6105 13.8234C14.3692 14.1628 14.1364 14.4901 13.9429 14.6987C13.7667 14.8862 13.4792 14.91 13.2379 14.81C13.2116 14.799 13.1815 14.7868 13.1477 14.7732C12.7657 14.6189 11.9185 14.2767 10.8929 13.3637C10.0279 12.5937 9.44043 11.635 9.27043 11.3475C9.10352 11.0591 9.24749 10.89 9.38055 10.7337C9.38302 10.7308 9.38548 10.7279 9.38793 10.725C9.47372 10.6188 9.55697 10.5305 9.64064 10.4416C9.70082 10.3777 9.76122 10.3136 9.82293 10.2425C9.8321 10.2319 9.84101 10.2217 9.84969 10.2117C9.98073 10.061 10.0588 9.9713 10.1467 9.78373C10.2467 9.58998 10.1754 9.38998 10.1042 9.24248C10.0552 9.13918 9.75233 8.40444 9.49237 7.7737C9.38112 7.50379 9.27773 7.25292 9.20543 7.07873C9.01168 6.61498 8.86418 6.59748 8.57043 6.58498C8.56143 6.58453 8.55235 6.58407 8.54317 6.58361C8.45031 6.57891 8.34805 6.57373 8.23543 6.57373C7.85293 6.57373 7.45418 6.68623 7.21293 6.93248C7.2045 6.94109 7.19571 6.95003 7.18659 6.9593C6.87795 7.27319 6.19043 7.97241 6.19043 9.36623C6.19043 10.7627 7.1813 12.1143 7.36465 12.3643C7.3697 12.3712 7.37414 12.3773 7.37793 12.3825C7.38896 12.397 7.40975 12.4271 7.44002 12.4709C7.81437 13.013 9.63772 15.6535 12.3567 16.78C14.6542 17.7325 15.3367 17.6437 15.8592 17.5325Z" fill="#141211"/>
</svg>
