<svg width="24" height="24" viewBox="0 0 24 24" fill="none" xmlns="http://www.w3.org/2000/svg">
<path fill-rule="evenodd" clip-rule="evenodd" d="M3.5 8C3.5 7.72386 3.72386 7.5 4 7.5H13C13.2761 7.5 13.5 7.72386 13.5 8C13.5 8.27614 13.2761 8.5 13 8.5H4C3.72386 8.5 3.5 8.27614 3.5 8Z" fill="black"/>
<path fill-rule="evenodd" clip-rule="evenodd" d="M16.5 8C16.5 7.72386 16.7239 7.5 17 7.5H20C20.2761 7.5 20.5 7.72386 20.5 8C20.5 8.27614 20.2761 8.5 20 8.5H17C16.7239 8.5 16.5 8.27614 16.5 8Z" fill="black"/>
<path fill-rule="evenodd" clip-rule="evenodd" d="M10.5 16C10.5 15.7239 10.7239 15.5 11 15.5H20C20.2761 15.5 20.5 15.7239 20.5 16C20.5 16.2761 20.2761 16.5 20 16.5H11C10.7239 16.5 10.5 16.2761 10.5 16Z" fill="black"/>
<path fill-rule="evenodd" clip-rule="evenodd" d="M3.5 16C3.5 15.7239 3.72386 15.5 4 15.5H7C7.27614 15.5 7.5 15.7239 7.5 16C7.5 16.2761 7.27614 16.5 7 16.5H4C3.72386 16.5 3.5 16.2761 3.5 16Z" fill="black"/>
<path fill-rule="evenodd" clip-rule="evenodd" d="M9 14.5C8.17157 14.5 7.5 15.1716 7.5 16C7.5 16.8284 8.17157 17.5 9 17.5C9.82843 17.5 10.5 16.8284 10.5 16C10.5 15.1716 9.82843 14.5 9 14.5ZM6.5 16C6.5 14.6193 7.61929 13.5 9 13.5C10.3807 13.5 11.5 14.6193 11.5 16C11.5 17.3807 10.3807 18.5 9 18.5C7.61929 18.5 6.5 17.3807 6.5 16Z" fill="black"/>
<path fill-rule="evenodd" clip-rule="evenodd" d="M15 6.5C14.1716 6.5 13.5 7.17157 13.5 8C13.5 8.82843 14.1716 9.5 15 9.5C15.8284 9.5 16.5 8.82843 16.5 8C16.5 7.17157 15.8284 6.5 15 6.5ZM12.5 8C12.5 6.61929 13.6193 5.5 15 5.5C16.3807 5.5 17.5 6.61929 17.5 8C17.5 9.38071 16.3807 10.5 15 10.5C13.6193 10.5 12.5 9.38071 12.5 8Z" fill="black"/>
</svg>
