<svg width="56" height="8" viewBox="0 0 56 8" fill="none" xmlns="http://www.w3.org/2000/svg">
<g clip-path="url(#clip0_1111_210)">
<path d="M9.93925 0H8.60443V6.76887H9.93925V0Z" fill="white"/>
<path d="M7.07111 0.378764H5.73629V7.14749H7.07111V0.378764Z" fill="white"/>
<path d="M4.20296 0.801615H2.86814V7.57162H4.20296V0.801615Z" fill="white"/>
<path d="M1.33482 1.22917H0L5.08626e-06 8H1.33482L1.33482 1.22917Z" fill="white"/>
<path d="M45.1944 3.60631L43.0452 1.21671H41.7887V6.74948H43.1006V3.21946L45.0628 5.31088H45.3052L47.2337 3.21946V6.74948H48.5456V1.21671H47.2891L45.1944 3.60631Z" fill="white"/>
<path d="M54.7955 1.21671L51.544 4.8128V1.21671H50.2321V6.74948H51.434L54.6855 3.15338V6.74948H55.9974V1.21671H54.7955Z" fill="white"/>
<path d="M34.7227 3.24122C34.7227 4.12211 35.2044 4.81603 35.9438 5.10697L34.5573 6.74948H36.163L37.4243 5.25527H38.7891V6.74948H40.101V1.21671H36.7611C35.5159 1.21671 34.7227 2.06858 34.7227 3.24122ZM38.7899 2.43528V4.07134H37.0044C36.4087 4.07134 36.0891 3.73929 36.0891 3.25251C36.0891 2.76572 36.4199 2.43367 37.0044 2.43367L38.7899 2.43528Z" fill="white"/>
<path d="M28.6265 2.32326C28.5462 4.22608 28.1448 5.45433 27.3588 5.45433H27.1621V6.78252L27.3717 6.7938C28.9477 6.88165 29.8188 5.49866 29.9617 2.478H32.0346V6.74948H33.3441V1.21671H28.6707L28.6265 2.32326Z" fill="white"/>
<path d="M23.6882 1.1394C21.9139 1.1394 20.6374 2.36765 20.6374 3.98276C20.6374 5.65347 22.0263 6.8382 23.6882 6.8382C25.4192 6.8382 26.764 5.58738 26.764 3.98276C26.764 2.37813 25.4192 1.1394 23.6882 1.1394ZM23.6882 5.51001C22.6855 5.51001 22.0022 4.8572 22.0022 3.98276C22.0022 3.08655 22.6863 2.45147 23.6882 2.45147C24.6902 2.45147 25.3967 3.11557 25.3967 3.98276C25.3967 4.84995 24.6805 5.51001 23.6882 5.51001Z" fill="white"/>
<path d="M19.2461 1.22714H14.616L14.5718 2.3337C14.506 3.92784 14.0901 5.44381 13.3041 5.46558L12.9404 5.47686V8.00002L14.2635 7.99736V6.75024H18.8599V7.99736H20.1942V5.46558H19.2461V1.22714ZM17.9342 5.46558H15.1346C15.6083 4.74668 15.862 3.70621 15.9062 2.48924H17.9342V5.46558Z" fill="white"/>
</g>
<defs>
<clipPath id="clip0_1111_210">
<rect width="56" height="8" fill="white"/>
</clipPath>
</defs>
</svg>
