<svg width="20" height="20" viewBox="0 0 20 20" fill="none" xmlns="http://www.w3.org/2000/svg">
<g clip-path="url(#clip0_4149_5949)">
<path d="M18.7576 9.59456C18.7592 9.59456 18.7604 9.59456 18.762 9.59456C18.8736 9.59456 18.98 9.54776 19.0556 9.46576C19.1324 9.38256 19.1704 9.27096 19.1604 9.15816C18.7588 4.74096 15.2616 1.24256 10.844 0.840156C10.732 0.831356 10.6192 0.867756 10.536 0.944956C10.4528 1.02176 10.4064 1.13016 10.4076 1.24336C10.4772 7.11376 11.2516 9.51256 18.7576 9.59456ZM18.7576 10.4058C11.2516 10.4878 10.4776 12.8866 10.408 18.757C10.4068 18.8702 10.4532 18.9786 10.5364 19.0554C10.6108 19.1238 10.708 19.1618 10.808 19.1618C10.82 19.1618 10.8324 19.1614 10.8444 19.1602C15.262 18.7578 18.7592 15.2598 19.1604 10.8422C19.1704 10.7294 19.1328 10.6178 19.0556 10.5346C18.9784 10.4514 18.8708 10.4102 18.7576 10.4058ZM9.1292 0.842156C4.7256 1.25616 1.2396 4.75376 0.840001 9.15896C0.830001 9.27176 0.867601 9.38336 0.944801 9.46656C1.0204 9.54856 1.1272 9.59496 1.2384 9.59496C1.24 9.59496 1.2416 9.59496 1.2432 9.59496C8.7244 9.50896 9.4968 7.11136 9.5672 1.24496C9.5684 1.13176 9.5216 1.02296 9.4384 0.946156C9.3544 0.869356 9.242 0.831756 9.1292 0.842156ZM1.2428 10.4054C1.1184 10.3914 1.0208 10.4506 0.944401 10.5338C0.867601 10.617 0.829601 10.7286 0.839601 10.8414C1.2392 15.2466 4.7256 18.7442 9.1292 19.1582C9.1416 19.1594 9.1544 19.1598 9.1668 19.1598C9.2668 19.1598 9.3636 19.1222 9.438 19.0538C9.5212 18.977 9.568 18.8682 9.5668 18.755C9.4964 12.889 8.7244 10.4914 1.2428 10.4054Z" fill="#4A5157"/>
</g>
<defs>
<clipPath id="clip0_4149_5949">
<rect width="20" height="20" fill="white"/>
</clipPath>
</defs>
</svg>
