<svg width="24" height="24" viewBox="0 0 24 24" fill="none" xmlns="http://www.w3.org/2000/svg">
<path d="M19.8408 4.49991H16.0908V2.79537C16.0897 1.85446 15.3272 1.09193 14.3863 1.09082H9.61357C8.67266 1.09193 7.91013 1.85446 7.90902 2.79537V4.49991H4.15902C3.97076 4.49991 3.81812 4.65255 3.81812 4.84082V22.5681C3.81812 22.7564 3.97076 22.909 4.15902 22.909H19.8408C20.0291 22.909 20.1818 22.7564 20.1818 22.5681V4.84082C20.1818 4.65255 20.0291 4.49991 19.8408 4.49991ZM8.59084 2.79537C8.59084 2.23052 9.04873 1.77264 9.61357 1.77264H14.3863C14.9511 1.77264 15.409 2.23052 15.409 2.79537V4.49991H8.59084V2.79537ZM19.4999 22.2272H4.49993V5.18173H7.90902V6.54537C7.90902 6.73363 8.06167 6.88627 8.24993 6.88627C8.4382 6.88627 8.59084 6.73363 8.59084 6.54537V5.18173H15.409V6.54537C15.409 6.73363 15.5617 6.88627 15.7499 6.88627C15.9382 6.88627 16.0908 6.73363 16.0908 6.54537V5.18173H19.4999V22.2272Z" fill="#141211" stroke="#141211" stroke-width="0.3"/>
</svg>
