<svg width="500" height="149" viewBox="0 0 500 149" fill="none" xmlns="http://www.w3.org/2000/svg">
	<path
		d="M470.033 145.713H454.382V105.395C434.111 103.204 423.974 93.1242 423.974 75.1566V3.28564H439.626V75.1566C439.626 86.8428 447.079 92.6859 461.988 92.6859C476.891 92.6859 484.348 86.8428 484.348 75.1566V3.28564H500V75.1566C500 93.1242 490.013 103.204 470.033 105.395V145.713Z"
		fill="#706F5B" fill-opacity="0.05" />
	<path
		d="M340.796 16.4329V3.28564H413.913V16.4329L353.765 132.565H412.795V145.713H337.442V132.565L397.59 16.4329H340.796Z"
		fill="#706F5B" fill-opacity="0.05" />
	<path
		d="M260.98 16.4329V3.28564H334.098V16.4329L273.949 132.565H332.98V145.713H257.627V132.565L317.775 16.4329H260.98Z"
		fill="#706F5B" fill-opacity="0.05" />
	<path
		d="M178.188 118.323V3.28564H193.841V118.323C193.841 123.873 195.033 128.183 197.418 131.251C199.952 134.319 204.499 135.852 211.058 135.852C217.617 135.852 223.654 133.369 229.17 128.402C234.685 123.436 237.443 118.615 237.443 113.941V3.28564H253.095V145.713H246.387L240.573 131.689C237.294 136.948 233.045 141.184 227.828 144.398C222.76 147.465 217.17 148.999 211.058 148.999C189.145 148.999 178.188 138.774 178.188 118.323Z"
		fill="#706F5B" fill-opacity="0.05" />
	<path
		d="M165.935 30.6765V118.323C165.935 128.111 162.731 135.707 156.321 141.112C150.06 146.371 140.594 149 127.924 149C115.402 149 105.936 146.371 99.5259 141.112C93.1162 135.707 89.9111 128.111 89.9111 118.323V30.6765C89.9111 20.8891 93.042 13.3661 99.3026 8.10744C105.712 2.70266 115.178 0 127.7 0C140.37 0 149.911 2.70266 156.321 8.10744C162.731 13.3661 165.935 20.8891 165.935 30.6765ZM150.283 118.323V30.6765C150.283 18.9903 142.83 13.1472 127.924 13.1472C113.017 13.1472 105.563 18.9903 105.563 30.6765V118.323C105.563 130.01 113.017 135.853 127.924 135.853C142.83 135.853 150.283 130.01 150.283 118.323Z"
		fill="#706F5B" fill-opacity="0.05" />
	<path d="M15.6521 145.713H0V3.28564H15.6521V66.8302H59.7012V3.28564H75.3533V145.713H59.7012V79.9769H15.6521V145.713Z"
		fill="#706F5B" fill-opacity="0.05" />
</svg>