<svg width="54" height="40" viewBox="0 0 54 40" fill="none" xmlns="http://www.w3.org/2000/svg">
<rect width="54" height="40" rx="4" fill="#333438"/>
<g clip-path="url(#clip0_3982_2318)">
<path d="M15 14.0395V16.6668H18.752L15 14.0395ZM18.1093 28.6668H23.6667V24.7755L18.1093 28.6668ZM30.3333 24.7762V28.6668H35.89L30.3333 24.7762ZM15 23.3335V25.9608L18.7533 23.3335H15ZM35.8913 11.3335H30.3333V15.2248L35.8913 11.3335ZM39 25.9615V23.3335H35.246L39 25.9615ZM39 16.6668V14.0395L35.2473 16.6668H39ZM23.6667 11.3335H18.1093L23.6667 15.2248V11.3335Z" fill="#00247D"/>
<path d="M31.7598 23.3335L38.2345 27.8675C38.5507 27.5417 38.7779 27.1402 38.8945 26.7015L34.0845 23.3335H31.7598ZM23.6665 23.3335H22.2392L15.7652 27.8668C16.1125 28.2202 16.5578 28.4728 17.0572 28.5902L23.6665 23.9622V23.3335ZM30.3332 16.6668H31.7605L38.2345 12.1335C37.8812 11.775 37.4334 11.5242 36.9432 11.4102L30.3332 16.0382V16.6668ZM22.2392 16.6668L15.7652 12.1335C15.4491 12.4595 15.2217 12.8609 15.1045 13.2995L19.9145 16.6668H22.2392Z" fill="#CF1B2B"/>
<path d="M39 22.0002H29V28.6668H30.3333V24.7762L35.89 28.6668H36.3333C36.6875 28.6669 37.0381 28.5962 37.3646 28.4589C37.6911 28.3217 37.9869 28.1206 38.2347 27.8675L31.76 23.3335H34.0847L38.8947 26.7015C38.9567 26.4768 39 26.2442 39 26.0002V25.9615L35.246 23.3335H39V22.0002ZM15 22.0002V23.3335H18.7533L15 25.9608V26.0002C15 26.7275 15.2927 27.3855 15.7653 27.8668L22.2393 23.3335H23.6667V23.9622L17.0573 28.5895C17.2533 28.6362 17.456 28.6668 17.6667 28.6668H18.1093L23.6667 24.7755V28.6668H25V22.0002H15ZM39 14.0002C39.0004 13.3015 38.7254 12.6308 38.2347 12.1335L31.7607 16.6668H30.3333V16.0382L36.9433 11.4102C36.7436 11.3612 36.5389 11.3355 36.3333 11.3335H35.8913L30.3333 15.2248V11.3335H29V18.0002H39V16.6668H35.2473L39 14.0395V14.0002ZM23.6667 11.3335V15.2248L18.1093 11.3335H17.6667C17.3124 11.3333 16.9617 11.404 16.6352 11.5414C16.3087 11.6788 16.0129 11.8801 15.7653 12.1335L22.2393 16.6668H19.9147L15.1047 13.2995C15.0385 13.5273 15.0033 13.763 15 14.0002V14.0395L18.752 16.6668H15V18.0002H25V11.3335H23.6667Z" fill="#EEEEEE"/>
<path d="M29 18.0002V11.3335H25V18.0002H15V22.0002H25V28.6668H29V22.0002H39V18.0002H29Z" fill="#CF1B2B"/>
</g>
<defs>
<clipPath id="clip0_3982_2318">
<rect width="24" height="24" fill="white" transform="translate(15 8)"/>
</clipPath>
</defs>
</svg>
