<svg width="160" height="48" viewBox="0 0 160 48" fill="none" xmlns="http://www.w3.org/2000/svg">
<g id="Google Play - rus">
<g id="Group">
<path id="Vector" d="M154.074 0H5.92593C2.65313 0 0 2.68629 0 6V42C0 45.3137 2.65313 48 5.92593 48H154.074C157.347 48 160 45.3137 160 42V6C160 2.68629 157.347 0 154.074 0Z" fill="black"/>
<path id="Vector_2" d="M154.074 0.96C155.394 0.96 156.66 1.491 157.594 2.43618C158.527 3.38137 159.052 4.66331 159.052 6V42C159.052 43.3367 158.527 44.6186 157.594 45.5638C156.66 46.509 155.394 47.04 154.074 47.04H5.92593C4.60574 47.04 3.33962 46.509 2.40611 45.5638C1.47259 44.6186 0.948148 43.3367 0.948148 42V6C0.948148 4.66331 1.47259 3.38137 2.40611 2.43618C3.33962 1.491 4.60574 0.96 5.92593 0.96H154.074ZM154.074 0H5.92593C4.35427 0 2.84699 0.632141 1.73566 1.75736C0.624337 2.88258 0 4.4087 0 6V42C0 43.5913 0.624337 45.1174 1.73566 46.2426C2.84699 47.3679 4.35427 48 5.92593 48H154.074C155.646 48 157.153 47.3679 158.264 46.2426C159.376 45.1174 160 43.5913 160 42V6C160 4.4087 159.376 2.88258 158.264 1.75736C157.153 0.632141 155.646 0 154.074 0Z" fill="#A6A6A6"/>
</g>
<g id="Group_2">
<path id="Vector_3" d="M80.7589 26.1C79.7637 26.1047 78.7922 26.4079 77.967 26.9711C77.1417 27.5344 76.4998 28.3326 76.1222 29.2649C75.7446 30.1972 75.6482 31.2219 75.8453 32.2096C76.0423 33.1973 76.5239 34.1038 77.2292 34.8146C77.9346 35.5255 78.8322 36.0088 79.8086 36.2037C80.785 36.3985 81.7966 36.2961 82.7156 35.9094C83.6346 35.5227 84.4199 34.869 84.9724 34.0309C85.5248 33.1927 85.8196 32.2076 85.8196 31.2C85.8293 30.5255 85.7048 29.856 85.4536 29.2312C85.2024 28.6064 84.8296 28.0392 84.3574 27.5634C83.8852 27.0875 83.3233 26.7127 82.7051 26.4613C82.0869 26.2099 81.425 26.087 80.7589 26.1ZM80.7589 34.296C80.1468 34.3393 79.5361 34.1952 79.006 33.8824C78.4759 33.5697 78.051 33.1026 77.7865 32.5421C77.522 31.9816 77.4302 31.3534 77.523 30.7394C77.6157 30.1253 77.8888 29.5537 78.3067 29.0988C78.7246 28.644 79.268 28.3269 79.8662 28.1889C80.4644 28.0509 81.0898 28.0983 81.661 28.3249C82.2323 28.5515 82.723 28.9469 83.0694 29.4596C83.4158 29.9724 83.6018 30.5788 83.6033 31.2C83.6224 31.5936 83.5635 31.9871 83.43 32.3573C83.2965 32.7275 83.0911 33.0668 82.826 33.3554C82.5609 33.6439 82.2414 33.8758 81.8864 34.0374C81.5314 34.1989 81.148 34.2868 80.7589 34.296ZM69.7248 26.1C68.7291 26.1024 67.7564 26.4035 66.9296 26.9653C66.1028 27.5272 65.4591 28.3245 65.0797 29.2566C64.7002 30.1887 64.6022 31.2138 64.7979 32.2023C64.9936 33.1908 65.4742 34.0984 66.1791 34.8104C66.8841 35.5225 67.7816 36.007 68.7583 36.2029C69.7351 36.3987 70.7473 36.297 71.667 35.9106C72.5867 35.5243 73.3727 34.8706 73.9256 34.0321C74.4786 33.1937 74.7737 32.2082 74.7737 31.2C74.7834 30.5255 74.6589 29.856 74.4077 29.2312C74.1565 28.6064 73.7837 28.0392 73.3115 27.5634C72.8393 27.0875 72.2774 26.7127 71.6591 26.4613C71.0409 26.2099 70.3791 26.087 69.713 26.1H69.7248ZM69.7248 34.296C69.1125 34.3418 68.5007 34.1998 67.9691 33.8886C67.4376 33.5775 67.0108 33.1115 66.7445 32.5513C66.4782 31.9911 66.3846 31.3628 66.4759 30.748C66.5672 30.1332 66.8392 29.5605 67.2564 29.1044C67.6737 28.6483 68.2169 28.33 68.8154 28.1909C69.4138 28.0518 70.0398 28.0983 70.6118 28.3244C71.1837 28.5505 71.6752 28.9457 72.0222 29.4586C72.3693 29.9715 72.5557 30.5783 72.5574 31.2C72.5765 31.5936 72.5176 31.9871 72.3841 32.3573C72.2506 32.7275 72.0452 33.0668 71.7801 33.3554C71.515 33.6439 71.1955 33.8758 70.8405 34.0374C70.4855 34.1989 70.1021 34.2868 69.713 34.296H69.7248ZM56.5811 27.672V29.832H61.7011C61.6208 30.8493 61.2032 31.8093 60.5159 32.556C60.0037 33.0843 59.3879 33.4981 58.7082 33.7709C58.0285 34.0437 57.2999 34.1695 56.5693 34.14C55.0605 34.14 53.6135 33.5331 52.5466 32.4529C51.4797 31.3727 50.8804 29.9076 50.8804 28.38C50.8804 26.8523 51.4797 25.3873 52.5466 24.307C53.6135 23.2268 55.0605 22.62 56.5693 22.62C58.0126 22.5961 59.4063 23.1528 60.4448 24.168L61.95 22.644C61.2489 21.9252 60.4125 21.3562 59.4903 20.9708C58.5681 20.5853 57.5788 20.3912 56.5811 20.4C55.5275 20.3585 54.4764 20.5327 53.4909 20.9123C52.5054 21.292 51.6057 21.8691 50.8457 22.6092C50.0858 23.3493 49.4812 24.2371 49.0682 25.2194C48.6552 26.2017 48.4424 27.2584 48.4424 28.326C48.4424 29.3936 48.6552 30.4502 49.0682 31.4325C49.4812 32.4149 50.0858 33.3027 50.8457 34.0428C51.6057 34.7829 52.5054 35.36 53.4909 35.7396C54.4764 36.1192 55.5275 36.2935 56.5811 36.252C57.5956 36.2984 58.6081 36.1243 59.5505 35.7414C60.493 35.3584 61.3435 34.7756 62.0448 34.032C63.2865 32.6507 63.9495 30.8349 63.8937 28.968C63.8975 28.5132 63.8578 28.059 63.7752 27.612L56.5811 27.672ZM110.282 29.352C109.973 28.4313 109.395 27.6273 108.624 27.0466C107.854 26.4659 106.928 26.1358 105.968 26.1C105.319 26.0987 104.678 26.2321 104.082 26.4918C103.487 26.7516 102.951 27.1322 102.506 27.6102C102.062 28.0882 101.719 28.6534 101.499 29.2708C101.279 29.8883 101.187 30.5449 101.227 31.2C101.213 31.8707 101.332 32.5374 101.578 33.1604C101.823 33.7834 102.191 34.3498 102.658 34.8259C103.124 35.3019 103.681 35.6778 104.295 35.9311C104.908 36.1844 105.566 36.3098 106.229 36.3C107.058 36.3045 107.875 36.1008 108.607 35.7071C109.339 35.3134 109.964 34.7419 110.424 34.044L108.706 32.844C108.449 33.2769 108.086 33.635 107.652 33.8832C107.218 34.1314 106.727 34.2613 106.229 34.26C105.715 34.2798 105.208 34.1428 104.772 33.8667C104.337 33.5906 103.994 33.1883 103.787 32.712L110.531 29.892L110.282 29.352ZM103.408 31.056C103.384 30.6848 103.433 30.3125 103.553 29.9609C103.673 29.6093 103.861 29.2854 104.106 29.0083C104.351 28.7311 104.648 28.5063 104.98 28.3469C105.312 28.1875 105.672 28.0967 106.039 28.08C106.421 28.0545 106.802 28.1432 107.135 28.3352C107.468 28.5272 107.738 28.814 107.911 29.16L103.408 31.056ZM97.9322 36H100.149V21H97.9322V36ZM94.3056 27.24H94.2226C93.8886 26.8619 93.4794 26.5595 93.0219 26.3527C92.5644 26.1459 92.0688 26.0393 91.5678 26.04C90.2726 26.1036 89.0512 26.6693 88.1568 27.6199C87.2624 28.5705 86.7634 29.8331 86.7634 31.146C86.7634 32.4589 87.2624 33.7215 88.1568 34.6721C89.0512 35.6227 90.2726 36.1884 91.5678 36.252C92.07 36.2605 92.568 36.1575 93.0267 35.9502C93.4854 35.7429 93.8936 35.4363 94.2226 35.052H94.2937V35.784C94.2937 37.74 93.2626 38.784 91.6033 38.784C91.0507 38.7709 90.5144 38.5916 90.0628 38.2689C89.6111 37.9462 89.2645 37.4948 89.067 36.972L87.1352 37.788C87.4988 38.6836 88.1185 39.4488 88.9146 39.9855C89.7107 40.5221 90.6469 40.8058 91.6033 40.8C94.1989 40.8 96.3441 39.252 96.3441 35.484V26.4H94.3056V27.24ZM91.7693 34.296C91.0048 34.2278 90.2932 33.8721 89.7749 33.299C89.2566 32.7259 88.9691 31.977 88.9691 31.2C88.9691 30.4229 89.2566 29.6741 89.7749 29.101C90.2932 28.5279 91.0048 28.1722 91.7693 28.104C92.1483 28.1237 92.5196 28.22 92.8614 28.3872C93.2031 28.5545 93.5083 28.7893 93.759 29.0778C94.0097 29.3663 94.2009 29.7027 94.3212 30.0672C94.4415 30.4316 94.4886 30.8168 94.4596 31.2C94.492 31.5848 94.4469 31.9723 94.3271 32.339C94.2073 32.7057 94.0153 33.0439 93.7627 33.3333C93.5101 33.6227 93.2022 33.8573 92.8575 34.0227C92.5128 34.1882 92.1386 34.2811 91.7574 34.296H91.7693ZM120.664 21H115.366V36H117.583V30.312H120.676C121.308 30.3579 121.942 30.2716 122.539 30.0585C123.136 29.8453 123.684 29.5098 124.147 29.073C124.611 28.6361 124.981 28.1073 125.233 27.5194C125.486 26.9315 125.617 26.2972 125.617 25.656C125.617 25.0148 125.486 24.3805 125.233 23.7926C124.981 23.2047 124.611 22.6758 124.147 22.239C123.684 21.8021 123.136 21.4667 122.539 21.2535C121.942 21.0403 121.308 20.954 120.676 21H120.664ZM120.664 28.2H117.571V23.088H120.711C121.386 23.088 122.032 23.3592 122.509 23.8419C122.986 24.3246 123.254 24.9793 123.254 25.662C123.254 26.3447 122.986 26.9994 122.509 27.4821C122.032 27.9648 121.386 28.236 120.711 28.236L120.664 28.2ZM134.329 26.04C133.522 25.9912 132.719 26.1821 132.018 26.5893C131.317 26.9964 130.748 27.6022 130.383 28.332L132.35 29.16C132.544 28.798 132.838 28.5009 133.195 28.3049C133.553 28.1089 133.959 28.0224 134.365 28.056C134.646 28.0227 134.931 28.0465 135.203 28.126C135.476 28.2054 135.729 28.339 135.95 28.5188C136.171 28.6987 136.354 28.9212 136.489 29.1734C136.623 29.4257 136.707 29.7026 136.735 29.988V30.144C136.023 29.7624 135.23 29.5645 134.424 29.568C132.303 29.568 130.157 30.768 130.157 32.94C130.178 33.4031 130.291 33.8573 130.488 34.2756C130.685 34.694 130.963 35.0681 131.306 35.3757C131.649 35.6834 132.049 35.9184 132.482 36.0668C132.916 36.2153 133.375 36.2742 133.831 36.24C134.39 36.2806 134.948 36.1683 135.449 35.9149C135.949 35.6615 136.373 35.2764 136.676 34.8H136.747V36H138.88V30.228C138.88 27.6 136.913 26.076 134.389 26.076L134.329 26.04ZM134.057 34.26C133.334 34.26 132.326 33.888 132.326 32.988C132.326 31.788 133.583 31.392 134.697 31.392C135.401 31.3744 136.097 31.5485 136.711 31.896C136.637 32.5457 136.334 33.1463 135.857 33.5874C135.38 34.0284 134.762 34.28 134.116 34.296L134.057 34.26ZM146.655 26.4L144.119 32.904H144.048L141.417 26.4H139.046L142.993 35.496L140.741 40.548H143.052L149.12 26.4H146.655ZM126.732 36H128.949V21H126.732V36Z" fill="white"/>
<g id="Vector_4">
<path d="M49.9086 17.124H49.0316V14.724H49.7783C50.1187 14.3587 50.3758 13.9222 50.5315 13.4453C50.6871 12.9684 50.7375 12.4627 50.679 11.964V8.39999H55.4198V14.712H56.2138V17.112H55.3368V15.6H49.9086V17.124ZM51.5561 12C51.6113 12.968 51.3758 13.9302 50.8805 14.76H54.4361V9.28799H51.5561V12ZM63.3012 14.664C62.6084 15.3616 61.671 15.7532 60.6938 15.7532C59.7167 15.7532 58.7793 15.3616 58.0864 14.664C57.413 13.9422 57.0378 12.9869 57.0378 11.994C57.0378 11.0011 57.413 10.0458 58.0864 9.32399C58.4279 8.97568 58.8341 8.69924 59.2816 8.51059C59.7291 8.32195 60.2091 8.22483 60.6938 8.22483C61.1786 8.22483 61.6585 8.32195 62.106 8.51059C62.5535 8.69924 62.9597 8.97568 63.3012 9.32399C63.9774 10.0444 64.3544 11.0002 64.3544 11.994C64.3544 12.9878 63.9774 13.9436 63.3012 14.664ZM58.762 14.064C59.2751 14.5813 59.9697 14.8718 60.6938 14.8718C61.4179 14.8718 62.1126 14.5813 62.6257 14.064C63.132 13.4988 63.4125 12.7631 63.4125 12C63.4125 11.2369 63.132 10.5012 62.6257 9.93599C62.1126 9.41864 61.4179 9.12818 60.6938 9.12818C59.9697 9.12818 59.2751 9.41864 58.762 9.93599C58.2556 10.5012 57.9751 11.2369 57.9751 12C57.9751 12.7631 58.2556 13.4988 58.762 14.064ZM68.9546 15.756C68.4653 15.7658 67.9791 15.6753 67.5253 15.4899C67.0715 15.3045 66.6594 15.028 66.314 14.6771C65.9685 14.3261 65.6967 13.908 65.515 13.448C65.3333 12.9879 65.2455 12.4953 65.2568 12C65.2455 11.5046 65.3333 11.0121 65.515 10.552C65.6967 10.0919 65.9685 9.67385 66.314 9.32292C66.6594 8.972 67.0715 8.6955 67.5253 8.51008C67.9791 8.32465 68.4653 8.23414 68.9546 8.24399C69.4505 8.23156 69.9427 8.33307 70.3943 8.54091C70.8459 8.74875 71.2451 9.05751 71.562 9.44399L70.922 10.068C70.6879 9.76708 70.3861 9.52728 70.0417 9.36862C69.6974 9.20996 69.3206 9.13705 68.9427 9.15599C68.5789 9.14641 68.217 9.21167 67.8788 9.3478C67.5407 9.48393 67.2333 9.68811 66.9753 9.94799C66.4614 10.5165 66.1764 11.2593 66.1764 12.03C66.1764 12.8007 66.4614 13.5434 66.9753 14.112C67.2333 14.3719 67.5407 14.576 67.8788 14.7122C68.217 14.8483 68.5789 14.9136 68.9427 14.904C69.3599 14.9002 69.771 14.8024 70.1461 14.6177C70.5213 14.4329 70.8511 14.1659 71.1116 13.836L71.7516 14.484C71.429 14.8801 71.0244 15.1997 70.5664 15.42C70.0605 15.652 69.5098 15.7668 68.9546 15.756ZM75.4731 15.6H74.5605V9.28799H72.5694V8.39999H77.4523V9.28799H75.4731V15.6ZM83.7338 8.39999L81.0435 14.472C80.9358 14.8312 80.7206 15.1476 80.4276 15.3776C80.1346 15.6077 79.7783 15.7399 79.4079 15.756C79.1629 15.7528 78.9211 15.6998 78.6968 15.6L78.9338 14.748C79.0779 14.8329 79.2412 14.8784 79.4079 14.88C79.5821 14.8933 79.7561 14.8513 79.9057 14.76C80.0485 14.6376 80.1585 14.4808 80.2257 14.304L80.4864 13.728L78.1161 8.41199H79.1946L80.9486 12.54L82.6553 8.39999H83.7338ZM84.7649 15.6V8.39999H89.9086V15.6H88.996V9.28799H85.6775V15.6H84.7649ZM91.5323 15.6V8.39999H92.4449V11.484H96.0005V8.39999H96.9131V15.6H96.0005V12.348H92.4449V15.6H91.5323ZM104.368 14.664C103.675 15.3616 102.738 15.7532 101.76 15.7532C100.783 15.7532 99.846 15.3616 99.1531 14.664C98.4796 13.9422 98.1044 12.9869 98.1044 11.994C98.1044 11.0011 98.4796 10.0458 99.1531 9.32399C99.4946 8.97568 99.9008 8.69924 100.348 8.51059C100.796 8.32195 101.276 8.22483 101.76 8.22483C102.245 8.22483 102.725 8.32195 103.173 8.51059C103.62 8.69924 104.026 8.97568 104.368 9.32399C105.044 10.0444 105.421 11.0002 105.421 11.994C105.421 12.9878 105.044 13.9436 104.368 14.664ZM99.8287 14.064C100.342 14.5813 101.036 14.8718 101.76 14.8718C102.485 14.8718 103.179 14.5813 103.692 14.064C104.199 13.4988 104.479 12.7631 104.479 12C104.479 11.2369 104.199 10.5012 103.692 9.93599C103.179 9.41864 102.485 9.12818 101.76 9.12818C101.036 9.12818 100.342 9.41864 99.8287 9.93599C99.3223 10.5012 99.0418 11.2369 99.0418 12C99.0418 12.7631 99.3223 13.4988 99.8287 14.064ZM109.144 15.6V8.39999H111.716C112.25 8.38978 112.768 8.58735 113.162 8.95199C113.36 9.12601 113.518 9.34196 113.624 9.58458C113.731 9.82719 113.783 10.0905 113.778 10.356C113.784 10.6759 113.693 10.9898 113.518 11.256C113.344 11.5145 113.101 11.7183 112.818 11.844C113.162 11.9592 113.464 12.1767 113.683 12.468C113.911 12.762 114.033 13.1263 114.027 13.5C114.033 13.7766 113.979 14.0512 113.868 14.3042C113.758 14.5573 113.593 14.7825 113.387 14.964C112.974 15.3494 112.431 15.5599 111.87 15.552L109.144 15.6ZM110.057 11.484H111.716C111.871 11.4905 112.026 11.4628 112.169 11.4027C112.312 11.3426 112.441 11.2516 112.546 11.136C112.651 11.0397 112.735 10.9229 112.795 10.7927C112.854 10.6625 112.887 10.5215 112.891 10.3782C112.896 10.2348 112.872 10.092 112.82 9.95835C112.769 9.82465 112.692 9.70277 112.593 9.59999C112.494 9.48656 112.372 9.39658 112.234 9.33644C112.097 9.2763 111.948 9.24747 111.799 9.25199H110.104L110.057 11.484ZM110.057 14.712H111.894C112.054 14.7174 112.214 14.6869 112.362 14.6226C112.509 14.5583 112.641 14.4618 112.747 14.34C112.956 14.1205 113.075 13.8288 113.079 13.524C113.079 13.2057 112.954 12.9005 112.732 12.6755C112.51 12.4504 112.208 12.324 111.894 12.324H110.092L110.057 14.712Z" fill="white"/>
<path fill-rule="evenodd" clip-rule="evenodd" d="M60.6938 8.34483C60.2247 8.34483 59.7603 8.43882 59.3272 8.62138C58.8946 8.80374 58.5018 9.0709 58.1716 9.40748C57.5195 10.1068 57.1563 11.0322 57.1563 11.994C57.1563 12.9556 57.5194 13.8809 58.1713 14.5802C58.8418 15.2546 59.7486 15.6332 60.6938 15.6332C61.6391 15.6332 62.5459 15.2546 63.2165 14.5801C63.8709 13.8822 64.2358 12.9564 64.2358 11.994C64.2358 11.0314 63.8708 10.1056 63.2162 9.4076C62.8859 9.07097 62.4931 8.80377 62.0605 8.62138C61.6274 8.43882 61.1629 8.34483 60.6938 8.34483ZM59.2361 8.39981C59.698 8.20508 60.1935 8.10483 60.6938 8.10483C61.1942 8.10483 61.6896 8.20508 62.1516 8.39981C62.6135 8.59454 63.0328 8.8799 63.3853 9.23945L63.3872 9.24131C64.0842 9.984 64.4729 10.9694 64.4729 11.994C64.4729 13.0185 64.0842 14.004 63.3871 14.7466L63.3848 14.7491C62.6698 15.4691 61.7023 15.8732 60.6938 15.8732C59.6854 15.8732 58.7179 15.4691 58.0028 14.7491L58.0002 14.7464C57.306 14.0024 56.9193 13.0176 56.9193 11.994C56.9193 10.9704 57.306 9.98563 58.0003 9.24158L58.0023 9.23942C58.3548 8.87988 58.7741 8.59454 59.2361 8.39981ZM101.76 8.34483C101.291 8.34483 100.827 8.43882 100.394 8.62138C99.9613 8.80373 99.5686 9.07087 99.2383 9.40742C98.5862 10.1068 98.223 11.0322 98.223 11.994C98.223 12.9556 98.5861 13.8809 99.238 14.5802C99.9085 15.2547 100.815 15.6332 101.76 15.6332C102.706 15.6332 103.613 15.2546 104.283 14.58C104.938 13.8821 105.303 12.9564 105.303 11.994C105.303 11.0314 104.938 10.1056 104.283 9.40763C103.953 9.07098 103.56 8.80377 103.127 8.62138C102.694 8.43882 102.23 8.34483 101.76 8.34483ZM100.303 8.39981C100.765 8.20508 101.26 8.10483 101.76 8.10483C102.261 8.10483 102.756 8.20508 103.218 8.39981C103.68 8.59454 104.099 8.8799 104.452 9.23945L104.454 9.24131C105.151 9.98402 105.54 10.9694 105.54 11.994C105.54 13.0185 105.151 14.004 104.454 14.7466L104.452 14.7491C103.736 15.4691 102.769 15.8732 101.76 15.8732C100.752 15.8732 99.7846 15.4691 99.0695 14.7491L99.0669 14.7464C98.3727 14.0024 97.9859 13.0176 97.9859 11.994C97.9859 10.9704 98.3727 9.98563 99.0669 9.24158L99.069 9.23942C99.4215 8.87988 99.8408 8.59454 100.303 8.39981ZM70.3453 8.65016C69.91 8.44982 69.4355 8.35197 68.9575 8.36395L68.9522 8.36409C68.4789 8.35456 68.0086 8.44199 67.5696 8.62136C67.1307 8.80072 66.7321 9.06819 66.3979 9.40764C66.0637 9.7471 65.8008 10.1515 65.6251 10.5966C65.4493 11.0416 65.3644 11.5181 65.3753 11.9972L65.3754 12.0028C65.3645 12.4819 65.4493 12.9584 65.6251 13.4034C65.8008 13.8485 66.0637 14.2529 66.3979 14.5923C66.7321 14.9318 67.1307 15.1993 67.5696 15.3786C68.0086 15.558 68.4789 15.6455 68.9522 15.636L68.9546 15.756L68.9568 15.636C69.4941 15.6464 70.0269 15.5355 70.5165 15.3111C70.9261 15.114 71.2914 14.8347 71.5904 14.4905L71.1193 14.0135C70.8625 14.3103 70.5493 14.5526 70.198 14.7256C69.8073 14.918 69.3792 15.0199 68.9448 15.024C68.5653 15.0338 68.1878 14.9657 67.835 14.8237C67.482 14.6816 67.1611 14.4684 66.8917 14.1971L66.8878 14.1931C66.3539 13.6024 66.0579 12.8307 66.0579 12.03C66.0579 11.2293 66.354 10.4577 66.8879 9.86698L66.8916 9.86283C67.161 9.5915 67.482 9.37842 67.835 9.23629C68.1867 9.09472 68.563 9.02657 68.9413 9.03591C69.3366 9.01683 69.7306 9.09343 70.0908 9.2594C70.4127 9.40771 70.6992 9.62353 70.9316 9.89202L71.3991 9.43621C71.106 9.103 70.7472 8.83512 70.3453 8.65016ZM68.9546 15.876C68.4501 15.8858 67.9489 15.7924 67.4809 15.6012C67.0123 15.4097 66.5868 15.1242 66.23 14.7618C65.8732 14.3994 65.5926 13.9676 65.405 13.4925C65.2177 13.0183 65.127 12.5106 65.1382 12C65.127 11.4894 65.2177 10.9817 65.405 10.5075C65.5926 10.0324 65.8732 9.6006 66.23 9.23821C66.5868 8.87582 67.0123 8.59028 67.4809 8.3988C67.9488 8.20765 68.4499 8.11417 68.9543 8.12396C69.4672 8.11151 69.9763 8.21669 70.4434 8.43167C70.9113 8.64701 71.3249 8.96692 71.6532 9.36735L71.7235 9.45311L70.9099 10.2464L70.8289 10.1422C70.6065 9.85638 70.3198 9.62857 69.9926 9.47785C69.6655 9.32712 69.3075 9.25785 68.9486 9.27584L68.9396 9.27629C68.5919 9.26714 68.2459 9.32917 67.9226 9.45931C67.6002 9.5891 67.3071 9.78359 67.0609 10.0311C66.5682 10.5772 66.295 11.2902 66.295 12.03C66.295 12.7697 66.5682 13.4827 67.0609 14.0289C67.3071 14.2764 67.6002 14.4709 67.9226 14.6007C68.2459 14.7308 68.5919 14.7932 68.9396 14.784L68.9417 14.784C69.3412 14.7804 69.735 14.6867 70.0943 14.5098C70.4536 14.3328 70.7695 14.0771 71.019 13.7611L71.1017 13.6563L71.9115 14.4762L71.8431 14.5603C71.5094 14.97 71.091 15.3005 70.6173 15.5284L70.6153 15.5293C70.0941 15.7684 69.5267 15.8868 68.9546 15.876ZM113.082 9.0406C112.71 8.69668 112.222 8.51034 111.718 8.51997L111.716 8.51999H109.263V15.4779L111.868 15.432L111.872 15.432C112.403 15.4395 112.916 15.2404 113.307 14.8758L113.309 14.8734C113.503 14.7034 113.656 14.4926 113.76 14.2557C113.864 14.0188 113.914 13.7617 113.909 13.5026L113.909 13.4982C113.914 13.152 113.801 12.8145 113.59 12.5421L113.589 12.5409C113.384 12.2687 113.102 12.0656 112.781 11.9579L112.488 11.8597L112.771 11.7341C113.033 11.6175 113.258 11.4286 113.419 11.189C113.581 10.9432 113.665 10.6534 113.66 10.3581V10.3536C113.665 10.1058 113.616 9.85986 113.516 9.63331C113.417 9.40677 113.269 9.20511 113.084 9.04262L113.082 9.0406ZM113.241 8.8624C112.824 8.47792 112.278 8.26951 111.715 8.27999H109.026V15.7221L111.868 15.672L111.87 15.672C112.461 15.6798 113.032 15.4585 113.466 15.0534C113.685 14.8606 113.859 14.6214 113.977 14.3528C114.094 14.0844 114.152 13.7931 114.146 13.4996L114.146 13.5018L114.027 13.5L114.146 13.4973L114.146 13.4996C114.151 13.0994 114.021 12.7094 113.777 12.3945C113.596 12.1546 113.363 11.9617 113.097 11.8298C113.301 11.6995 113.478 11.5274 113.615 11.3236L113.616 11.3226C113.804 11.0367 113.902 10.6996 113.897 10.3561L113.897 10.3583L113.778 10.356L113.897 10.3539L113.897 10.3561C113.902 10.0738 113.846 9.79384 113.733 9.53584C113.619 9.27764 113.451 9.04776 113.241 8.8624ZM50.5605 8.27999H55.5383V14.592H56.3323V17.232H55.2183V15.72H50.0272V17.244H48.9131V14.604H49.7266C50.038 14.2593 50.2741 13.8516 50.419 13.4077C50.5691 12.9474 50.6177 12.4594 50.5613 11.9781L50.5605 11.9711V8.27999ZM50.7975 8.51999V11.957C50.8567 12.4708 50.8044 12.9917 50.644 13.483C50.4829 13.9765 50.2168 14.4283 49.8645 14.8063L49.8294 14.844H49.1501V17.004H49.7901V15.48H55.4553V16.992H56.0953V14.832H55.3012V8.51999H50.7975ZM72.4509 8.27999H77.5709V9.40799H75.5916V15.72H74.442V9.40799H72.4509V8.27999ZM72.6879 8.51999V9.16799H74.679V15.48H75.3546V9.16799H77.3338V8.51999H72.6879ZM82.5763 8.27999H83.9169L81.1546 14.5143C81.0391 14.8942 80.8106 15.2288 80.5002 15.4725C80.1878 15.7177 79.8079 15.8587 79.413 15.8759L79.4064 15.8762C79.1455 15.8728 78.888 15.8161 78.6491 15.7098L78.5548 15.6679L78.8612 14.5663L78.9935 14.6443C79.1197 14.7187 79.2629 14.7586 79.409 14.76L79.4168 14.7601C79.5634 14.7712 79.7097 14.7372 79.8364 14.6621C79.9604 14.5537 80.0562 14.4159 80.1151 14.2609L80.1177 14.2539L80.3562 13.7276L77.9325 8.29199H79.2726L80.947 12.2325L82.5763 8.27999ZM82.7343 8.51999L80.9503 12.8475L79.1165 8.53199H78.2996L80.6166 13.7284L80.3349 14.3507C80.2605 14.5448 80.1393 14.717 79.9823 14.8516L79.975 14.8578L79.9669 14.8627C79.7973 14.9663 79.6003 15.0142 79.4029 14.9999C79.2674 14.9982 79.134 14.9706 79.0094 14.9191L78.8397 15.5291C79.0209 15.5969 79.2124 15.6331 79.4061 15.636C79.7508 15.6202 80.0823 15.4969 80.355 15.2828C80.6285 15.068 80.8295 14.7725 80.93 14.4371L80.9322 14.4298L83.5508 8.51999H82.7343ZM84.6464 8.27999H90.0272V15.72H88.8775V9.40799H85.7961V15.72H84.6464V8.27999ZM84.8835 8.51999V15.48H85.559V9.16799H89.1146V15.48H89.7901V8.51999H84.8835ZM91.4138 8.27999H92.5635V11.364H95.882V8.27999H97.0316V15.72H95.882V12.468H92.5635V15.72H91.4138V8.27999ZM91.6509 8.51999V15.48H92.3264V12.228H96.119V15.48H96.7946V8.51999H96.119V11.604H92.3264V8.51999H91.6509ZM58.6783 9.85096C59.2137 9.31122 59.9384 9.00818 60.6938 9.00818C61.4493 9.00818 62.174 9.31122 62.7093 9.85096L62.7136 9.85526C63.2397 10.4425 63.531 11.2071 63.531 12C63.531 12.7929 63.2396 13.5574 62.7135 14.1446L62.7094 14.1491C62.1741 14.6889 61.4493 14.9918 60.6938 14.9918C59.9384 14.9918 59.2137 14.6888 58.6783 14.149L58.762 14.064L58.6742 14.1446C58.1481 13.5574 57.8566 12.7929 57.8566 12C57.8566 11.2071 58.1481 10.4426 58.6742 9.85536L58.6783 9.85096ZM58.8477 13.9811C59.3384 14.4747 60.0021 14.7518 60.6938 14.7518C61.3856 14.7518 62.0492 14.4747 62.5399 13.9811C63.0252 13.4383 63.294 12.7322 63.294 12C63.294 11.2677 63.0252 10.5617 62.5399 10.0189C62.0492 9.52527 61.3856 9.24818 60.6938 9.24818C60.0021 9.24818 59.3384 9.52527 58.8477 10.0189C58.3624 10.5617 58.0936 11.2677 58.0936 12C58.0936 12.7322 58.3624 13.4383 58.8477 13.9811ZM99.745 9.85096C100.28 9.31122 101.005 9.00818 101.76 9.00818C102.516 9.00818 103.241 9.31122 103.776 9.85096L103.78 9.85526C104.306 10.4425 104.598 11.2071 104.598 12C104.598 12.7929 104.306 13.5574 103.78 14.1446L103.776 14.1491C103.241 14.6889 102.516 14.9918 101.76 14.9918C101.005 14.9918 100.28 14.6888 99.745 14.149L99.8287 14.064L99.7409 14.1446C99.2147 13.5574 98.9233 12.7929 98.9233 12C98.9233 11.2071 99.2147 10.4426 99.7409 9.85536L99.745 9.85096ZM99.9144 13.9811C100.405 14.4747 101.069 14.7518 101.76 14.7518C102.452 14.7518 103.116 14.4747 103.607 13.9811C104.092 13.4383 104.361 12.7322 104.361 12C104.361 11.2677 104.092 10.5617 103.607 10.0189C103.116 9.52526 102.452 9.24818 101.76 9.24818C101.069 9.24818 100.405 9.52526 99.9144 10.0189C99.4291 10.5617 99.1603 11.2677 99.1603 12C99.1603 12.7322 99.4291 13.4383 99.9144 13.9811ZM111.797 9.13199C111.964 9.12723 112.129 9.15942 112.281 9.22631C112.434 9.29308 112.57 9.39278 112.68 9.51842C112.789 9.63231 112.874 9.76712 112.931 9.91493C112.988 10.0636 113.015 10.2225 113.01 10.3819C113.005 10.5414 112.968 10.6982 112.902 10.843C112.837 10.9862 112.744 11.1148 112.629 11.2212C112.513 11.3478 112.372 11.4475 112.214 11.5136C112.056 11.58 111.885 11.6109 111.714 11.604H109.936L109.988 9.13199H111.797ZM112.187 9.44656C112.066 9.39342 111.935 9.36794 111.803 9.37193L111.799 9.37199H110.22L110.178 11.364H111.721C111.859 11.3698 111.996 11.3453 112.123 11.2918C112.251 11.2384 112.365 11.1575 112.458 11.0548L112.462 11.0508L112.466 11.0471C112.559 10.9616 112.634 10.8579 112.687 10.7424C112.74 10.6268 112.769 10.5017 112.773 10.3744C112.777 10.2472 112.755 10.1205 112.71 10.0018C112.664 9.88309 112.596 9.77491 112.508 9.68368L112.504 9.67956C112.417 9.57932 112.309 9.49971 112.187 9.44656ZM51.4375 9.16799H54.5546V14.88H50.6704L50.7791 14.6979C51.262 13.8889 51.4916 12.9507 51.4377 12.0069L51.4373 12L51.4375 9.16799ZM51.6746 9.40799V11.9965C51.7265 12.9175 51.5217 13.8333 51.0854 14.64H54.3175V9.40799H51.6746ZM109.976 12.204H111.894C112.24 12.204 112.571 12.3431 112.816 12.5906C113.06 12.8382 113.198 13.1739 113.198 13.524L113.198 13.5257C113.193 13.8601 113.063 14.1803 112.834 14.4215C112.717 14.5556 112.571 14.6619 112.408 14.7328C112.246 14.8039 112.069 14.8377 111.892 14.832H109.936L109.976 12.204ZM110.209 12.444L110.177 14.592H111.898C112.041 14.5968 112.183 14.5697 112.315 14.5124C112.446 14.4551 112.564 14.3691 112.658 14.2605L112.662 14.2566C112.85 14.0593 112.956 13.7971 112.961 13.5231C112.96 13.237 112.848 12.9626 112.648 12.7603C112.448 12.5578 112.177 12.444 111.894 12.444H110.209Z" fill="white"/>
</g>
<g id="Group_3">
<path id="Vector_5" d="M12.3732 9.04799C11.9869 9.51732 11.7919 10.1181 11.828 10.728V37.272C11.7919 37.8818 11.9869 38.4827 12.3732 38.952L12.4561 39.036L27.1406 24.18V23.832L12.4561 8.96399L12.3732 9.04799Z" fill="url(#paint0_linear_1898_2385)"/>
<path id="Vector_6" d="M31.9999 29.136L27.1406 24.18V23.832L31.9999 18.864L32.1065 18.924L37.9258 22.272C39.5851 23.22 39.5851 24.78 37.9258 25.74L32.1303 29.076L31.9999 29.136Z" fill="url(#paint1_linear_1898_2385)"/>
<path id="Vector_7" d="M32.1424 29.064L27.1409 24L12.3735 38.952C12.7117 39.253 13.1432 39.425 13.5933 39.4381C14.0434 39.4513 14.4839 39.3048 14.8387 39.024L32.1543 29.064" fill="url(#paint2_linear_1898_2385)"/>
<path id="Vector_8" d="M32.1421 18.936L14.8265 8.97599C14.4717 8.69521 14.0312 8.54873 13.5811 8.56188C13.131 8.57503 12.6995 8.74697 12.3613 9.04799L27.1406 24L32.1421 18.936Z" fill="url(#paint3_linear_1898_2385)"/>
<path id="Vector_9" opacity="0.2" d="M32.0002 28.956L14.8269 38.856C14.4847 39.115 14.0689 39.255 13.6417 39.255C13.2144 39.255 12.7987 39.115 12.4565 38.856L12.3735 38.94L12.4565 39.024C12.7979 39.2849 13.214 39.426 13.6417 39.426C14.0694 39.426 14.4855 39.2849 14.8269 39.024L32.1424 29.064L32.0002 28.956Z" fill="black"/>
<path id="Vector_10" opacity="0.12" d="M12.3732 38.784C11.9869 38.3147 11.7919 37.7138 11.828 37.104V37.284C11.7919 37.8938 11.9869 38.4947 12.3732 38.964L12.4561 38.88L12.3732 38.784ZM37.9258 25.56L31.9998 28.956L32.1065 29.064L37.9258 25.728C38.256 25.5709 38.5394 25.3285 38.7475 25.0251C38.9556 24.7217 39.0809 24.3681 39.1109 24C39.0443 24.3344 38.9028 24.649 38.6973 24.9194C38.4919 25.1898 38.2279 25.409 37.9258 25.56Z" fill="black"/>
<path id="Vector_11" opacity="0.25" d="M14.8268 9.14353L37.926 22.4395C38.2282 22.5905 38.4922 22.8097 38.6976 23.0801C38.9031 23.3506 39.0446 23.6651 39.1112 23.9995C39.0812 23.6314 38.9558 23.2778 38.7478 22.9744C38.5397 22.671 38.2562 22.4286 37.926 22.2715L14.8268 8.97553C13.1675 8.02753 11.8164 8.81953 11.8164 10.7395V10.9195C11.852 8.98753 13.1794 8.19553 14.8268 9.14353Z" fill="white"/>
</g>
</g>
</g>
<defs>
<linearGradient id="paint0_linear_1898_2385" x1="25.8369" y1="10.452" x2="5.70242" y2="30.3379" gradientUnits="userSpaceOnUse">
<stop stop-color="#00A0FF"/>
<stop offset="0.01" stop-color="#00A1FF"/>
<stop offset="0.26" stop-color="#00BEFF"/>
<stop offset="0.51" stop-color="#00D2FF"/>
<stop offset="0.76" stop-color="#00DFFF"/>
<stop offset="1" stop-color="#00E3FF"/>
</linearGradient>
<linearGradient id="paint1_linear_1898_2385" x1="40.0947" y1="24" x2="11.4251" y2="24" gradientUnits="userSpaceOnUse">
<stop stop-color="#FFE000"/>
<stop offset="0.41" stop-color="#FFBD00"/>
<stop offset="0.78" stop-color="#FFA500"/>
<stop offset="1" stop-color="#FF9C00"/>
</linearGradient>
<linearGradient id="paint2_linear_1898_2385" x1="29.4283" y1="26.76" x2="2.1186" y2="53.7207" gradientUnits="userSpaceOnUse">
<stop stop-color="#FF3A44"/>
<stop offset="1" stop-color="#C31162"/>
</linearGradient>
<linearGradient id="paint3_linear_1898_2385" x1="8.6517" y1="0.215992" x2="20.8428" y2="12.2565" gradientUnits="userSpaceOnUse">
<stop stop-color="#32A071"/>
<stop offset="0.07" stop-color="#2DA771"/>
<stop offset="0.48" stop-color="#15CF74"/>
<stop offset="0.8" stop-color="#06E775"/>
<stop offset="1" stop-color="#00F076"/>
</linearGradient>
</defs>
</svg>
