<svg width="44" height="44" viewBox="0 0 44 44" fill="none" xmlns="http://www.w3.org/2000/svg">
<g id="pdf-svgrepo-com 1">
<path id="Vector" d="M32.6354 28.7058C32.0992 28.8641 31.3121 28.8819 30.4681 28.7595C29.5624 28.6282 28.6385 28.3513 27.7305 27.9433C29.3498 27.7077 30.606 27.7803 31.6805 28.161C31.935 28.2512 32.3531 28.4923 32.6354 28.7058ZM23.6006 27.2205C23.5347 27.2384 23.4698 27.2554 23.4053 27.2733C22.9695 27.3919 22.5456 27.5076 22.1371 27.6105L21.5862 27.7503C20.4781 28.0306 19.3451 28.3171 18.226 28.6582C18.6513 27.6327 19.0464 26.5958 19.4333 25.582C19.7197 24.8316 20.0122 24.065 20.3147 23.3083C20.4682 23.5618 20.6283 23.8153 20.795 24.0695C21.5542 25.2259 22.5085 26.295 23.6006 27.2205ZM20.7819 15.6559C20.8537 16.9213 20.5807 18.1387 20.1802 19.3065C19.6868 17.8625 19.4569 16.2678 20.0737 14.9804C20.2319 14.6503 20.3615 14.4739 20.4455 14.3818C20.5753 14.5823 20.746 15.0306 20.7819 15.6559ZM14.9967 31.6859C14.7195 32.1818 14.4366 32.646 14.1466 33.0844C13.4468 34.139 12.3022 35.2683 11.7143 35.2683C11.6564 35.2683 11.5864 35.259 11.4841 35.1509C11.4182 35.0819 11.4077 35.0324 11.4109 34.9648C11.4307 34.5771 11.9444 33.8865 12.6887 33.2462C13.3642 32.6653 14.1278 32.1488 14.9967 31.6859ZM34.5076 28.7607C34.4177 27.4691 32.2434 26.6405 32.222 26.6328C31.3815 26.3348 30.4684 26.19 29.4306 26.19C28.3197 26.19 27.122 26.3507 25.5839 26.7101C24.2153 25.7399 23.033 24.5253 22.1497 23.1806C21.7597 22.5865 21.409 21.9935 21.1033 21.4143C21.8495 19.6299 22.5215 17.7114 22.3994 15.5627C22.301 13.8398 21.524 12.6825 20.4675 12.6825C19.7427 12.6825 19.1187 13.2193 18.6112 14.2794C17.7061 16.1686 17.944 18.5858 19.3181 21.4702C18.8232 22.6326 18.3634 23.8377 17.9184 25.0042C17.3646 26.4548 16.794 27.9513 16.151 29.375C14.3476 30.0885 12.866 30.9539 11.6313 32.0163C10.8225 32.711 9.84735 33.7731 9.79169 34.8818C9.76452 35.4039 9.94356 35.8828 10.3074 36.2665C10.6939 36.6738 11.1795 36.8883 11.7135 36.8889C13.477 36.8889 15.1743 34.466 15.4963 33.98C16.1443 33.0032 16.7508 31.9136 17.3451 30.6569C18.842 30.1159 20.4372 29.7121 21.9834 29.3218L22.5371 29.1811C22.9534 29.0753 23.386 28.9583 23.8298 28.8368C24.2993 28.7099 24.7825 28.5782 25.2735 28.4532C26.8611 29.4628 28.5684 30.1214 30.2335 30.3631C31.636 30.5671 32.8815 30.4488 33.7247 30.0092C34.4834 29.6141 34.5252 29.0044 34.5076 28.7607ZM37.923 39.8671C37.923 42.2325 35.8381 42.3784 35.4175 42.3831H8.51925C6.16237 42.3831 6.02044 40.284 6.01595 39.8671L6.01563 4.13206C6.01563 1.76429 8.1043 1.62074 8.51893 1.61599H26.6892L26.6989 1.62558V8.71636C26.6989 10.1394 27.5592 12.8336 30.8173 12.8336H37.8622L37.9227 12.894L37.923 39.8671ZM36.2528 11.2174H30.8185C28.4623 11.2174 28.3197 9.12966 28.3165 8.71659V3.24838L36.2528 11.2174ZM39.5391 39.8671V12.2273L28.3165 0.958124V0.905693H28.2629L27.3615 0H8.5193C7.0944 0 4.3999 0.86387 4.3999 4.13282V39.8679C4.3999 41.297 5.26115 44 8.5193 44H35.42C36.8446 43.9997 39.5391 43.1357 39.5391 39.8671Z" fill="#9E5FC4"/>
</g>
</svg>
