<svg width="56" height="56" viewBox="0 0 56 56" fill="none" xmlns="http://www.w3.org/2000/svg">
<g id="&#208;&#178;&#208;&#184;&#208;&#183;&#208;&#176;">
<g id="Group">
<path id="polygon9" d="M24.0405 36.6415H19.6147L22.3829 20.7753H26.8085L24.0405 36.6415Z" fill="#666870"/>
<path id="path11" d="M40.0842 21.1633C39.2112 20.8423 37.8266 20.4879 36.1146 20.4879C31.744 20.4879 28.6663 22.6482 28.6474 25.737C28.6111 28.0158 30.851 29.2815 32.5262 30.0414C34.2385 30.8178 34.8206 31.3246 34.8206 32.0167C34.8031 33.0796 33.4369 33.5696 32.1627 33.5696C30.3958 33.5696 29.449 33.317 28.0102 32.7256L27.4274 32.4721L26.8081 36.0337C27.8461 36.4721 29.7585 36.8611 31.744 36.8781C36.3879 36.8781 39.4111 34.7512 39.4469 31.4597C39.4646 29.6535 38.2819 28.2695 35.732 27.1386C34.184 26.4127 33.2361 25.9232 33.2361 25.1804C33.2542 24.5051 34.0379 23.8135 35.7852 23.8135C37.224 23.7796 38.2812 24.1002 39.082 24.421L39.4823 24.5895L40.0842 21.1633Z" fill="#666870"/>
<path id="path13" d="M45.9665 31.0207C46.331 30.1092 47.7335 26.5814 47.7335 26.5814C47.7151 26.6153 48.0972 25.6531 48.3158 25.0624L48.6251 26.4295C48.6251 26.4295 49.4632 30.2274 49.6452 31.0207C48.9535 31.0207 46.8407 31.0207 45.9665 31.0207ZM51.4296 20.7753H48.0062C46.9506 20.7753 46.1485 21.062 45.693 22.0917L39.1191 36.6413H43.763C43.763 36.6413 44.5275 34.683 44.6918 34.2613C45.2013 34.2613 49.7187 34.2613 50.3741 34.2613C50.5012 34.8183 50.9022 36.6413 50.9022 36.6413H55L51.4296 20.7753Z" fill="#666870"/>
<path id="path15" d="M15.9185 20.7753L11.5842 31.5945L11.1106 29.4002C10.3093 26.8683 7.79619 24.1175 4.9917 22.7497L8.96174 36.6247H13.6419L20.5984 20.7753H15.9185Z" fill="#666870"/>
<path id="path17" d="M7.55919 20.7753H0.438569L0.365723 21.0959C5.92025 22.4125 9.5989 25.5862 11.1103 29.4009L9.56236 22.109C9.30751 21.0956 8.52435 20.8087 7.55919 20.7753Z" fill="#C3C0C0"/>
</g>
</g>
</svg>
