<svg width="160" height="48" viewBox="0 0 160 48" fill="none" xmlns="http://www.w3.org/2000/svg">
<g id="fd8f56e233fb370a28c81fa6a916abbf 1" clip-path="url(#clip0_1898_2505)">
<path id="Vector" d="M0 6.85717C0 3.07004 3.01619 0 6.73684 0H153.264C156.984 0 160 3.07005 160 6.85717V41.1428C160 44.9299 156.984 48 153.264 48H6.73684C3.01619 48 0 44.9299 0 41.1428V6.85717Z" fill="black"/>
<path id="Vector_2" fill-rule="evenodd" clip-rule="evenodd" d="M153.264 0.923077H6.73684C3.69761 0.923077 1.02564 3.46981 1.02564 6.85717V41.1428C1.02564 44.5302 3.69761 47.0769 6.73684 47.0769H153.264C156.303 47.0769 158.974 44.5302 158.974 41.1428V6.85717C158.974 3.46981 156.303 0.923077 153.264 0.923077ZM6.73684 0C3.01619 0 0 3.07004 0 6.85717V41.1428C0 44.9299 3.01619 48 6.73684 48H153.264C156.984 48 160 44.9299 160 41.1428V6.85717C160 3.07004 156.984 0 153.264 0H6.73684Z" fill="#A6A6A6"/>
<path id="Vector_3" d="M12.2493 37.7506C14.4988 40 18.1192 40 25.36 40H26.64C33.8808 40 37.5012 40 39.7507 37.7506C42 35.5012 42 31.8808 42 24.6399V23.36C42 16.1191 42 12.4988 39.7507 10.2493C37.5012 8 33.8808 8 26.64 8H25.36C18.1192 8 14.4988 8 12.2493 10.2493C10 12.4988 10 16.1191 10 23.36V24.6399C10 31.8808 10 35.5012 12.2493 37.7506Z" fill="#0077FF"/>
<path id="Vector_4" fill-rule="evenodd" clip-rule="evenodd" d="M34.0958 29.9699L31.961 29.4093C31.7039 29.3317 31.5224 29.0886 31.5133 28.806L31.2468 20.5457C31.1697 19.4524 30.3978 18.5828 29.5911 18.3268C29.5458 18.3124 29.4974 18.3318 29.4705 18.3727C29.4433 18.4144 29.4539 18.472 29.4918 18.5029C29.6911 18.6651 30.2394 19.1941 30.2394 20.1067L30.2378 30.9067C30.2378 31.9495 29.3004 32.7144 28.3336 32.4605L26.1657 31.8912C25.9254 31.8028 25.7584 31.5675 25.7496 31.296L25.4833 23.0351C25.4062 21.9419 24.6342 21.0724 23.8275 20.8162C23.7822 20.8019 23.7338 20.8212 23.707 20.8622C23.6798 20.9039 23.6903 20.9615 23.7283 20.9925C23.9275 21.1546 24.4758 21.6836 24.4758 22.5961L24.4742 31.5985L24.4755 31.5987V33.3972C24.4755 34.44 23.538 35.205 22.5712 34.951L16.4481 33.343C15.5968 33.1194 15 32.3189 15 31.4008V20.5838C15 19.541 15.9374 18.7762 16.9042 19.0301L20.7624 20.0433V18.0934C20.7624 17.0505 21.6998 16.2856 22.6666 16.5396L26.5245 17.5527V15.6028C26.5245 14.56 27.4619 13.795 28.4288 14.049L34.5519 15.657C35.4032 15.8806 36 16.6811 36 17.5992V28.4162C36 29.459 35.0626 30.2238 34.0958 29.9699Z" fill="white"/>
<path id="Vector_5" d="M63 38H60.1915L55.735 32.2979H53.3907V38H51V23H56.7563C57.8704 23 58.8685 23.1986 59.7506 23.5957C60.6325 23.9929 61.3134 24.5461 61.793 25.2553C62.2882 25.9504 62.5358 26.7518 62.5358 27.6596C62.5358 28.7944 62.1567 29.766 61.3985 30.5745C60.6403 31.3688 59.6267 31.8936 58.3578 32.149L63 38ZM53.3907 25.0213V30.2979H56.7563C57.7466 30.2979 58.5436 30.0567 59.147 29.5745C59.766 29.078 60.0755 28.4397 60.0755 27.6596C60.0755 26.8794 59.766 26.2482 59.147 25.766C58.5436 25.2696 57.7466 25.0213 56.7563 25.0213H53.3907Z" fill="white"/>
<path id="Vector_6" d="M68.3864 39C67.553 39 66.803 38.795 66.1364 38.3852C65.4697 37.9602 64.9469 37.3833 64.5681 36.6547C64.1893 35.9109 64 35.0759 64 34.1499V27H66.2273V33.9678C66.2273 34.8634 66.4772 35.5921 66.9772 36.1537C67.4773 36.7154 68.1212 36.9963 68.909 36.9963C69.7273 36.9963 70.409 36.7078 70.9545 36.1309C71.4999 35.5541 71.7727 34.833 71.7727 33.9678V27H74V38.7723H72.409L71.8863 36.9963C71.5076 37.6338 71.0075 38.1271 70.3863 38.4763C69.7802 38.8254 69.1136 39 68.3864 39Z" fill="white"/>
<path id="Vector_7" d="M82.7941 39C81.3855 39 80.1584 38.6322 79.1129 37.8965C78.0819 37.1462 77.3776 36.1311 77 34.851L79.1564 34.4979C79.5776 35.3218 80.0786 35.9324 80.6594 36.3296C81.2403 36.7122 81.9518 36.9035 82.7941 36.9035C83.6508 36.9035 84.3478 36.7122 84.8852 36.3296C85.4224 35.9324 85.691 35.3954 85.691 34.7186C85.691 34.2183 85.5386 33.7991 85.2336 33.4607C84.9432 33.1223 84.5729 32.8501 84.1228 32.6441C83.6726 32.4381 83.0845 32.2101 82.3584 31.96C81.3855 31.6363 80.5868 31.3126 79.9624 30.989C79.338 30.6652 78.8079 30.2092 78.3723 29.6207C77.9512 29.0174 77.7406 28.2524 77.7406 27.3255C77.7406 26.4575 77.9512 25.6997 78.3723 25.0523C78.8079 24.3903 79.4033 23.8827 80.1584 23.5296C80.9136 23.1765 81.7558 23 82.6852 23C83.9775 23 85.0884 23.3457 86.0178 24.0372C86.9471 24.714 87.6079 25.6482 88 26.84L85.8871 27.193C85.5967 26.5163 85.1829 26.0013 84.6455 25.6482C84.1082 25.2804 83.4766 25.0965 82.7505 25.0965C81.9663 25.0965 81.3202 25.2877 80.8119 25.6703C80.3036 26.0382 80.0495 26.5457 80.0495 27.193C80.0495 27.6786 80.1947 28.0905 80.4852 28.4289C80.7901 28.7674 81.1604 29.0395 81.5961 29.2455C82.0462 29.4515 82.6416 29.6868 83.3821 29.9517C84.326 30.2754 85.1102 30.6064 85.7346 30.9448C86.3735 31.2685 86.9108 31.732 87.3465 32.3351C87.7821 32.9384 88 33.6961 88 34.6082C88 35.4911 87.7676 36.2635 87.3029 36.9255C86.8528 37.5876 86.2284 38.1025 85.4297 38.4703C84.6455 38.8234 83.767 39 82.7941 39Z" fill="white"/>
<path id="Vector_8" d="M97 37.066L96.797 39H94.7403C93.5195 39 92.5936 38.7002 91.9607 38.1005C91.3278 37.5008 91.0113 36.6387 91.0113 35.5143V29.3298H89V27.3733H91.0113L91.6217 24H93.2255V27.3733H96.797V29.3298H93.2255V35.5143C93.2255 36.5488 93.7305 37.066 94.7403 37.066H97Z" fill="white"/>
<path id="Vector_9" d="M105 39C103.842 39 102.81 38.7467 101.902 38.2402C100.993 37.7337 100.283 37.026 99.7691 36.1173C99.2567 35.2086 99 34.1732 99 33.0111C99 31.8492 99.2567 30.8138 99.7691 29.905C100.283 28.9962 100.993 28.2886 101.902 27.7821C102.81 27.2607 103.842 27 105 27C106.158 27 107.19 27.2607 108.098 27.7821C109.008 28.2886 109.717 28.9962 110.231 29.905C110.743 30.8138 111 31.8492 111 33.0111C111 34.1732 110.743 35.2086 110.231 36.1173C109.717 37.026 109.008 37.7337 108.098 38.2402C107.19 38.7467 106.158 39 105 39ZM105 36.9888C106.114 36.9888 107.014 36.6238 107.704 35.8939C108.407 35.1639 108.759 34.203 108.759 33.0111C108.759 31.8194 108.407 30.8585 107.704 30.1285C107.014 29.3836 106.114 29.0112 105 29.0112C103.886 29.0112 102.986 29.3836 102.297 30.1285C101.608 30.8585 101.264 31.8194 101.264 33.0111C101.264 34.188 101.608 35.1489 102.297 35.8939C102.986 36.6238 103.886 36.9888 105 36.9888Z" fill="white"/>
<path id="Vector_10" d="M113 38V27H114.626L115.107 28.5745C115.458 28.0213 115.894 27.6241 116.412 27.383C116.931 27.1276 117.55 27 118.267 27H118.817L119 29H117.717C116.894 29 116.275 29.2199 115.863 29.6596C115.451 30.0993 115.244 30.6951 115.244 31.4468V38H113Z" fill="white"/>
<path id="Vector_11" d="M132 32.9218C132 33.2197 131.993 33.4506 131.978 33.6145H122.309C122.43 34.6425 122.838 35.4618 123.532 36.0726C124.226 36.6834 125.11 36.9888 126.181 36.9888C126.921 36.9888 127.577 36.8473 128.151 36.5643C128.739 36.2663 129.185 35.8789 129.487 35.4022L131.57 35.7374C131.117 36.7803 130.385 37.5848 129.373 38.1508C128.378 38.7169 127.268 39 126.046 39C124.884 39 123.842 38.7467 122.921 38.2402C122.001 37.7188 121.283 37.0037 120.77 36.095C120.256 35.1862 120 34.1582 120 33.0111C120 31.8492 120.256 30.8138 120.77 29.905C121.283 28.9962 121.992 28.2886 122.898 27.7821C123.804 27.2607 124.837 27 126.001 27C127.148 27 128.173 27.2607 129.079 27.7821C130.001 28.2886 130.717 28.9962 131.231 29.905C131.744 30.7988 132 31.8045 132 32.9218ZM126.001 28.9441C125.11 28.9441 124.34 29.2048 123.69 29.7262C123.056 30.2476 122.634 30.9478 122.422 31.8268H129.578C129.381 30.9628 128.959 30.27 128.31 29.7486C127.675 29.2123 126.906 28.9441 126.001 28.9441Z" fill="white"/>
<path id="Vector_12" d="M54.1939 17C53.3939 17 52.6748 16.8308 52.0364 16.4924C51.398 16.1467 50.897 15.6685 50.5333 15.0579C50.1778 14.4474 50 13.7595 50 12.9945C50 12.2294 50.1778 11.5453 50.5333 10.9421C50.897 10.3315 51.3939 9.85701 52.0242 9.51862C52.6626 9.17287 53.3818 9 54.1818 9C55.0465 9 55.8141 9.19862 56.4848 9.59586C57.1636 9.98575 57.6485 10.5154 57.9394 11.1848L56.703 11.3614C56.4768 10.9494 56.1414 10.6294 55.697 10.4014C55.2606 10.166 54.7677 10.0483 54.2182 10.0483C53.6525 10.0483 53.1475 10.1733 52.703 10.4234C52.2667 10.6736 51.9232 11.023 51.6727 11.4717C51.4303 11.9131 51.3091 12.4207 51.3091 12.9945C51.3091 13.5756 51.4303 14.0906 51.6727 14.5393C51.9232 14.9807 52.2707 15.3264 52.7152 15.5766C53.1596 15.8267 53.6687 15.9517 54.2424 15.9517C54.8081 15.9517 55.3091 15.834 55.7455 15.5986C56.1899 15.3559 56.5293 15.0175 56.7636 14.5834L58 14.76C57.6929 15.4441 57.196 15.9885 56.5091 16.3931C55.8222 16.7977 55.0505 17 54.1939 17Z" fill="white"/>
<path id="Vector_13" d="M64 17H62.5635L60.4365 14.5164H60.0913V17H59V11H60.0913V13.4255H60.4254L62.4633 11H63.7773L61.3051 13.9014L64 17Z" fill="white"/>
<path id="Vector_14" d="M66.6531 11C67.3787 11 67.9494 11.2346 68.3651 11.7039C68.7884 12.1657 69 12.8138 69 13.648V16.8883H68.2063L67.9456 15.9832C67.7566 16.2737 67.5034 16.5158 67.1859 16.7095C66.8685 16.9032 66.4868 17 66.0408 17C65.6478 17 65.2963 16.9218 64.9864 16.7654C64.6765 16.6089 64.4346 16.3929 64.2608 16.1173C64.0869 15.8343 64 15.5177 64 15.1676C64 14.6238 64.2192 14.1881 64.6576 13.8603C65.096 13.5326 65.7309 13.3687 66.5624 13.3687H67.8889C67.8587 12.9143 67.7302 12.5642 67.5034 12.3184C67.2766 12.0652 66.9743 11.9385 66.5964 11.9385C66.3091 11.9385 66.0559 12.0056 65.8367 12.1397C65.6175 12.2737 65.4512 12.4488 65.3379 12.6648L64.3061 12.4972C64.4573 12.0354 64.7483 11.6704 65.1791 11.4022C65.61 11.1341 66.1013 11 66.6531 11ZM66.2789 16.0726C66.7551 16.0726 67.1406 15.9199 67.4354 15.6145C67.7377 15.3017 67.8889 14.8734 67.8889 14.3296V14.2626H66.5964C65.6138 14.2626 65.1224 14.5531 65.1224 15.1341C65.1224 15.4171 65.2283 15.6443 65.4399 15.8156C65.6516 15.987 65.9312 16.0726 66.2789 16.0726Z" fill="white"/>
<path id="Vector_15" d="M73.8136 14.8182C73.6199 14.9033 73.3898 14.9691 73.1235 15.0155C72.8571 15.0619 72.5948 15.0851 72.3366 15.0851C71.586 15.0851 71.0089 14.8839 70.6053 14.4816C70.2018 14.0793 70 13.5106 70 12.7756V11H71.1864V12.7756C71.1864 13.6344 71.6182 14.0638 72.4818 14.0638C73.0065 14.0638 73.4504 13.9749 73.8136 13.7969V11H75V17H73.8136V14.8182Z" fill="white"/>
<path id="Vector_16" d="M78.6531 11C79.3787 11 79.9494 11.2346 80.3651 11.7039C80.7884 12.1657 81 12.8138 81 13.648V16.8883H80.2063L79.9456 15.9832C79.7566 16.2737 79.5034 16.5158 79.1859 16.7095C78.8685 16.9032 78.4868 17 78.0408 17C77.6478 17 77.2963 16.9218 76.9864 16.7654C76.6765 16.6089 76.4346 16.3929 76.2608 16.1173C76.0869 15.8343 76 15.5177 76 15.1676C76 14.6238 76.2192 14.1881 76.6576 13.8603C77.096 13.5326 77.7309 13.3687 78.5624 13.3687H79.8889C79.8587 12.9143 79.7302 12.5642 79.5034 12.3184C79.2766 12.0652 78.9743 11.9385 78.5964 11.9385C78.3091 11.9385 78.0559 12.0056 77.8367 12.1397C77.6175 12.2737 77.4512 12.4488 77.3379 12.6648L76.3061 12.4972C76.4573 12.0354 76.7483 11.6704 77.1791 11.4022C77.61 11.1341 78.1013 11 78.6531 11ZM78.2789 16.0726C78.7551 16.0726 79.1406 15.9199 79.4354 15.6145C79.7377 15.3017 79.8889 14.8734 79.8889 14.3296V14.2626H78.5964C77.6138 14.2626 77.1224 14.5531 77.1224 15.1341C77.1224 15.4171 77.2283 15.6443 77.4399 15.8156C77.6516 15.987 77.9312 16.0726 78.2789 16.0726Z" fill="white"/>
<path id="Vector_17" d="M83.875 17H82V11.2715H83.2285V15.7812H83.4224L86.125 11.2715H88V17H86.7716V12.5014H86.5776L83.875 17ZM85.0129 10.5291C84.4526 10.5291 83.9828 10.4035 83.6035 10.1524C83.2328 9.89381 83.0129 9.5097 82.944 9H83.9785C84.0216 9.23638 84.1293 9.41736 84.3017 9.54294C84.4828 9.66113 84.7198 9.72022 85.0129 9.72022C85.306 9.72022 85.5388 9.66113 85.7112 9.54294C85.8922 9.41736 86 9.23638 86.0345 9H87.0819C87.0043 9.5097 86.7759 9.89381 86.3966 10.1524C86.0259 10.4035 85.5647 10.5291 85.0129 10.5291Z" fill="white"/>
<path id="Vector_18" d="M91.6446 17H90.3554V12.0445H88V11H94V12.0445H91.6446V17Z" fill="white"/>
<path id="Vector_19" d="M100 13.9609C100 14.1099 99.9962 14.2253 99.9887 14.3073H95.1547C95.2151 14.8212 95.4189 15.2309 95.766 15.5363C96.1132 15.8417 96.5547 15.9944 97.0906 15.9944C97.4604 15.9944 97.7887 15.9236 98.0755 15.7821C98.3698 15.6331 98.5925 15.4395 98.7434 15.2011L99.7849 15.3687C99.5585 15.8901 99.1925 16.2924 98.6868 16.5754C98.1887 16.8585 97.634 17 97.0226 17C96.4415 17 95.9208 16.8734 95.4604 16.6201C95 16.3594 94.6415 16.0019 94.3849 15.5475C94.1283 15.0931 94 14.5791 94 14.0056C94 13.4246 94.1283 12.9069 94.3849 12.4525C94.6415 11.9981 94.9962 11.6443 95.4491 11.3911C95.9019 11.1304 96.4189 11 97 11C97.5736 11 98.0868 11.1304 98.5396 11.3911C99 11.6443 99.3585 11.9981 99.6151 12.4525C99.8717 12.8994 100 13.4022 100 13.9609ZM97 11.9721C96.5547 11.9721 96.1698 12.1024 95.8453 12.3631C95.5283 12.6238 95.317 12.9739 95.2113 13.4134H98.7887C98.6906 12.9814 98.4792 12.635 98.1547 12.3743C97.8377 12.1061 97.4528 11.9721 97 11.9721Z" fill="white"/>
<path id="Vector_20" d="M105.563 17H104V11H105.024V15.7234H105.185L107.438 11H109V17H107.976V12.2882H107.815L105.563 17Z" fill="white"/>
<path id="Vector_21" d="M113.877 13.9385C114.2 14.0279 114.468 14.1918 114.681 14.4302C114.894 14.6611 115 14.9479 115 15.2905C115 15.6108 114.901 15.9013 114.704 16.162C114.507 16.4153 114.224 16.6201 113.853 16.7765C113.491 16.9255 113.069 17 112.589 17C111.942 17 111.387 16.8585 110.922 16.5754C110.457 16.2849 110.15 15.8976 110 15.4134L111.076 15.2458C111.336 15.7821 111.836 16.0503 112.577 16.0503C112.987 16.0503 113.298 15.9795 113.511 15.838C113.731 15.689 113.842 15.4842 113.842 15.2235C113.842 14.9926 113.739 14.8063 113.534 14.6648C113.337 14.5233 113.018 14.4525 112.577 14.4525H111.773V13.4916H112.577C112.955 13.4916 113.243 13.4246 113.44 13.2905C113.645 13.1564 113.747 12.9777 113.747 12.7542C113.747 12.5158 113.637 12.3222 113.416 12.1732C113.203 12.0242 112.939 11.9497 112.624 11.9497C112.317 11.9497 112.041 12.0205 111.797 12.162C111.552 12.3035 111.367 12.4972 111.241 12.743L110.165 12.5642C110.347 12.0652 110.658 11.6816 111.099 11.4134C111.548 11.1378 112.069 11 112.66 11C113.085 11 113.467 11.0708 113.806 11.2123C114.153 11.3538 114.421 11.5512 114.61 11.8045C114.807 12.0577 114.905 12.3408 114.905 12.6536C114.905 12.9739 114.811 13.2458 114.622 13.4693C114.433 13.6927 114.184 13.8492 113.877 13.9385Z" fill="white"/>
</g>
<defs>
<clipPath id="clip0_1898_2505">
<rect width="160" height="48" fill="white"/>
</clipPath>
</defs>
</svg>
