<svg width="16" height="13" viewBox="0 0 16 13" fill="none" xmlns="http://www.w3.org/2000/svg">
<path d="M1.67476 5.45297C5.61181 3.66542 8.23712 2.48696 9.5507 1.91759C13.3012 0.291912 14.0806 0.00951475 14.5885 9.04029e-05C14.7003 -0.00186109 14.95 0.0269923 15.1119 0.163819C15.2485 0.279352 15.2861 0.435421 15.3041 0.544959C15.3221 0.654498 15.3445 0.904028 15.3267 1.099C15.1234 3.32443 14.244 8.72496 13.7966 11.2175C13.6073 12.2722 13.2345 12.6258 12.8736 12.6604C12.0893 12.7356 11.4938 12.1203 10.7342 11.6014C9.54556 10.7894 8.87406 10.2839 7.72028 9.49158C6.38689 8.57589 7.25127 8.07261 8.01117 7.25012C8.21003 7.03486 11.6656 3.75943 11.7324 3.4623C11.7408 3.42514 11.7486 3.28662 11.6696 3.21347C11.5906 3.14033 11.4741 3.16534 11.39 3.18523C11.2708 3.21343 9.37191 4.52136 5.6934 7.10903C5.15442 7.49472 4.66622 7.68265 4.22882 7.6728C3.74661 7.66194 2.81904 7.38867 2.12949 7.15508C1.28372 6.86858 0.611524 6.71711 0.670057 6.23053C0.700545 5.9771 1.03545 5.71791 1.67476 5.45297Z" fill="#F4F4F5"/>
</svg>
