<svg width="56" height="56" viewBox="0 0 56 56" fill="none" xmlns="http://www.w3.org/2000/svg">
<g id="mastercard">
<g id="Group">
<g id="Group_2">
<path id="Vector" d="M35.0747 40.2316H21.4648V15.7723H35.0747V40.2316Z" fill="#C3C0C0"/>
<g id="Group_3">
<path id="Vector_2" d="M22.337 28C22.337 23.0383 24.6601 18.6186 28.2777 15.7703C25.6322 13.6876 22.2934 12.4444 18.6649 12.4444C10.0747 12.4444 3.11133 19.4088 3.11133 28C3.11133 36.5912 10.0747 43.5555 18.6649 43.5555C22.2934 43.5555 25.6322 42.3124 28.2777 40.2296C24.6601 37.3814 22.337 32.9617 22.337 28Z" fill="#414349"/>
</g>
<g id="Group_4">
<path id="Vector_3" d="M53.4301 28C53.4301 36.5912 46.4667 43.5555 37.8765 43.5555C34.248 43.5555 30.9092 42.3124 28.2627 40.2296C31.8813 37.3814 34.2044 32.9617 34.2044 28C34.2044 23.0383 31.8813 18.6186 28.2627 15.7703C30.9092 13.6876 34.248 12.4444 37.8765 12.4444C46.4667 12.4444 53.4301 19.4088 53.4301 28Z" fill="#6B6D75"/>
</g>
</g>
</g>
</g>
</svg>
