<svg width="16" height="16" viewBox="0 0 16 16" fill="none" xmlns="http://www.w3.org/2000/svg">
<g id="call 1">
<g id="Group">
<g id="Group_2">
<path id="Vector" d="M13.0371 9.87663C12.3024 9.87663 11.5811 9.76172 10.8975 9.53581C10.5625 9.42156 10.1507 9.52638 9.94628 9.73634L8.597 10.7549C7.03222 9.91963 6.06834 8.95606 5.24447 7.40303L6.23306 6.08891C6.48991 5.83241 6.58203 5.45772 6.47166 5.10616C6.24478 4.41897 6.12953 3.69794 6.12953 2.96294C6.12956 2.43197 5.69759 2 5.16666 2H2.96291C2.43197 2 2 2.43197 2 2.96291C2 9.04884 6.95119 14 13.0371 14C13.5681 14 14 13.568 14 13.0371V10.8395C14 10.3086 13.568 9.87663 13.0371 9.87663Z" fill="#242424"/>
</g>
</g>
</g>
</svg>
