<svg width="16" height="16" viewBox="0 0 16 16" fill="none" xmlns="http://www.w3.org/2000/svg">
<g id="mail-2 2">
<g id="Group">
<g id="Group_2">
<path id="Vector" d="M14.8768 4.78143L10.6309 9L14.8768 13.2186C14.9535 13.0581 15.0001 12.8808 15.0001 12.6914V5.30859C15.0001 5.11918 14.9535 4.94186 14.8768 4.78143Z" fill="#242424"/>
</g>
</g>
<g id="Group_3">
<g id="Group_4">
<path id="Vector_2" d="M13.7693 4.07812H2.23029C2.04087 4.07812 1.86355 4.12469 1.70312 4.20145L7.12985 9.60082C7.60968 10.0807 8.38996 10.0807 8.86978 9.60082L14.2965 4.20145C14.1361 4.12469 13.9588 4.07812 13.7693 4.07812Z" fill="#242424"/>
</g>
</g>
<g id="Group_5">
<g id="Group_6">
<path id="Vector_3" d="M1.12332 4.78143C1.04657 4.94186 1 5.11918 1 5.30859V12.6914C1 12.8808 1.04657 13.0582 1.12332 13.2186L5.36923 9L1.12332 4.78143Z" fill="#242424"/>
</g>
</g>
<g id="Group_7">
<g id="Group_8">
<path id="Vector_4" d="M10.0506 9.57999L9.44977 10.1808C8.65027 10.9803 7.34934 10.9803 6.54983 10.1808L5.94903 9.57999L1.70312 13.7986C1.86355 13.8753 2.04087 13.9219 2.23029 13.9219H13.7693C13.9588 13.9219 14.1361 13.8753 14.2965 13.7986L10.0506 9.57999Z" fill="#242424"/>
</g>
</g>
</g>
</svg>
