<svg width="56" height="16" viewBox="0 0 56 16" fill="none" xmlns="http://www.w3.org/2000/svg">
<g id="national-payment-system-mir 1" clip-path="url(#clip0_1898_1102)">
<path id="Vector" d="M15.0906 0.00347931V0.0104658C15.0837 0.0104658 12.9025 0.003479 12.3208 2.10623C11.7877 4.03433 10.2851 9.35525 10.2435 9.50195H9.82804C9.82804 9.50195 8.29082 4.06228 7.75072 2.09924C7.16907 -0.00350748 4.98096 0.00347931 4.98096 0.00347931H0V15.9965H4.98327V6.49795H5.39873L8.30698 15.9964H11.7669L14.6751 6.50494H15.0906V15.9964H20.0739V0.00347931H15.0906ZM33.2949 0.00347931C33.2949 0.00347931 31.8338 0.13621 31.1483 1.68016L27.6192 9.50195H27.2037V0.00347931H22.2204V15.9965H26.9267C26.9267 15.9965 28.457 15.8568 29.1426 14.3199L32.6025 6.49802H33.018V15.9965H38.0012V0.00347931H33.2949ZM40.217 7.26647V15.9965H45.2002V10.8991H50.599C52.9533 10.8991 54.9453 9.38319 55.6862 7.2688H40.217V7.26647Z" fill="#666870"/>
<path id="Vector_2" d="M50.6012 0.003479H39.5176C40.0715 3.04932 42.3357 5.49206 45.2625 6.28845C45.9419 6.47411 46.6428 6.56809 47.3467 6.56795H55.8891C55.9653 6.20469 55.9999 5.83444 55.9999 5.45021C56 2.44155 53.5834 0.003479 50.6012 0.003479Z" fill="#C3C0C0"/>
</g>
<defs>
<clipPath id="clip0_1898_1102">
<rect width="56" height="16" fill="white"/>
</clipPath>
</defs>
</svg>
